<svg width="1281" height="461" viewBox="0 0 1281 461" fill="none" xmlns="http://www.w3.org/2000/svg">
<rect x="1" width="1280" height="461" fill="url(#paint0_linear_28_15269)"/>
<path d="M1045.5 130.885V130.385H1045H1015.99H1015.49V130.885V217.087H1015.04L955.681 130.602L955.532 130.385H955.269H929.689H929.189V130.885V268.747V269.247H929.689H958.837H959.337V268.747V182.477H959.584L1019.41 269.031L1019.56 269.247H1019.82H1045H1045.5V268.747V130.885Z" stroke="white" stroke-opacity="0.2"/>
<path d="M896.73 130.885V130.385H896.23H867.082H866.582V130.885V268.747V269.247H867.082H896.23H896.73V268.747V130.885Z" stroke="white" stroke-opacity="0.2"/>
<path d="M831.948 251.595C836.275 245.31 838.453 237.894 838.499 229.37L838.499 229.363C838.453 223.56 837.388 218.395 835.289 213.877C833.24 209.371 830.349 205.456 826.618 202.135C822.896 198.821 818.498 196.034 813.43 193.772C808.371 191.513 802.821 189.709 796.78 188.356C796.779 188.356 796.777 188.356 796.776 188.355L784.397 185.395L784.397 185.395L784.39 185.394C781.403 184.725 778.596 183.923 775.97 182.988C773.354 182.012 771.056 180.884 769.073 179.607C767.108 178.296 765.568 176.754 764.444 174.982C763.382 173.238 762.884 171.185 762.97 168.802L762.971 168.792V168.783C762.971 165.926 763.791 163.383 765.43 161.138C767.115 158.893 769.545 157.126 772.753 155.852L772.753 155.852L772.758 155.85C775.957 154.535 779.905 153.868 784.618 153.868C791.551 153.868 796.977 155.357 800.948 158.281C804.908 161.197 807.155 165.282 807.68 170.583L807.725 171.034H808.178H836.114H836.622L836.614 170.525C836.478 162.224 834.253 154.902 829.93 148.576C825.609 142.254 819.566 137.329 811.819 133.796C804.112 130.26 795.108 128.5 784.819 128.5C774.709 128.5 765.662 130.261 757.691 133.793C749.722 137.325 743.433 142.247 738.843 148.564L738.841 148.566C734.287 154.897 732.038 162.294 732.083 170.736C732.038 181.044 735.428 189.288 742.28 195.409C749.089 201.492 758.348 205.942 770.025 208.783C770.026 208.783 770.026 208.783 770.027 208.783L785.034 212.552L785.039 212.553C790.047 213.761 794.26 215.099 797.682 216.566L797.684 216.566C801.138 218.028 803.712 219.783 805.441 221.815L805.445 221.82C807.197 223.828 808.082 226.31 808.082 229.3C808.082 232.511 807.109 235.34 805.16 237.808C803.206 240.283 800.436 242.233 796.822 243.643L796.82 243.644C793.256 245.052 789.036 245.763 784.146 245.763C779.172 245.763 774.725 245.008 770.797 243.509C766.925 241.968 763.839 239.709 761.521 236.737C759.258 233.732 757.96 229.972 757.652 225.429L757.62 224.963H757.153H728.948H728.436L728.448 225.474C728.674 235.467 731.095 243.891 735.737 250.718L735.739 250.721C740.421 257.494 746.918 262.601 755.211 266.045L755.212 266.045C763.543 269.486 773.303 271.199 784.483 271.199C795.75 271.199 805.401 269.509 813.422 266.11L813.423 266.11C821.483 262.668 827.668 257.834 831.948 251.595ZM831.948 251.595C831.948 251.595 831.948 251.595 831.949 251.595L831.536 251.312L831.948 251.595C831.948 251.595 831.948 251.595 831.948 251.595ZM729.448 225.463H757.153H729.448ZM729.448 225.463C729.448 225.459 729.448 225.455 729.448 225.452L728.948 225.463V225.963H728.961C729.254 235.661 731.65 243.819 736.15 250.437C740.773 257.123 747.19 262.172 755.403 265.583C763.66 268.993 773.353 270.699 784.483 270.699C795.702 270.699 805.283 269.016 813.227 265.65L729.448 225.463ZM805.822 221.491C804.027 219.382 801.379 217.587 797.879 216.106L770.616 243.975C774.61 245.5 779.12 246.263 784.146 246.263C789.083 246.263 793.369 245.545 797.004 244.109C800.683 242.673 803.533 240.676 805.553 238.118C807.572 235.56 808.582 232.621 808.582 229.3C808.582 226.203 807.662 223.6 805.822 221.491Z" stroke="white" stroke-opacity="0.2"/>
<path d="M670.784 130.385H670.284V130.885V217.923C670.284 223.097 669.135 227.677 666.85 231.677L666.848 231.681C664.606 235.681 661.421 238.824 657.281 241.114L657.279 241.115C653.193 243.4 648.366 244.552 642.781 244.552C637.242 244.552 632.414 243.4 628.281 241.114C624.141 238.824 620.933 235.68 618.646 231.679C616.405 227.679 615.278 223.098 615.278 217.923V130.885V130.385H614.778H585.63H585.13V130.885V220.414C585.13 230.549 587.529 239.439 592.343 247.069C597.153 254.692 603.89 260.631 612.538 264.887L612.54 264.888C621.192 269.101 631.277 271.199 642.781 271.199C654.241 271.199 664.304 269.1 672.955 264.888L672.957 264.887C681.605 260.631 688.342 254.692 693.151 247.069C698.01 239.44 700.432 230.549 700.432 220.414V130.885V130.385H699.932H670.784Z" stroke="white" stroke-opacity="0.2"/>
<path d="M450.328 268.747V269.247H450.828H509.729C520.102 269.247 528.863 267.578 535.993 264.217C543.111 260.863 548.508 256.294 552.156 250.502C555.846 244.672 557.686 238.048 557.686 230.646C557.686 223.799 556.235 217.874 553.31 212.892C550.398 207.887 546.592 203.987 541.892 201.203C537.384 198.508 532.549 197.01 527.394 196.715V196.242C532.094 195.143 536.287 193.331 539.967 190.804L539.968 190.803C543.804 188.155 546.819 184.774 549.011 180.664L549.012 180.662C551.21 176.495 552.301 171.678 552.301 166.225C552.301 159.229 550.573 153.03 547.106 147.646C543.634 142.21 538.458 137.977 531.607 134.938C524.748 131.894 516.215 130.385 506.027 130.385H450.828H450.328V130.885V268.747ZM516.239 211.236L516.242 211.238C519.577 212.861 522.128 215.09 523.914 217.921C525.698 220.75 526.596 224.021 526.596 227.751C526.596 232.821 524.791 236.85 521.188 239.889C517.596 242.874 511.816 244.417 503.738 244.417H480.476V208.797H504.411C509.02 208.797 512.957 209.617 516.239 211.236ZM519.216 180.14L519.213 180.145C517.474 182.666 515.08 184.63 512.013 186.032C508.992 187.389 505.519 188.074 501.584 188.074H480.476V154.945H502.122C508.511 154.945 513.359 156.454 516.738 159.399L516.74 159.402C520.167 162.351 521.884 166.226 521.884 171.072C521.884 174.619 520.988 177.633 519.216 180.14Z" stroke="white" stroke-opacity="0.2"/>
<path d="M267.896 130.385H267.396V130.885V268.747V269.247H267.896H296.168H296.668V268.747V179.179H296.973L332.525 268.259L332.651 268.573H332.989H352.242H352.58L352.706 268.259L388.257 179.515H388.563V268.747V269.247H389.063H417.335H417.835V268.747V130.885V130.385H417.335H381.389H381.054L380.926 130.695L343.088 223.011H342.143L304.305 130.695L304.177 130.385H303.842H267.896Z" stroke="white" stroke-opacity="0.2"/>
<path d="M141.849 268.747V269.247H142.349H235.514H236.014V268.747V244.715V244.215H235.514H171.997V212.298H230.465H230.965V211.798V187.766V187.266H230.465H171.997V155.416H235.244H235.744V154.916V130.885V130.385H235.244H142.349H141.849V130.885V268.747Z" stroke="white" stroke-opacity="0.2"/>
<path d="M0.5 154.916V155.416H1H42.7067V268.747V269.247H43.2067H72.0176H72.5176V268.747V155.416H114.224H114.724V154.916V130.885V130.385H114.224H1H0.5V130.885V154.916Z" stroke="white" stroke-opacity="0.2"/>
<g opacity="0.5" clip-path="url(#clip0_28_15269)">
<path d="M1034.98 125.711V324.265C1032.36 325.733 1023.81 323.707 1019.31 322.485L1034.98 125.711ZM1034.98 125.711L1035.18 125.633L1035.35 125.562L1035.01 124.704L1034.98 125.711ZM1176 242.03C1181.72 217.066 1182.41 186.727 1173.07 135.011L1172.98 134.479L1172.48 134.268L1081.57 95.8424L1080.18 95.2552V96.7635V123.28L1080.07 123.245V124.634V324.265V324.848L1080.58 325.136C1081.21 325.49 1081.99 325.658 1082.8 325.731C1083.62 325.805 1084.56 325.787 1085.54 325.711C1087.5 325.558 1089.74 325.16 1091.84 324.706C1092.75 324.51 1093.63 324.303 1094.46 324.098C1077.43 336.382 1061.14 347.612 1058 349.752C1054.86 347.612 1038.6 336.382 1021.55 324.098C1022.38 324.303 1023.26 324.51 1024.17 324.706C1026.28 325.16 1028.52 325.558 1030.49 325.711C1031.48 325.787 1032.41 325.805 1033.24 325.731C1034.05 325.658 1034.84 325.491 1035.47 325.138L1035.98 324.851V324.265V124.634V123.155L1035.8 123.226V96.7635V95.2553L1034.42 95.8424L943.487 134.268L942.989 134.478L942.892 135.011C933.557 186.539 934.209 216.8 939.881 241.75C928.182 214.404 919.206 174.481 920.06 116.576C920.143 116.548 920.234 116.517 920.332 116.484C920.952 116.274 921.868 115.962 923.054 115.551C925.425 114.729 928.873 113.512 933.187 111.931C941.813 108.77 953.903 104.154 967.758 98.3329C995.279 86.7693 1029.81 70.4303 1058 51.269C1086.19 70.4303 1120.72 86.7693 1148.24 98.3329C1162.1 104.154 1174.19 108.77 1182.81 111.931C1187.13 113.512 1190.58 114.729 1192.95 115.551C1194.13 115.962 1195.05 116.274 1195.67 116.484C1195.77 116.517 1195.86 116.548 1195.94 116.576C1196.79 174.693 1187.75 214.693 1176 242.03ZM919.071 115.852C919.071 115.852 1000.72 88.8819 1057.11 50.6632L941.216 247.193C928.319 219.514 918.073 177.913 919.071 115.852ZM943.876 135.189C933.881 190.361 935.372 221.009 942.16 246.851L1034.8 123.627V97.8491L1035.19 97.6846L1034.8 96.7635H1033.8V97.1861L943.876 135.189ZM1057.1 350.348C1053.06 347.586 1036.11 335.859 1018.87 323.402L1057.1 350.348ZM1082.18 97.1862V96.7635H1081.18L1080.79 97.6846L1081.18 97.8491L1082.18 97.1862Z" fill="url(#paint1_linear_28_15269)" stroke="url(#paint2_linear_28_15269)" stroke-width="2"/>
<path d="M943.876 135.189L1034.79 96.7637V124.705L967.284 153.426C967.284 153.426 947.288 225.913 987.757 299.518C986.502 299.074 962.846 290.08 943.663 252.204C935.654 225.168 933.197 194.211 943.876 135.171V135.189Z" fill="#2E449C"/>
<path d="M1172.2 252.524C1172.2 252.524 1172.19 252.594 1172.16 252.63C1152.98 290.168 1129.5 299.092 1128.24 299.535C1168.75 225.931 1148.72 153.444 1148.72 153.444L1081.18 124.687V96.7812L1172.09 135.207C1182.79 194.459 1180.29 225.505 1172.2 252.541V252.524Z" fill="#2E449C"/>
</g>
<defs>
<linearGradient id="paint0_linear_28_15269" x1="434" y1="706.482" x2="84.4079" y2="-194.039" gradientUnits="userSpaceOnUse">
<stop stop-color="#46A7DE"/>
<stop offset="1" stop-color="#2E449C"/>
</linearGradient>
<linearGradient id="paint1_linear_28_15269" x1="991.736" y1="93.1622" x2="1205.45" y2="338.73" gradientUnits="userSpaceOnUse">
<stop offset="0.06" stop-color="#46A7DE"/>
<stop offset="0.63" stop-color="#3E5CAA"/>
<stop offset="1" stop-color="#2E449C"/>
</linearGradient>
<linearGradient id="paint2_linear_28_15269" x1="975.14" y1="60.5567" x2="1114" y2="375.337" gradientUnits="userSpaceOnUse">
<stop stop-color="white"/>
<stop offset="1" stop-color="#930B9F"/>
</linearGradient>
<clipPath id="clip0_28_15269">
<rect width="278" height="301" fill="white" transform="translate(919 50)"/>
</clipPath>
</defs>
</svg>
