<svg width="796" height="548" viewBox="0 0 796 548" fill="none" xmlns="http://www.w3.org/2000/svg">
<path d="M702.5 548L796 0H0V548H702.5Z" fill="#2E449C"/>
<g opacity="0.3">
<path d="M192 149H186V155H192V149Z" fill="#46A7DE"/>
<path d="M192 165H186V171H192V165Z" fill="#46A7DE"/>
<path d="M186 181H192V187H186V181Z" fill="#46A7DE"/>
<path d="M192 197H186V203H192V197Z" fill="#46A7DE"/>
<path d="M186 213H192V219H186V213Z" fill="#46A7DE"/>
<path d="M192 229H186V235H192V229Z" fill="#46A7DE"/>
<path d="M202 149H208V155H202V149Z" fill="#46A7DE"/>
<path d="M208 165H202V171H208V165Z" fill="#46A7DE"/>
<path d="M202 181H208V187H202V181Z" fill="#46A7DE"/>
<path d="M208 197H202V203H208V197Z" fill="#46A7DE"/>
<path d="M202 213H208V219H202V213Z" fill="#46A7DE"/>
<path d="M208 229H202V235H208V229Z" fill="#46A7DE"/>
<path d="M218 149H224V155H218V149Z" fill="#46A7DE"/>
<path d="M224 165H218V171H224V165Z" fill="#46A7DE"/>
<path d="M218 181H224V187H218V181Z" fill="#46A7DE"/>
<path d="M224 197H218V203H224V197Z" fill="#46A7DE"/>
<path d="M218 213H224V219H218V213Z" fill="#46A7DE"/>
<path d="M224 229H218V235H224V229Z" fill="#46A7DE"/>
<path d="M234 149H240V155H234V149Z" fill="#46A7DE"/>
<path d="M240 165H234V171H240V165Z" fill="#46A7DE"/>
<path d="M234 181H240V187H234V181Z" fill="#46A7DE"/>
<path d="M240 197H234V203H240V197Z" fill="#46A7DE"/>
<path d="M234 213H240V219H234V213Z" fill="#46A7DE"/>
<path d="M240 229H234V235H240V229Z" fill="#46A7DE"/>
<path d="M250 149H256V155H250V149Z" fill="#46A7DE"/>
<path d="M256 165H250V171H256V165Z" fill="#46A7DE"/>
<path d="M250 181H256V187H250V181Z" fill="#46A7DE"/>
<path d="M256 197H250V203H256V197Z" fill="#46A7DE"/>
<path d="M250 213H256V219H250V213Z" fill="#46A7DE"/>
<path d="M256 229H250V235H256V229Z" fill="#46A7DE"/>
<path d="M266 149H272V155H266V149Z" fill="#46A7DE"/>
<path d="M272 165H266V171H272V165Z" fill="#46A7DE"/>
<path d="M266 181H272V187H266V181Z" fill="#46A7DE"/>
<path d="M272 197H266V203H272V197Z" fill="#46A7DE"/>
<path d="M266 213H272V219H266V213Z" fill="#46A7DE"/>
<path d="M272 229H266V235H272V229Z" fill="#46A7DE"/>
</g>
<g opacity="0.3">
<path d="M602.837 464H599V467.837H602.837V464Z" fill="#46A7DE"/>
<path d="M602.837 474.233H599V478.07H602.837V474.233Z" fill="#46A7DE"/>
<path d="M599 484.465H602.837V488.302H599V484.465Z" fill="#46A7DE"/>
<path d="M602.837 494.698H599V498.535H602.837V494.698Z" fill="#46A7DE"/>
<path d="M599 504.93H602.837V508.767H599V504.93Z" fill="#46A7DE"/>
<path d="M602.837 515.163H599V519H602.837V515.163Z" fill="#46A7DE"/>
<path d="M609.233 464H613.07V467.837H609.233V464Z" fill="#46A7DE"/>
<path d="M613.07 474.233H609.233V478.07H613.07V474.233Z" fill="#46A7DE"/>
<path d="M609.233 484.465H613.07V488.302H609.233V484.465Z" fill="#46A7DE"/>
<path d="M613.07 494.698H609.233V498.535H613.07V494.698Z" fill="#46A7DE"/>
<path d="M609.233 504.93H613.07V508.767H609.233V504.93Z" fill="#46A7DE"/>
<path d="M613.07 515.163H609.233V519H613.07V515.163Z" fill="#46A7DE"/>
<path d="M619.465 464H623.302V467.837H619.465V464Z" fill="#46A7DE"/>
<path d="M623.302 474.233H619.465V478.07H623.302V474.233Z" fill="#46A7DE"/>
<path d="M619.465 484.465H623.302V488.302H619.465V484.465Z" fill="#46A7DE"/>
<path d="M623.302 494.698H619.465V498.535H623.302V494.698Z" fill="#46A7DE"/>
<path d="M619.465 504.93H623.302V508.767H619.465V504.93Z" fill="#46A7DE"/>
<path d="M623.302 515.163H619.465V519H623.302V515.163Z" fill="#46A7DE"/>
<path d="M629.698 464H633.535V467.837H629.698V464Z" fill="#46A7DE"/>
<path d="M633.535 474.233H629.698V478.07H633.535V474.233Z" fill="#46A7DE"/>
<path d="M629.698 484.465H633.535V488.302H629.698V484.465Z" fill="#46A7DE"/>
<path d="M633.535 494.698H629.698V498.535H633.535V494.698Z" fill="#46A7DE"/>
<path d="M629.698 504.93H633.535V508.767H629.698V504.93Z" fill="#46A7DE"/>
<path d="M633.535 515.163H629.698V519H633.535V515.163Z" fill="#46A7DE"/>
<path d="M639.93 464H643.767V467.837H639.93V464Z" fill="#46A7DE"/>
<path d="M643.767 474.233H639.93V478.07H643.767V474.233Z" fill="#46A7DE"/>
<path d="M639.93 484.465H643.767V488.302H639.93V484.465Z" fill="#46A7DE"/>
<path d="M643.767 494.698H639.93V498.535H643.767V494.698Z" fill="#46A7DE"/>
<path d="M639.93 504.93H643.767V508.767H639.93V504.93Z" fill="#46A7DE"/>
<path d="M643.767 515.163H639.93V519H643.767V515.163Z" fill="#46A7DE"/>
<path d="M650.163 464H654V467.837H650.163V464Z" fill="#46A7DE"/>
<path d="M654 474.233H650.163V478.07H654V474.233Z" fill="#46A7DE"/>
<path d="M650.163 484.465H654V488.302H650.163V484.465Z" fill="#46A7DE"/>
<path d="M654 494.698H650.163V498.535H654V494.698Z" fill="#46A7DE"/>
<path d="M650.163 504.93H654V508.767H650.163V504.93Z" fill="#46A7DE"/>
<path d="M654 515.163H650.163V519H654V515.163Z" fill="#46A7DE"/>
</g>
</svg>
