<svg width="64" height="64" viewBox="0 0 64 64" fill="none" xmlns="http://www.w3.org/2000/svg">
<path d="M42.6901 36.8799V41.8799H35.1101V48.1799L25.0101 41.8799H3.61011V16.8799H21.2801V36.8799H42.6901Z" fill="#46A7DE" fill-opacity="0.4"/>
<path d="M4.72011 17.9699H21.2801V16.8799H3.61011V41.8799H4.72011V17.9699Z" fill="#46A7DE" fill-opacity="0.4"/>
<path d="M60.36 11.8797V36.8797H42.69V16.8797H21.28V11.8797H44L54.1 5.67969V11.8797H60.36Z" fill="white"/>
<path d="M22.29 12.9697H45.01L54.1 7.37969V5.67969L44 11.8797H21.28V16.8797H22.29V12.9697Z" fill="white"/>
<path d="M21.28 16.8799V36.8799H42.79V16.8799H21.28Z" fill="#46A7DE" fill-opacity="0.4"/>
<path d="M22.49 18.0799H42.69V16.8799H21.28V36.8799H22.49V18.0799Z" fill="#46A7DE" fill-opacity="0.4"/>
<path d="M36.4299 26.3797V30.1797C36.4299 31.0797 35.6199 31.8797 34.7099 31.8797H28.8499C27.9399 31.8797 27.1299 31.0797 27.1299 30.1797V26.3797C27.1299 25.4797 27.9399 24.6797 28.8499 24.6797H34.8099C35.6199 24.6797 36.4299 25.4797 36.4299 26.3797Z" fill="white"/>
<path d="M28.1499 31.3797V27.5797C28.1499 26.6797 28.9599 25.8797 29.8699 25.8797H35.8299C36.0299 25.8797 36.2299 25.8797 36.4399 25.9797C36.2399 25.2797 35.6299 24.6797 34.8199 24.6797H28.8599C27.9499 24.6797 27.1399 25.4797 27.1399 26.3797V30.1797C27.1399 30.8797 27.5399 31.4797 28.2499 31.7797C28.1499 31.6797 28.1499 31.4797 28.1499 31.3797Z" fill="white"/>
<path d="M16.23 19.3799H13.71V21.8799H16.23V19.3799Z" fill="#2E449C"/>
<path d="M12.4001 19.3799H9.87012V21.8799H12.4001V19.3799Z" fill="#2E449C"/>
<path d="M8.64988 19.3799H6.12988V21.8799H8.64988V19.3799Z" fill="#2E449C"/>
<path d="M60.3599 37.4699H21.2799C20.9799 37.4699 20.6699 37.1699 20.6699 36.8699V11.8799C20.6699 11.5799 20.9699 11.2799 21.2799 11.2799H43.7999L53.6999 5.07988C53.8999 4.97988 54.0999 4.97988 54.3099 5.07988C54.5099 5.17988 54.6099 5.37988 54.6099 5.57988V11.1799H60.2699C60.5699 11.1799 60.8799 11.4799 60.8799 11.7799V36.7799C61.0799 37.1799 60.7799 37.4799 60.3799 37.4799L60.3599 37.4699ZM21.8799 36.2699H59.7499V12.4699H54.0899C53.7899 12.4699 53.4799 12.1699 53.4799 11.8699V6.77988L44.3899 12.4799C44.2899 12.5799 44.1899 12.5799 44.0899 12.5799H21.8699V36.2799L21.8799 36.2699Z" fill="#2E449C"/>
<path d="M35.12 48.7798C35.02 48.7798 34.92 48.7798 34.82 48.6798L24.92 42.4798H3.61C3.31 42.4798 3 42.1798 3 41.8798V16.8798C3 16.5798 3.3 16.2798 3.61 16.2798H42.8C43.1 16.2798 43.41 16.5798 43.41 16.8798V41.8798C43.41 42.1798 43.11 42.4798 42.8 42.4798H35.83V48.0798C35.83 48.2798 35.73 48.4798 35.53 48.5798C35.33 48.6798 35.23 48.7798 35.13 48.7798H35.12ZM4.21 41.2798H25.01C25.11 41.2798 25.21 41.2798 25.31 41.3798L34.4 47.0798V41.9798C34.4 41.6798 34.7 41.3798 35.01 41.3798H41.98V17.4698H4.21V41.2698V41.2798Z" fill="#2E449C"/>
<path d="M55.31 58.7801H4.81996C4.51996 58.7801 4.20996 58.4801 4.20996 58.1801C4.20996 57.8801 4.50996 57.5801 4.81996 57.5801H55.32C55.62 57.5801 55.93 57.8801 55.93 58.1801C56.03 58.4801 55.73 58.7801 55.32 58.7801H55.31Z" fill="#2E449C"/>
<path d="M59.1501 53.7801H8.66005C8.36005 53.7801 8.05005 53.4801 8.05005 53.1801C8.05005 52.8801 8.35005 52.5801 8.66005 52.5801H59.16C59.46 52.5801 59.7701 52.8801 59.7701 53.1801C59.7701 53.4801 59.4701 53.7801 59.16 53.7801H59.1501Z" fill="#2E449C"/>
<path d="M34.71 32.4698H28.85C27.54 32.4698 26.53 31.4698 26.53 30.1698V26.3698C26.53 25.0698 27.54 24.0698 28.85 24.0698H29.25C29.55 24.0698 29.86 24.3698 29.86 24.6698C29.86 24.9698 29.56 25.2698 29.25 25.2698H28.85C28.24 25.2698 27.74 25.7698 27.74 26.3698V30.1698C27.74 30.7698 28.24 31.2698 28.85 31.2698H34.71C35.32 31.2698 35.82 30.7698 35.82 30.1698V26.3698C35.82 25.7698 35.32 25.2698 34.71 25.2698H34.31C34.01 25.2698 33.7 24.9698 33.7 24.6698C33.7 24.3698 34 24.0698 34.31 24.0698H34.71C36.02 24.0698 37.03 25.0698 37.03 26.3698V30.1698C37.03 31.4698 36.02 32.4698 34.71 32.4698Z" fill="#2E449C"/>
<path d="M34.31 25.3801H29.16C28.86 25.3801 28.55 25.0801 28.55 24.7801V22.9801C28.55 21.3801 29.86 20.0801 31.48 20.0801H31.98C33.6 20.0801 34.91 21.3801 34.91 22.9801V24.7801C35.01 25.0801 34.71 25.3801 34.3 25.3801H34.31ZM29.7701 24.0801H33.71V22.8801C33.71 21.9801 33 21.1801 31.99 21.1801H31.49C30.58 21.1801 29.7701 21.8801 29.7701 22.8801V24.0801Z" fill="#2E449C"/>
</svg>
