<svg width="64" height="64" viewBox="0 0 64 64" fill="none" xmlns="http://www.w3.org/2000/svg">
<path d="M37.5967 25.376C37.5967 22.208 36.1375 19.52 34.0063 18.56H34.0255C34.7071 18.08 35.1871 17.216 35.1871 16.256C35.1871 14.624 33.9295 13.376 32.2783 13.376C30.6271 13.376 29.3695 14.624 29.3695 16.256C29.3695 17.216 29.8495 18.08 30.5311 18.56C28.4959 19.52 26.9407 22.208 26.9407 25.376C26.9407 29.408 29.3599 32.576 32.2687 32.576C35.1775 32.576 37.5967 29.312 37.5967 25.376Z" fill="#46A7DE" fill-opacity="0.4"/>
<path fill-rule="evenodd" clip-rule="evenodd" d="M56.0095 60.224V25.376L32.9407 44.576L8.60474 25.376V60.224H56.0095ZM37.6927 53.024V55.424H35.2735V53.024H37.6927ZM34.1023 53.024V55.424H31.6831V53.024H34.1023ZM30.4159 53.024V55.424H27.9967V53.024H30.4159Z" fill="#46A7DE" fill-opacity="0.4"/>
<path fill-rule="evenodd" clip-rule="evenodd" d="M32.2591 33.2483C30.469 33.2483 28.8775 32.2269 27.7977 30.6005L25.3858 32.1925C25.2733 32.1925 25.1938 32.2254 25.1279 32.2527C25.0813 32.272 25.0416 32.2885 25.0018 32.2885H24.9922C24.8002 32.2885 24.6082 32.1925 24.5122 32.0005C24.3202 31.7125 24.4162 31.3285 24.7042 31.1365L27.1871 29.4976C26.652 28.326 26.3455 26.9497 26.3455 25.4723C26.3455 23.9371 26.6802 22.5041 27.2704 21.2919L24.6083 18.6561C24.4163 18.4641 24.4163 18.0801 24.6083 17.7921C24.8003 17.5041 25.1939 17.6001 25.4819 17.7921L27.9133 20.1995C28.3745 19.5448 28.9237 18.989 29.5423 18.5603C29.0623 17.9843 28.7647 17.2163 28.7647 16.3523C28.7647 14.4323 30.3199 12.8963 32.2591 12.8963C34.1983 12.8963 35.7535 14.4323 35.7535 16.3523C35.7535 17.1203 35.4655 17.8883 34.9759 18.5603C35.6119 19.0011 36.1745 19.5864 36.6436 20.2756L39.1522 17.7919C39.3442 17.5999 39.7378 17.5999 40.0258 17.7919C40.2178 17.9839 40.2178 18.3679 40.0258 18.6559L37.2736 21.3808C37.8478 22.5942 38.1727 24.0084 38.1727 25.4723C38.1727 26.9062 37.8707 28.2626 37.3429 29.429L39.9297 31.1365C40.2178 31.3285 40.3137 31.7125 40.1217 32.0005C39.9297 32.1925 39.7377 32.2885 39.5361 32.2885C39.4401 32.2885 39.3442 32.2885 39.2482 32.1925L36.7377 30.5354C35.6577 32.1873 34.0588 33.2483 32.2591 33.2483ZM32.1727 32.0963C30.7405 32.0963 29.4545 31.2075 28.5826 29.8061C28.5978 29.671 28.5683 29.531 28.4866 29.4085C28.4234 29.3136 28.3383 29.2396 28.2423 29.1899C27.7239 28.1287 27.4207 26.8483 27.4207 25.4723C27.4207 24.0366 27.7807 22.652 28.3953 21.5291C28.4169 21.496 28.436 21.4616 28.4526 21.4265C29.025 20.4211 29.805 19.6371 30.7135 19.2323C30.9055 19.1363 31.0975 18.9443 31.0975 18.7523C31.1935 18.4643 31.0975 18.2723 30.9055 18.1763C30.2239 17.7923 29.9359 17.1203 29.9359 16.3523C29.9359 15.1043 31.0015 14.0483 32.2591 14.0483H32.2783C33.5359 14.0483 34.6015 15.0083 34.4095 16.3523C34.4095 17.1203 34.0255 17.6963 33.4399 18.1763C33.3439 18.3683 33.2479 18.5603 33.2479 18.7523C33.3439 18.9443 33.4399 19.1363 33.6319 19.2323C35.6671 20.0963 36.9247 22.5923 36.9247 25.4723C36.9247 29.1203 34.7935 32.0963 32.1727 32.0963Z" fill="#2E449C"/>
<path d="M30.4163 53.0244H27.9971V55.4244H30.4163V53.0244Z" fill="#2E449C"/>
<path d="M31.6834 53.0244H34.1026V55.4244H31.6834V53.0244Z" fill="#2E449C"/>
<path d="M35.2643 53.0244H37.6835V55.4244H35.2643V53.0244Z" fill="#2E449C"/>
<path fill-rule="evenodd" clip-rule="evenodd" d="M45.728 9.0562V16.7685L55.9693 24.7369C56.0652 24.736 56.1721 24.7594 56.2977 24.8C56.4897 24.896 56.6817 25.088 56.6817 25.376V60.224C56.5093 60.4826 56.2595 60.7412 55.9948 60.7913C55.9717 60.7973 55.9506 60.8005 55.9329 60.8005H55.9233C55.9147 60.8005 55.9063 60.8004 55.8981 60.8H8.60494L8.58592 60.7996C8.52066 60.7973 8.46687 60.7837 8.42037 60.7627C8.30171 60.7154 8.19338 60.6268 8.11931 60.5196C8.01591 60.4017 7.98259 60.2467 8.01934 60.089V25.376C8.01934 25.184 8.11534 24.896 8.40334 24.8C8.47369 24.7648 8.55694 24.7425 8.6441 24.7378L18.9729 16.7013V6.2722C18.9729 4.6402 20.4225 3.2002 22.1697 3.2002H49.8944C49.9355 3.2002 49.9767 3.20604 50.0172 3.21689C52.9707 3.44901 55.2416 5.6922 55.2416 8.3842C55.3376 8.7682 55.0496 9.0562 54.656 9.0562H45.728ZM20.1441 8.09629V6.1762C20.1441 5.2162 21.0176 4.3522 22.0833 4.3522H46.4877C46.2907 4.49941 46.1039 4.6596 45.9296 4.8322C44.9893 5.76323 44.4101 7.05543 44.376 8.35853L44.3744 8.3842V8.46425L44.3744 8.4802L44.3744 8.48499V17.0188L44.3744 17.0244V34.268L32.9313 43.808L20.2399 33.7427V17.0246C20.2399 16.8973 20.2024 16.7888 20.1441 16.699V9.24829H38.9504C39.248 9.24829 39.536 8.96029 39.536 8.67229C39.536 8.38429 39.2384 8.09629 38.9504 8.09629H20.1441ZM9.98667 59.648L23.6385 44.9599C23.9265 44.6719 23.9265 44.2879 23.6385 44.0959C23.3505 43.8079 22.9569 43.8079 22.7649 44.0959L9.19054 58.7006V26.624L32.4513 45.056C32.6433 45.248 33.0369 45.248 33.2289 45.056L55.3377 26.72V58.6911L41.7729 44.0965C41.4849 43.9045 41.1873 43.9045 40.8993 44.0965C40.7073 44.3845 40.7073 44.6725 40.8993 44.9605L54.5505 59.648H9.98667ZM9.76234 25.4332L18.9727 32.7377V18.2726L9.76234 25.4332ZM45.632 33.2196V18.2724L54.9138 25.4815L45.632 33.2196ZM53.9744 7.8082H45.7762C46.0827 5.97843 47.8105 4.48504 49.7109 4.35711C51.8954 4.48931 53.6905 5.91554 53.9744 7.8082Z" fill="#2E449C"/>
</svg>
