<svg width="64" height="64" viewBox="0 0 64 64" fill="none" xmlns="http://www.w3.org/2000/svg">
<g clip-path="url(#clip0_24_14686)">
<path d="M59.4599 41.1001V46.1001H5.12988V12.7001C5.12988 10.4001 6.94988 8.6001 9.26988 8.6001H55.3199C57.6399 8.6001 59.4599 10.4001 59.4599 12.7001V41.1001Z" fill="white"/>
<path d="M6.53988 42.5001V14.1001C6.53988 11.8001 8.35988 10.0001 10.6799 10.0001H56.7299C57.5399 10.0001 58.3499 10.2001 58.9499 10.7001C58.2399 9.5001 56.9299 8.6001 55.3099 8.6001H9.26988C6.94988 8.6001 5.12988 10.4001 5.12988 12.7001V46.1001H6.53988V42.5001Z" fill="white"/>
<path d="M61.9901 46.1001V49.0001L47.8501 54.8001H16.5401L2.61011 48.8001V46.1001H5.13011H21.5901L24.1201 49.8001H40.4801L43.0001 46.1001H59.4601H61.9901Z" fill="#46A7DE" fill-opacity="0.4"/>
<path d="M3.11011 47.3001H5.64011H22.1001L24.6201 51.0001H40.9801L43.5101 47.3001H59.9701H61.9901V46.1001H59.4601H43.0001L40.4801 49.8001H24.1201L21.5901 46.1001H5.13011H2.61011V48.8001L3.11011 49.0001V47.3001Z" fill="#46A7DE" fill-opacity="0.4"/>
<path d="M43.0001 46.1001L40.4801 49.8001H24.1201L21.5901 46.1001H43.0001Z" fill="white"/>
<path d="M23.6101 47.2001H42.3001L43.0001 46.1001H21.5901L24.1201 49.8001H25.4301L23.6101 47.2001Z" fill="white"/>
<path d="M54.4199 19.7998H10.1799V32.2998H54.4199V19.7998Z" fill="#46A7DE" fill-opacity="0.4"/>
<path d="M11.6999 21.3998H54.4199V19.7998H10.1799V32.2998H11.6999V21.3998Z" fill="#46A7DE" fill-opacity="0.4"/>
<path d="M37.9499 39.7998H35.4299V42.2998H37.9499V39.7998Z" fill="#2E449C"/>
<path d="M32.8999 39.7998H30.3799V42.2998H32.8999V39.7998Z" fill="#2E449C"/>
<path d="M27.8501 39.7998H25.3301V42.2998H27.8501V39.7998Z" fill="#2E449C"/>
<path d="M47.85 55.4999H16.54C16.44 55.4999 16.34 55.4999 16.34 55.3999L2.4 49.3999C2.2 49.2999 2 49.0999 2 48.7999V45.9999C2 45.6999 2.3 45.3999 2.61 45.3999H5.13C5.43 45.3999 5.74 45.6999 5.74 45.9999C5.74 46.2999 5.44 46.5999 5.13 46.5999H3.21V48.2999L16.64 54.1999H47.64L61.27 48.4999V46.6999H59.35C59.05 46.6999 58.74 46.3999 58.74 46.0999C58.74 45.7999 59.04 45.4999 59.35 45.4999H61.87C62.17 45.4999 62.48 45.7999 62.48 46.0999V48.9999C62.48 49.2999 62.28 49.4999 62.08 49.5999L47.94 55.4999C47.94 55.3999 47.94 55.4999 47.84 55.4999H47.85Z" fill="#2E449C"/>
<path d="M40.4799 50.5H24.1199C23.9199 50.5 23.7199 50.4 23.6099 50.2L21.0899 46.4C20.8899 46.1 20.9899 45.7 21.2899 45.5C21.5899 45.3 21.9999 45.4 22.1999 45.7L24.5199 49.2H40.2699L42.5899 45.7C42.7899 45.4 43.1999 45.3 43.4999 45.5C43.7999 45.7 43.8999 46.1 43.6999 46.4L40.9699 50.2C40.8699 50.3 40.6699 50.5 40.4699 50.5H40.4799Z" fill="#2E449C"/>
<path d="M21.59 41.7H5.13002C4.83002 41.7 4.52002 41.4 4.52002 41.1C4.52002 40.8 4.82002 40.5 5.13002 40.5H21.59C21.89 40.5 22.2 40.8 22.2 41.1C22.2 41.4 21.9 41.7 21.59 41.7Z" fill="#2E449C"/>
<path d="M59.4599 41.7H41.7899C41.4899 41.7 41.1799 41.4 41.1799 41.1C41.1799 40.8 41.4799 40.5 41.7899 40.5H59.4599C59.7599 40.5 60.0699 40.8 60.0699 41.1C60.0699 41.4 59.7699 41.7 59.4599 41.7Z" fill="#2E449C"/>
<path d="M59.46 46.7H5.13002C4.83002 46.7 4.52002 46.4 4.52002 46.1V12.7C4.52002 10.1 6.65002 8 9.27002 8H55.32C57.95 8 60.07 10.1 60.07 12.7V46.1C60.07 46.4 59.77 46.7 59.46 46.7ZM5.83002 45.5H58.85V12.7C58.85 10.8 57.23 9.2 55.31 9.2H9.27002C7.35002 9.2 5.74002 10.8 5.74002 12.7V45.5H5.84002H5.83002Z" fill="#2E449C"/>
<path d="M18.2599 28.4998C18.0599 28.4998 17.9599 28.3998 17.8599 28.2998L14.3299 24.7998C14.1299 24.5998 14.1299 24.1998 14.3299 23.8998C14.5299 23.5998 14.9399 23.6998 15.2399 23.8998L18.7699 27.3998C18.9699 27.5998 18.9699 27.9998 18.7699 28.2998C18.6699 28.3998 18.4699 28.4998 18.2699 28.4998H18.2599Z" fill="#2E449C"/>
<path d="M14.7299 28.5C14.5299 28.5 14.4299 28.4 14.3299 28.3C14.1299 28.1 14.1299 27.7 14.3299 27.4L17.8599 23.9C18.0599 23.7 18.4699 23.7 18.7699 23.9C18.9699 24.1 18.9699 24.5 18.7699 24.8L15.2399 28.3C15.0399 28.4 14.9399 28.5 14.7399 28.5H14.7299Z" fill="#2E449C"/>
<path d="M26.4401 28.4998C26.2401 28.4998 26.1401 28.3998 26.0401 28.2998L22.5101 24.7998C22.3101 24.5998 22.3101 24.1998 22.5101 23.8998C22.7101 23.5998 23.1201 23.6998 23.4201 23.8998L26.9501 27.3998C27.1501 27.5998 27.1501 27.9998 26.9501 28.2998C26.7501 28.3998 26.5501 28.4998 26.4501 28.4998H26.4401Z" fill="#2E449C"/>
<path d="M22.8 28.5C22.6 28.5 22.5 28.4 22.4 28.3C22.2 28.1 22.2 27.7 22.4 27.4L25.94 23.9C26.14 23.7 26.55 23.7 26.85 23.9C27.05 24.1 27.05 24.5 26.85 24.8L23.32 28.3C23.12 28.4 23.02 28.5 22.82 28.5H22.8Z" fill="#2E449C"/>
<path d="M34.2199 28.5C34.0199 28.5 33.9199 28.4 33.8199 28.3L30.2899 24.8C30.0899 24.6 30.0899 24.2 30.2899 23.9C30.4899 23.7 30.8999 23.7 31.1999 23.9L34.7299 27.4C34.9299 27.6 34.9299 28 34.7299 28.3C34.5299 28.4 34.3299 28.5 34.2299 28.5H34.2199Z" fill="#2E449C"/>
<path d="M30.58 28.5C30.38 28.5 30.28 28.4 30.18 28.3C29.98 28.1 29.98 27.7 30.18 27.4L33.71 23.9C33.91 23.7 34.32 23.7 34.62 23.9C34.82 24.1 34.82 24.5 34.62 24.8L31.09 28.3C30.99 28.4 30.79 28.5 30.59 28.5H30.58Z" fill="#2E449C"/>
<path d="M41.79 28.5C41.59 28.5 41.49 28.4 41.39 28.3L37.85 24.8C37.65 24.6 37.65 24.2 37.85 23.9C38.05 23.7 38.46 23.7 38.76 23.9L42.29 27.4C42.49 27.6 42.49 28 42.29 28.3C42.09 28.4 41.89 28.5 41.79 28.5Z" fill="#2E449C"/>
<path d="M38.1601 28.5C37.9601 28.5 37.8601 28.4 37.7601 28.3C37.5601 28.1 37.5601 27.7 37.7601 27.4L41.2901 23.9C41.4901 23.7 41.9001 23.7 42.2001 23.9C42.4001 24.1 42.4001 24.5 42.2001 24.8L38.6601 28.3C38.5601 28.4 38.3601 28.5 38.1601 28.5Z" fill="#2E449C"/>
<path d="M49.37 28.5C49.17 28.5 49.07 28.4 48.97 28.3L45.43 24.8C45.23 24.6 45.23 24.2 45.43 23.9C45.63 23.7 46.04 23.7 46.34 23.9L49.88 27.4C50.08 27.6 50.08 28 49.88 28.3C49.68 28.4 49.48 28.5 49.38 28.5H49.37Z" fill="#2E449C"/>
<path d="M45.7299 28.5C45.5299 28.5 45.4299 28.4 45.3299 28.3C45.1299 28.1 45.1299 27.7 45.3299 27.4L48.8599 23.9C49.0599 23.7 49.4699 23.7 49.7699 23.9C49.9699 24.1 49.9699 24.5 49.7699 24.8L46.2399 28.3C46.1399 28.4 45.9399 28.5 45.7399 28.5H45.7299Z" fill="#2E449C"/>
<path d="M54.4201 33.0002H10.1801C9.88007 33.0002 9.57007 32.7002 9.57007 32.4002V19.8002C9.57007 19.5002 9.87007 19.2002 10.1801 19.2002H54.4201C54.7201 19.2002 55.0301 19.5002 55.0301 19.8002V32.3002C55.0301 32.7002 54.7301 33.0002 54.4201 33.0002ZM10.8901 31.7002H53.8101V20.5002H10.8901V31.7002Z" fill="#2E449C"/>
</g>
<defs>
<clipPath id="clip0_24_14686">
<rect width="60.5" height="47.5" fill="white" transform="translate(2 8)"/>
</clipPath>
</defs>
</svg>
