<svg width="38" height="38" viewBox="0 0 38 38" fill="none" xmlns="http://www.w3.org/2000/svg">
<rect x="0.5" y="0.5" width="37" height="37" stroke="#46A7DE"/>
<g clip-path="url(#clip0_52_104)">
<path fill-rule="evenodd" clip-rule="evenodd" d="M16.8571 11.8569C16.8571 11.4624 17.1769 11.1426 17.5714 11.1426H28.2857C28.6802 11.1426 29 11.4624 29 11.8569C29 12.2514 28.6802 12.5711 28.2857 12.5711H17.5714C17.1769 12.5711 16.8571 12.2514 16.8571 11.8569ZM13.2857 18.9997C13.2857 18.6052 13.6055 18.2854 14 18.2854H24.7143C25.1088 18.2854 25.4286 18.6052 25.4286 18.9997C25.4286 19.3942 25.1088 19.714 24.7143 19.714H14C13.6055 19.714 13.2857 19.3942 13.2857 18.9997ZM9 26.1426C9 25.7481 9.3198 25.4283 9.71429 25.4283H21.1429C21.5373 25.4283 21.8571 25.7481 21.8571 26.1426C21.8571 26.5371 21.5373 26.8569 21.1429 26.8569H9.71429C9.3198 26.8569 9 26.5371 9 26.1426Z" fill="#46A7DE"/>
</g>
<defs>
<clipPath id="clip0_52_104">
<rect width="20" height="20" fill="white" transform="translate(9 9)"/>
</clipPath>
</defs>
</svg>
