<svg width="128" height="128" viewBox="0 0 128 128" fill="none" xmlns="http://www.w3.org/2000/svg">
<g id="logo/inisa-red">
<g id="inisa-red">
<g id="Group-393">
<path id="Fill-389" d="M102 55.6786C102 34.3173 84.7631 17 63.5002 17C42.2373 17 25 34.3173 25 55.6786C25 70.9321 33.7916 84.1181 46.5592 90.415L46.5617 90.4101C47.3799 90.8442 48.3111 91.0924 49.3013 91.0924C52.5472 91.0924 55.1789 88.4485 55.1789 85.1875C55.1789 82.8421 53.8144 80.8216 51.8422 79.8692L51.8484 79.8569C42.9213 75.507 36.7659 66.3155 36.7659 55.6786C36.7659 40.8456 48.7354 28.8205 63.5002 28.8205C78.265 28.8205 90.2341 40.8456 90.2341 55.6786C90.2341 64.5873 85.9122 72.4777 79.2647 77.3639C74.1163 81.0895 69.162 76.3942 69.162 71.2425V55.8286H69.1546V51.8305C69.1546 50.6572 68.2075 49.7056 67.0396 49.7056H59.4512C58.2833 49.7056 57.3362 50.6572 57.3362 51.8305V55.8286V56.2211V74.0027H57.337C57.3476 78.5092 61.7365 87.7448 70.1473 88.9132C81.3025 90.3792 86.6607 86.6032 88.1166 85.4118L88.1178 85.4134C88.131 85.4027 88.1429 85.3907 88.1556 85.38C88.2048 85.3396 88.25 85.3017 88.289 85.2683C88.289 85.2683 88.2861 85.2658 88.2857 85.2654C96.6682 78.1703 102 67.5527 102 55.6786Z" fill="#D8232A"/>
<path id="Fill-391" d="M63.2364 47.1229C66.505 47.1229 69.1543 44.4609 69.1543 41.1772C69.1543 37.8935 66.505 35.2314 63.2364 35.2314C59.9679 35.2314 57.3186 37.8935 57.3186 41.1772C57.3186 44.4609 59.9679 47.1229 63.2364 47.1229Z" fill="#AB2430"/>
</g>
<g id="Group-396">
<g id="Fill-394 Clipped">
<mask id="mask0_20_14309" style="mask-type:luminance" maskUnits="userSpaceOnUse" x="25" y="17" width="77" height="75">
<path id="path-1" fill-rule="evenodd" clip-rule="evenodd" d="M25.0005 55.6787C25.0005 70.9322 33.7917 84.1181 46.5593 90.4151L46.5618 90.4106C47.3804 90.8447 48.3115 91.0929 49.3013 91.0929C52.5477 91.0929 55.179 88.4486 55.179 85.1876C55.179 82.8422 53.8145 80.8221 51.8423 79.8697L51.8485 79.8573C42.9214 75.5071 36.7664 66.3156 36.7664 55.6787C36.7664 40.8457 48.7354 28.8206 63.5003 28.8206C78.2647 28.8206 90.2346 40.8457 90.2346 55.6787C90.2346 64.5878 85.9126 72.4782 79.2652 77.364C74.1164 81.0896 69.1616 76.3943 69.1616 71.243V55.8291H69.1547V51.8305C69.1547 50.6572 68.2076 49.7057 67.0397 49.7057H59.4512C58.2833 49.7057 57.3362 50.6572 57.3362 51.8305V55.8291V56.2216V74.0031H57.337C57.3477 78.5092 61.7365 87.7453 70.1473 88.9136C81.303 90.3793 86.6607 86.6033 88.1167 85.4122L88.1179 85.4135C88.1311 85.4028 88.143 85.3908 88.1557 85.3801C88.2049 85.3401 88.2501 85.3022 88.289 85.2684C88.289 85.2684 88.2862 85.2659 88.2858 85.2655C96.6682 78.1703 102 67.5528 102 55.6787C102 34.3174 84.7632 17.0005 63.5003 17.0005C42.2369 17.0005 25.0005 34.3174 25.0005 55.6787Z" fill="white"/>
</mask>
<g mask="url(#mask0_20_14309)">
<path id="Fill-394" d="M69.1544 46.0703C69.1544 57.0263 69.1618 68.903 69.1618 71.243C69.1618 74.603 73.5818 91.5241 91.0214 84.8033C80.9876 100.644 62.5919 90.5697 59.7251 86.3666C56.8583 82.2835 53.1556 59.4134 55.4249 49.5857C59.128 48.0257 69.1544 46.0703 69.1544 46.0703Z" fill="#AB2430"/>
</g>
</g>
</g>
<g id="Group-403">
<path id="Fill-397" d="M32.1128 112H35.2964V94.186H32.1128V112Z" fill="#D8232A"/>
<path id="Fill-399" d="M54.0264 101.338C53.9287 100.75 53.7436 100.167 53.4863 99.6283C53.0177 98.5469 52.3849 97.6016 51.5892 96.803C51.1776 96.4151 50.7414 96.0531 50.2917 95.7295C49.8193 95.3885 49.2986 95.107 48.7602 94.8955C47.6317 94.4243 46.4847 94.1855 45.3492 94.1855C44.1933 94.1855 43.0348 94.4243 41.9223 94.8885C41.3683 95.1061 40.8476 95.3885 40.3736 95.7295C40.1245 95.9092 39.8791 96.1001 39.6386 96.303L39.6583 94.1855H36.4678V112H39.6514L39.6505 102.969C39.669 102.602 39.7178 102.24 39.795 101.891C39.8701 101.547 39.9764 101.206 40.1081 100.884C40.4114 100.159 40.8205 99.5446 41.3453 99.0355C41.8292 98.5284 42.4398 98.1165 43.1702 97.8065C43.8014 97.5262 44.5347 97.3835 45.3492 97.3835C46.1051 97.3835 46.8327 97.5282 47.511 97.8123C48.1902 98.098 48.8033 98.5127 49.3326 99.0458C49.5965 99.3117 49.8288 99.599 50.0253 99.9C50.2297 100.213 50.4111 100.549 50.5588 100.883C50.8621 101.611 51.0164 102.354 51.0164 103.093V112H54.1995L54.1991 103.029C54.1757 102.456 54.1179 101.886 54.0264 101.338Z" fill="#D8232A"/>
<path id="Fill-400" d="M55.2612 112H58.4444V94.186H55.2612V112Z" fill="#D8232A"/>
<path id="Fill-401" d="M62.5376 100.917C62.6898 100.553 62.8679 100.22 63.0649 99.9268C63.2644 99.632 63.4995 99.3471 63.7666 99.0788C64.3161 98.5267 64.928 98.1124 65.5956 97.844C66.3183 97.5385 67.0582 97.3835 67.7943 97.3835C68.5301 97.3835 69.2696 97.5385 69.9914 97.8432C70.3562 97.9982 70.6882 98.1767 70.9771 98.3738C71.2709 98.5741 71.5553 98.8116 71.8216 99.0788L72.3555 99.6155L74.6663 97.3567L74.0893 96.8059C73.2317 95.9855 72.2874 95.3391 71.2611 94.8736C70.1564 94.4168 68.9893 94.1855 67.7943 94.1855C66.5748 94.1855 65.4171 94.4139 64.353 94.8641C63.2943 95.3139 62.3398 95.9608 61.5179 96.7865C60.6951 97.6131 60.0508 98.5721 59.6039 99.6353C59.1558 100.702 58.9285 101.865 58.9285 103.092V104.707H73.2686C73.2078 104.905 73.134 105.102 73.0462 105.303C72.7839 105.957 72.3728 106.567 71.8233 107.115C71.5541 107.384 71.2705 107.619 70.9783 107.816C70.6874 108.013 70.3567 108.191 69.9935 108.343C69.2717 108.647 68.5314 108.801 67.7943 108.801C67.0582 108.801 66.3183 108.646 65.5833 108.336C64.9267 108.071 64.3157 107.658 63.7666 107.106L63.2254 106.561L60.9786 108.82L61.5158 109.364C62.3378 110.196 63.291 110.849 64.3485 111.306C65.4118 111.766 66.5715 112 67.7943 112C68.9893 112 70.1539 111.774 71.2783 111.318C72.2829 110.873 73.2275 110.236 74.1024 109.407C74.5046 109.005 74.8657 108.559 75.1743 108.083C75.4776 107.617 75.7484 107.11 75.984 106.568C76.4329 105.503 76.6602 104.344 76.6602 103.122V101.509H62.33C62.3895 101.303 62.4592 101.104 62.5376 100.917Z" fill="#D8232A"/>
<path id="Fill-402" fill-rule="evenodd" clip-rule="evenodd" d="M92.2974 96.7865C93.0976 97.5917 93.7353 98.5432 94.1929 99.6164C94.6537 100.696 94.8868 101.865 94.8868 103.092V112H91.7036V109.897C91.2038 110.321 90.6547 110.694 90.0597 111.014C88.8397 111.668 87.481 112 86.0209 112C84.798 112 83.6334 111.765 82.5599 111.303C81.4909 110.842 80.5442 110.202 79.7444 109.398C78.9434 108.593 78.3057 107.642 77.8485 106.569C77.3885 105.491 77.155 104.322 77.155 103.092C77.155 101.864 77.3885 100.694 77.8485 99.6164C78.3061 98.5424 78.9442 97.5909 79.7444 96.7865C80.5442 95.9826 81.4909 95.3424 82.5599 94.8819C83.6334 94.4197 84.798 94.1855 86.0209 94.1855C87.2438 94.1855 88.408 94.4197 89.4811 94.8819C90.5489 95.3411 91.496 95.9818 92.2974 96.7865ZM91.5924 104.326C91.6659 103.991 91.7036 103.641 91.7036 103.288V103.092C91.7036 102.326 91.5579 101.567 91.2711 100.835C91.1275 100.513 90.9453 100.178 90.7438 99.8691C90.5566 99.583 90.3371 99.3306 90.0917 99.1196L90.0581 99.0907L90.0285 99.0581C89.788 98.798 89.5151 98.5609 89.2156 98.3544C88.9119 98.145 88.5816 97.9594 88.2369 97.8044C87.5393 97.5299 86.7838 97.3835 86.0209 97.3835C85.2388 97.3835 84.4849 97.5286 83.7812 97.8156C83.0827 98.1297 82.4795 98.5519 82.0137 99.0577L81.9834 99.0899L81.9497 99.1196C81.7043 99.3306 81.4848 99.583 81.2985 99.8682C81.0945 100.181 80.9127 100.516 80.7584 100.865C80.4843 101.566 80.3386 102.325 80.3386 103.092C80.3386 103.88 80.4831 104.637 80.7683 105.342C81.0822 106.028 81.4987 106.642 81.9932 107.139C82.4877 107.636 83.0995 108.055 83.8132 108.383C84.146 108.525 84.5108 108.634 84.8752 108.699C85.2498 108.767 85.6348 108.801 86.0209 108.801C86.4067 108.801 86.7916 108.767 87.1646 108.699C87.5306 108.634 87.8954 108.525 88.2504 108.374C88.5861 108.224 88.9205 108.041 89.2308 107.837C89.5229 107.644 89.7917 107.416 90.0281 107.16C90.5427 106.642 90.9596 106.028 91.2875 105.31C91.409 105.013 91.5153 104.672 91.5924 104.326Z" fill="#D8232A"/>
</g>
</g>
</g>
</svg>
