<svg width="48" height="120" viewBox="0 0 48 120" fill="none" xmlns="http://www.w3.org/2000/svg">
<g id="1">
<g id="Logo">
<path d="M116.1 56.514C116.014 56.8009 116.027 57.1021 115.967 57.394C115.678 58.8135 115.093 60.1032 114.277 61.2913C113.475 62.4589 112.503 63.4676 111.412 64.3674C109.504 65.9406 107.365 67.1049 105.078 68.0147C103.292 68.7248 101.454 69.2529 99.5756 69.6397C98.2552 69.9117 96.9225 70.1085 95.5794 70.2367C94.3564 70.3537 93.1317 70.4046 91.9039 70.4136C89.9485 70.4276 88.0046 70.3002 86.0687 70.0173C84.5026 69.7883 82.9581 69.4673 81.4356 69.0371C79.1266 68.3845 76.9116 67.5017 74.8312 66.2971C73.3837 65.4592 72.041 64.4765 70.8593 63.2857C69.579 61.9957 68.5413 60.5409 67.9189 58.8152C67.0107 56.2969 67.1723 53.8342 68.3306 51.4332C69.095 49.8488 70.1958 48.5205 71.4964 47.3528C73.5023 45.5516 75.8119 44.2546 78.2985 43.2549C80.4903 42.3738 82.7602 41.771 85.0835 41.3674C86.3844 41.1415 87.6956 40.9887 89.0138 40.9025C89.1291 40.895 89.2452 40.9014 89.3624 40.9188C88.7154 41.0492 88.0715 41.1827 87.4316 41.3358C85.8181 41.722 84.2498 42.2409 82.7379 42.9277C81.6513 43.4211 80.6106 43.996 79.6301 44.6783C78.1017 45.7419 76.7637 46.9952 75.7952 48.6067C74.9445 50.0223 74.4985 51.5501 74.5839 53.2149C74.6467 54.4371 74.9953 55.5787 75.5691 56.6537C76.263 57.9546 77.2153 59.0433 78.3292 59.9946C79.9535 61.3819 81.7998 62.3901 83.7742 63.1762C85.6037 63.9048 87.4938 64.413 89.4333 64.7447C91.0125 65.0147 92.6031 65.1572 94.204 65.1944C95.535 65.2255 96.8613 65.1648 98.1868 65.0416C100.118 64.8619 102.015 64.502 103.875 63.9565C105.242 63.5557 106.568 63.0464 107.846 62.4099C109.32 61.6755 110.693 60.7928 111.913 59.6825C113.126 58.5793 114.12 57.3125 114.741 55.7771C115.22 54.5899 115.417 53.359 115.282 52.0802C115.276 52.0153 115.27 51.9504 115.267 51.8852C115.265 51.8673 115.273 51.8491 115.279 51.818C115.37 51.8756 115.385 51.9733 115.417 52.0542C115.731 52.8547 115.991 53.6697 116.05 54.5359C116.054 54.5991 116.083 54.6604 116.1 54.7228V56.514H116.1Z" fill="#800000"/>
<path d="M3.90018 44.3674C3.97414 44.3828 4.02243 44.3327 4.07434 44.2955C5.34566 43.3859 6.61669 42.4751 7.88801 41.565C8.24247 41.3111 8.59832 41.0595 8.96311 40.7998C9.04321 40.921 9.01307 41.0355 9.01307 41.1418C9.01475 45.4231 9.01447 49.7044 9.01447 53.9856C9.01447 54.1536 9.01447 54.3215 9.0153 54.4894C9.0153 54.5829 9.02144 54.6753 9.05829 54.7637C9.1462 54.9758 9.29469 55.0436 9.50541 54.9574C9.61789 54.9115 9.71613 54.8404 9.80377 54.7547C10.1504 54.4169 10.4999 54.0816 10.8459 53.743C12.0639 52.5513 13.2808 51.3582 14.4988 50.1662C15.1444 49.5345 15.7944 48.9073 16.4347 48.27C16.5656 48.1396 16.7035 48.0942 16.8813 48.0948C18.0998 48.099 19.3184 48.0956 20.5367 48.0976C20.71 48.0979 20.8872 48.0615 21.058 48.1256C21.0466 48.2322 20.9693 48.2784 20.9126 48.3363C19.4926 49.7875 18.0708 51.2367 16.6502 52.6873C15.9072 53.4458 15.1651 54.2051 14.4243 54.9658C13.8893 55.5154 13.863 56.0268 14.3398 56.6305C14.8821 57.3176 15.4283 58.0019 15.9722 58.6876C17.6164 60.7601 19.2606 62.8323 20.9029 64.9062C21.0003 65.0293 21.1189 65.1376 21.1853 65.2826C21.1605 65.3643 21.094 65.336 21.0455 65.336C19.4083 65.3377 17.7713 65.336 16.1341 65.3402C15.9792 65.3405 15.8782 65.2927 15.7844 65.165C13.7654 62.4178 11.7421 59.6739 9.71976 56.9294C9.64245 56.8244 9.56681 56.7181 9.44959 56.6509C9.24305 56.5331 9.08313 56.5975 9.03568 56.8331C9.01195 56.9504 9.01502 57.0744 9.01502 57.195C9.01391 59.6669 9.01419 62.1385 9.01419 64.6103C9.01419 64.7315 9.01447 64.853 9.01419 64.9742C9.01344 65.1921 8.90841 65.3016 8.69908 65.3027C8.39207 65.3036 8.08505 65.3027 7.77832 65.3027C6.48551 65.3025 5.19271 65.3019 3.8999 65.3016V44.3674H3.90018Z" fill="#595959"/>
<path d="M35.997 79.7998C35.992 79.6792 35.9825 79.5585 35.9825 79.4379C35.9814 78.3302 35.982 77.2224 35.982 76.1147C35.982 76.0587 35.9809 76.003 35.9825 75.947C35.9862 75.8356 35.9719 75.7175 36.1399 75.7074C36.3094 75.6974 36.337 75.7156 36.3789 75.9162C36.3844 75.9425 36.3875 75.9711 36.4347 75.9806C36.4913 75.987 36.5167 75.928 36.5488 75.8874C36.8553 75.5003 37.6809 75.5437 37.9561 76.0786C38.0331 76.2283 38.1146 76.3783 38.1406 76.5437C38.2327 77.132 38.2145 77.7153 37.984 78.2728C37.7442 78.8524 37.0498 78.9979 36.5807 78.5765C36.5402 78.5401 36.512 78.4866 36.4283 78.4841C36.3423 78.6915 36.3967 78.9143 36.3878 79.1298C36.3786 79.3528 36.387 79.5765 36.3878 79.7998H35.997ZM37.7548 77.3195C37.7576 76.8255 37.7054 76.4715 37.6142 76.2719C37.5006 76.024 37.2999 75.9148 37.001 75.9389C36.7185 75.9616 36.5427 76.0951 36.4871 76.364C36.3694 76.9341 36.3501 77.5073 36.4905 78.0774C36.5566 78.3458 36.7294 78.4852 37.0027 78.5082C37.2885 78.5322 37.5073 78.4026 37.6209 78.1345C37.7434 77.8457 37.7554 77.5387 37.7548 77.3198V77.3195Z" fill="#595959"/>
<path d="M52.6316 79.7998C52.621 79.7643 52.604 79.7293 52.6012 79.6932C52.5836 79.4679 52.6003 79.4528 52.818 79.4693C53.3402 79.5093 53.6481 79.0934 53.4803 78.5977C53.1904 77.7422 52.8976 76.8874 52.6062 76.0321C52.5973 76.0055 52.5844 75.9798 52.5805 75.9523C52.5688 75.8723 52.4611 75.7752 52.6056 75.7186C52.7522 75.6615 52.9168 75.7172 52.9537 75.8404C53.0715 76.2328 53.1806 76.628 53.2931 77.022C53.4005 77.3982 53.5082 77.7743 53.6157 78.1505C53.6333 78.2115 53.6333 78.2832 53.7134 78.3089C53.8066 78.2566 53.803 78.1547 53.8284 78.0699C54.0349 77.3831 54.2384 76.6954 54.4446 76.0083C54.5415 75.6865 54.5434 75.687 54.8993 75.729C54.9454 75.8009 54.9024 75.8689 54.8798 75.9358C54.5412 76.9325 54.2015 77.9286 53.8622 78.9249C53.8502 78.9602 53.8373 78.9952 53.8253 79.0304C53.7092 79.3663 53.5353 79.654 53.1901 79.7992H52.6319L52.6316 79.7998Z" fill="#595959"/>
<path d="M48.8224 57.1695C47.0177 57.1695 45.213 57.1695 43.4086 57.1695C43.3249 57.1695 43.2412 57.1678 43.1574 57.1704C42.9286 57.1768 42.909 57.1891 42.9196 57.4069C42.976 58.579 43.2752 59.6722 44.0146 60.6064C44.7006 61.4735 45.5971 62.0377 46.6468 62.3565C48.0624 62.7864 49.4892 62.7497 50.9201 62.4337C51.8423 62.23 52.7187 61.8997 53.5641 61.4824C53.8094 61.3612 53.8116 61.3598 53.9534 61.5877C54.323 62.1807 54.6911 62.7746 55.0587 63.3688C55.184 63.5714 55.1831 63.5745 54.9515 63.687C53.8435 64.2252 52.691 64.6434 51.4981 64.9442C50.0284 65.3153 48.5344 65.4639 47.0188 65.3934C44.2836 65.2661 41.945 64.251 40.0602 62.2445C38.8626 60.9694 38.1615 59.4514 37.9594 57.7086C37.8162 56.474 37.8651 55.2521 38.2287 54.0537C38.6343 52.7175 39.3725 51.5975 40.3974 50.6579C41.2933 49.8365 42.2992 49.1961 43.4374 48.7704C44.3584 48.4259 45.3149 48.2482 46.294 48.1743C47.5835 48.0769 48.8595 48.1536 50.1135 48.4746C51.3837 48.7998 52.5035 49.3985 53.3977 50.3803C54.1918 51.2524 54.7 52.2795 55.0157 53.4085C55.2786 54.3489 55.3749 55.3111 55.3824 56.2846C55.3866 56.8412 55.2013 57.0648 54.6537 57.1536C54.5446 57.1712 54.4315 57.1692 54.3202 57.1692C52.4876 57.1701 50.655 57.1698 48.8227 57.1698L48.8224 57.1695ZM46.742 55.0181C47.9041 55.0181 49.0666 55.0209 50.2288 55.0167C50.7457 55.0147 50.9888 54.7556 50.9506 54.2462C50.9235 53.884 50.8738 53.5236 50.7853 53.1704C50.5096 52.0679 49.8654 51.3033 48.7423 51.0279C47.658 50.762 46.5636 50.7861 45.4863 51.0769C44.5128 51.3397 43.8156 51.9439 43.4212 52.884C43.2434 53.3078 43.1379 53.7505 43.0754 54.2045C43.0461 54.4167 43.012 54.6282 43.0117 54.8437C43.0117 54.9565 43.0491 55.0212 43.1711 55.0175C43.2453 55.0153 43.3199 55.0184 43.3941 55.0184C44.51 55.0184 45.6258 55.0184 46.7414 55.0184L46.742 55.0181Z" fill="#595959"/>
<path d="M80.0738 54.9977C79.9854 54.9056 79.9616 54.8051 79.9273 54.7116C79.2427 52.8446 79.4576 51.0648 80.4559 49.3671C80.9954 48.4494 81.7113 47.6837 82.5232 47.0016C83.4493 46.2238 84.4717 45.5991 85.5593 45.083C86.9258 44.4348 88.3559 43.9722 89.8321 43.6462C92.0155 43.1639 94.2244 42.989 96.455 43.0875C97.2909 43.1245 98.1223 43.216 98.9513 43.3358C100.41 43.5462 101.833 43.8969 103.221 44.3895C104.809 44.9529 106.301 45.7046 107.634 46.7447C108.678 47.5594 109.579 48.5107 110.187 49.7052C111.295 51.8818 111.154 54.0005 109.855 56.0506C109.192 57.0959 108.31 57.9322 107.32 58.661C106.203 59.4833 104.982 60.1141 103.694 60.614C102.302 61.1538 100.865 61.5272 99.3931 61.7721C98.6588 61.8941 97.9208 61.9789 97.1798 62.0413C97.1061 62.0475 97.0316 62.0422 96.9543 62.0234C97.3891 61.9215 97.8254 61.8258 98.2582 61.7167C99.9485 61.2901 101.547 60.6461 102.99 59.6543C104.021 58.9462 104.922 58.1026 105.546 57.0013C106.543 55.2454 106.525 53.4827 105.53 51.7343C104.889 50.6084 103.961 49.7531 102.897 49.0422C101.417 48.0542 99.7875 47.4178 98.0676 46.9946C96.8449 46.6937 95.6045 46.5194 94.3491 46.4474C92.9059 46.3649 91.4702 46.4379 90.0389 46.649C88.5879 46.8631 87.179 47.2269 85.8206 47.7811C84.4929 48.3226 83.264 49.0307 82.2048 50.0105C81.3016 50.8463 80.5868 51.8104 80.2466 53.015C80.0836 53.5927 79.9957 54.1807 80.073 54.7838C80.0808 54.8454 80.0741 54.909 80.0741 54.9974L80.0738 54.9977Z" fill="#800000"/>
<path d="M84.9845 53.0422C88.0784 50.3296 94.8223 50.1894 98.0527 52.7679C100.419 54.6573 100.332 57.2079 97.8411 58.935C95.8575 60.31 93.4665 60.7559 89.6545 60.366C89.6545 60.366 86.1378 59.5709 84.5553 58.0744C83.153 55.8919 83.3333 54.495 84.9842 53.0422H84.9845Z" fill="url(#paint0_radial_47_4654)"/>
<path d="M29.1197 65.6338C27.1665 65.6296 25.577 65.3013 24.0693 64.598C23.5881 64.3735 23.129 64.1085 22.6824 63.8211C22.5672 63.7469 22.5339 63.6797 22.6235 63.5541C23.0935 62.8938 23.5596 62.2305 24.0193 61.563C24.1139 61.4256 24.1885 61.4684 24.2892 61.5417C24.8706 61.9641 25.4841 62.3318 26.1441 62.6182C27.0607 63.0156 28.0105 63.1841 29.0041 63.0184C29.5975 62.9193 30.1334 62.687 30.5291 62.2179C31.1373 61.4973 31.1016 60.4264 30.4613 59.6744C30.1074 59.2588 29.6639 58.9487 29.2257 58.6333C28.4169 58.0511 27.5581 57.5454 26.7325 56.989C26.0384 56.521 25.3322 56.0657 24.7483 55.4541C24.2111 54.8913 23.8069 54.2473 23.6579 53.4735C23.4034 52.153 23.7321 50.9926 24.6833 50.036C25.5265 49.188 26.5595 48.6663 27.7155 48.4041C30.1052 47.8622 32.4256 48.1158 34.6744 49.0741C34.9052 49.1723 35.1262 49.2932 35.3529 49.4013C35.4534 49.4491 35.4997 49.5014 35.4199 49.6126C34.9914 50.2109 34.5644 50.8104 34.1441 51.4144C34.0573 51.5392 33.983 51.4933 33.8895 51.4396C33.271 51.0847 32.6124 50.8339 31.9113 50.7072C31.3129 50.5991 30.708 50.57 30.1071 50.6817C29.6435 50.7679 29.2171 50.9484 28.8718 51.2859C28.363 51.7836 28.3083 52.4533 28.7253 53.0329C29.123 53.5857 29.6391 54.0142 30.1875 54.4007C30.986 54.9635 31.806 55.4956 32.6082 56.0534C33.3419 56.5636 34.0545 57.1032 34.6981 57.7276C35.3286 58.3391 35.793 59.0464 35.9248 59.9339C36.1542 61.4757 35.6817 62.7643 34.5147 63.7956C33.6883 64.5258 32.7226 64.9926 31.6684 65.277C30.7396 65.5278 29.7903 65.6456 29.1197 65.6338Z" fill="#595959"/>
<path d="M62.5356 48.0061C62.6199 48.1278 62.5953 48.2238 62.5953 48.3142C62.5964 53.8992 62.5964 59.4841 62.5961 65.069C62.5961 65.4435 62.5945 65.4441 62.2297 65.4441C60.8071 65.4441 59.3845 65.4441 57.9619 65.4441C57.934 65.4441 57.9061 65.4444 57.8782 65.4441C57.6958 65.4411 57.6031 65.3465 57.5999 65.1603C57.5982 65.0391 57.5991 64.9179 57.5991 64.7967C57.5991 59.9112 57.5991 55.0254 57.5991 50.1399C57.5991 49.7869 57.5999 49.7886 57.9474 49.7326C59.1274 49.542 60.2681 49.2168 61.3547 48.7125C61.7675 48.5208 62.1621 48.2958 62.535 48.0064L62.5356 48.0061Z" fill="#595959"/>
<path d="M58.6538 47.1606C58.181 47.1734 57.7261 47.0886 57.3124 46.8541C56.6881 46.5006 56.3939 45.8216 56.5078 45.062C56.6283 44.2566 56.9557 43.5488 57.4936 42.9403C58.5617 41.7318 59.9028 41.0679 61.5068 40.9523C61.9963 40.9171 62.4638 41.0167 62.8914 41.2876C63.3868 41.6016 63.643 42.0464 63.6788 42.6252C63.7131 43.1793 63.5939 43.7097 63.3254 44.186C62.3338 45.9453 60.8386 46.9554 58.8207 47.1597C58.7654 47.1653 58.7093 47.1606 58.6538 47.1606Z" fill="#595959"/>
<path d="M29.6265 76.6934C29.6265 76.106 29.6248 75.5185 29.6271 74.9311C29.6282 74.6405 29.6346 74.631 29.9257 74.6333C30.3343 74.6361 30.7443 74.6056 31.1518 74.6604C31.7229 74.7371 32.1236 75.0282 32.2607 75.6075C32.4399 76.3643 32.4505 77.1233 32.1973 77.8672C31.9958 78.4592 31.6252 78.7172 31.0019 78.7265C30.6302 78.7321 30.2581 78.7295 29.8861 78.7273C29.6321 78.7259 29.6285 78.7231 29.6273 78.4558C29.6248 77.8684 29.6265 77.2809 29.6265 76.6934ZM30.0605 76.6926H30.0611C30.0611 77.1857 30.0639 77.6792 30.0594 78.1723C30.058 78.3117 30.1041 78.3766 30.2509 78.3724C30.5012 78.3654 30.7521 78.3758 31.0025 78.3674C31.3963 78.3542 31.633 78.1717 31.7748 77.7992C31.8518 77.5966 31.8845 77.3856 31.9054 77.1729C31.9556 76.661 31.9615 76.1494 31.8161 75.6498C31.6832 75.1927 31.4153 74.9915 30.9425 74.9789C30.7385 74.9736 30.5342 74.9758 30.3299 74.9781C30.0661 74.9809 30.0627 74.9826 30.0614 75.2406C30.0588 75.7245 30.0605 76.2084 30.0605 76.6926Z" fill="#595959"/>
<path d="M5.57006 74.5532C5.77687 74.5487 5.97727 74.584 6.17013 74.6582C6.53687 74.7992 6.72331 75.0822 6.7822 75.4589C6.80704 75.6168 6.78443 75.6386 6.63121 75.6481C6.40123 75.6624 6.39732 75.6596 6.33061 75.4329C6.22651 75.0791 6.02918 74.9224 5.66579 74.9115C5.55443 74.9081 5.44167 74.9067 5.3317 74.9218C5.00934 74.9658 4.82597 75.1564 4.7735 75.4886C4.71293 75.8717 4.81787 76.104 5.13968 76.2454C5.33477 76.331 5.54215 76.3884 5.74282 76.4614C5.90861 76.5219 6.073 76.5863 6.23795 76.6492C6.82937 76.8754 7.03619 77.2538 6.8757 78.003C6.80788 78.3204 6.59883 78.5459 6.29907 78.6789C5.8232 78.8905 5.33812 78.884 4.85974 78.7066C4.43801 78.5499 4.16784 78.038 4.24236 77.5947C4.25046 77.5462 4.25967 77.5006 4.31325 77.4883C4.41401 77.4651 4.51923 77.4569 4.61524 77.4944C4.70288 77.5286 4.66967 77.6229 4.68055 77.6923C4.77936 78.3341 4.95659 78.4852 5.60215 78.4763C5.63006 78.476 5.65797 78.4763 5.68588 78.4751C6.33396 78.4424 6.67837 77.8773 6.41937 77.2787C6.3655 77.1541 6.26446 77.0945 6.15087 77.052C5.88126 76.9512 5.60774 76.86 5.33756 76.7609C5.14582 76.6906 4.95296 76.6215 4.76708 76.5373C4.5424 76.4354 4.40843 76.2566 4.34591 76.0136C4.12988 75.1748 4.65348 74.5465 5.5695 74.5532H5.57006Z" fill="#595959"/>
<path d="M10.5186 72.7844C10.4507 72.7827 10.4323 72.8451 10.3971 72.8846C10.118 73.2 9.62849 73.2938 9.25645 73.1007C9.11132 73.0254 9.00442 72.9123 8.93939 72.7606C8.87687 72.6145 8.82468 72.4645 8.80207 72.3075C8.7309 71.8158 8.7175 71.3243 8.83584 70.8373C8.86431 70.7206 8.90673 70.605 8.95865 70.4967C9.20398 69.9865 9.79707 69.8477 10.2551 70.1824C10.3313 70.2381 10.391 70.38 10.4996 70.3195C10.5953 70.2664 10.5423 70.1317 10.5451 70.0335C10.5534 69.7449 10.5585 69.4558 10.5543 69.1673C10.552 69.0173 10.6358 69.0052 10.7505 69.0069C10.8683 69.0086 10.9816 69.003 10.9696 69.1737C10.9651 69.2387 10.9696 69.3041 10.9696 69.3694C10.9696 70.4875 10.9696 71.6053 10.9696 72.7234C10.9696 72.7794 10.9685 72.8353 10.9696 72.891C10.9715 73.0089 10.9713 73.1155 10.8035 73.1183C10.6179 73.1211 10.5945 73.1082 10.5674 72.9053C10.5615 72.8617 10.5724 72.8113 10.5188 72.7847L10.5186 72.7844ZM10.5543 71.6842C10.5573 71.3338 10.5403 71.0184 10.4401 70.7147C10.3503 70.4421 10.1845 70.3246 9.90257 70.3176C9.56905 70.3095 9.33823 70.4796 9.24808 70.8429C9.12108 71.3554 9.13169 71.8754 9.24082 72.3898C9.30808 72.7066 9.49564 72.8575 9.79735 72.8796C10.1328 72.9039 10.3053 72.7928 10.4443 72.4726C10.5593 72.2084 10.559 71.9302 10.554 71.6839L10.5543 71.6842Z" fill="#595959"/>
<path d="M29.0069 71.0718C28.9977 71.4374 29.0334 71.8261 29.1216 72.209C29.248 72.7564 29.7262 73.0072 30.2539 72.8076C30.4097 72.7489 30.5177 72.6406 30.5914 72.4919C30.6879 72.2969 30.7217 72.0856 30.7569 71.8743C30.7876 71.6904 30.8353 71.6657 31.0427 71.6781C31.2182 71.6884 31.1881 71.8065 31.19 71.9168C31.1981 72.3442 31.0533 72.7058 30.7117 72.9672C29.955 73.5465 28.8512 73.1424 28.6524 72.1992C28.4998 71.4737 28.4925 70.7385 28.643 70.0075C28.6829 69.8138 28.7593 69.6336 28.8668 69.469C29.0304 69.2191 29.2461 69.0352 29.5478 68.9764C29.8149 68.9243 30.0842 68.9137 30.3497 68.9786C30.8211 69.0942 31.1663 69.5213 31.1959 70.005C31.2023 70.1091 31.1965 70.1863 31.0653 70.2011C30.8719 70.223 30.8001 70.1922 30.7675 70.0495C30.7633 70.0313 30.763 70.0125 30.7602 69.994C30.6536 69.2753 30.0767 69.202 29.6212 69.3207C29.3767 69.3842 29.231 69.563 29.1626 69.8034C29.1269 69.9285 29.0918 70.0545 29.0683 70.1821C29.0156 70.4667 28.9977 70.755 29.0072 71.0718H29.0069Z" fill="#595959"/>
<path d="M11.8161 71.6789C11.8144 71.2431 11.8267 70.9003 11.9917 70.5823C12.1742 70.23 12.4547 70.0335 12.8541 70.0192C12.956 70.0156 13.0587 70.0153 13.1605 70.022C13.4896 70.0441 13.7391 70.2011 13.9183 70.4771C14.0484 70.6772 14.114 70.9011 14.138 71.1334C14.1835 71.5711 14.174 72.0089 14.0475 72.4346C13.8999 72.9322 13.5443 73.1869 13.0073 73.1925C12.4647 73.1981 12.1047 72.9563 11.9395 72.4698C11.9037 72.3643 11.87 72.2557 11.8555 72.146C11.8315 71.9616 11.8234 71.7752 11.8158 71.6786L11.8161 71.6789ZM12.2482 71.5446C12.2482 71.9064 12.2549 72.2227 12.3869 72.5205C12.482 72.7349 12.6456 72.8544 12.8781 72.8784C13.2926 72.9213 13.534 72.7651 13.642 72.3579C13.776 71.8535 13.7682 71.3428 13.642 70.8384C13.5507 70.4743 13.3364 70.3167 12.9844 70.3165C12.6436 70.3165 12.4212 70.4933 12.323 70.8412C12.2537 71.0861 12.2518 71.3374 12.2482 71.5446Z" fill="#595959"/>
<path d="M26.1073 72.7679C26.0389 72.774 26.0199 72.8605 25.9683 72.9092C25.824 73.0455 25.6702 73.1676 25.4645 73.1838C25.148 73.209 24.8421 73.1838 24.6548 72.8748C24.4715 72.5728 24.5005 72.0721 24.7015 71.8121C24.7729 71.72 24.8672 71.6655 24.973 71.6252C25.2505 71.5194 25.5284 71.4144 25.805 71.3061C25.9334 71.2557 26.0878 71.2207 26.1151 71.0578C26.1472 70.8642 26.1522 70.6655 26.0406 70.4889C25.9831 70.3982 25.8916 70.3453 25.7866 70.3332C25.6764 70.3206 25.5639 70.3153 25.4534 70.3218C25.1941 70.3369 25.112 70.4082 25.0523 70.6629C25.0336 70.743 25.0453 70.8295 24.9286 70.8499C24.7221 70.8863 24.6526 70.8171 24.6992 70.6095C24.7704 70.2927 24.9744 70.1093 25.2831 70.0433C25.512 69.9943 25.7461 70.0007 25.9761 70.0346C26.2703 70.078 26.4288 70.2747 26.4916 70.551C26.5181 70.6677 26.5229 70.7911 26.5237 70.9115C26.5271 71.4332 26.5234 71.9548 26.5268 72.4765C26.5279 72.6489 26.495 72.8437 26.7571 72.8754C26.843 72.8857 26.8232 72.9761 26.8168 73.0382C26.8098 73.106 26.7582 73.1259 26.6968 73.1273C26.4715 73.1331 26.2404 73.1239 26.1785 72.8253C26.1729 72.7984 26.1609 72.7729 26.1073 72.7676V72.7679ZM26.0805 71.9736C26.0805 71.9736 26.0827 71.9736 26.0836 71.9736C26.0836 71.853 26.083 71.7326 26.0836 71.612C26.0844 71.4922 26.0238 71.4662 25.9234 71.5087C25.7107 71.5991 25.4938 71.6811 25.2884 71.7858C24.9889 71.9386 24.8695 72.4242 25.0478 72.7083C25.0947 72.783 25.1597 72.8348 25.2415 72.8566C25.7073 72.9809 26.0869 72.6884 26.0802 72.3069C26.0783 72.1958 26.0799 72.0844 26.0799 71.9733L26.0805 71.9736Z" fill="#595959"/>
<path d="M42.8605 72.7648C42.7762 72.7732 42.7564 72.8446 42.7151 72.8905C42.4454 73.1891 42.1225 73.263 41.6972 73.1312C41.5777 73.0942 41.4828 73.0198 41.4102 72.919C41.2051 72.6341 41.2219 72.0864 41.4373 71.8093C41.5096 71.7161 41.6042 71.6638 41.7094 71.6235C41.9872 71.5174 42.2657 71.4133 42.5426 71.3053C42.8443 71.1877 42.9124 71.0564 42.8546 70.7172C42.8074 70.4413 42.6791 70.3346 42.3712 70.3184C42.3249 70.3159 42.2783 70.3148 42.2319 70.3167C41.9336 70.3282 41.8663 70.3814 41.7809 70.7002C41.7561 70.7928 41.7223 70.8485 41.6182 70.8538C41.4482 70.8625 41.4016 70.8152 41.4259 70.6414C41.4694 70.3307 41.6963 70.1007 42.0379 70.0382C42.2492 69.9996 42.4655 70.0005 42.6774 70.0304C43.0355 70.0811 43.2406 70.3352 43.2467 70.7435C43.2548 71.275 43.249 71.8068 43.2495 72.3383C43.2495 72.4222 43.2495 72.5062 43.2515 72.5902C43.2543 72.72 43.2833 72.8339 43.4357 72.8614C43.5351 72.8793 43.5434 72.9492 43.5351 73.0293C43.5261 73.1155 43.4639 73.1233 43.3944 73.1292C43.1326 73.1519 43.0251 73.0844 42.9096 72.8225C42.8995 72.7992 42.8758 72.7822 42.8605 72.7651V72.7648ZM42.8125 71.9618C42.8144 71.9618 42.8164 71.9618 42.8186 71.9618C42.8186 71.8412 42.8192 71.7203 42.8186 71.5997C42.818 71.4981 42.7661 71.4651 42.6751 71.5037C42.4452 71.6014 42.2132 71.6954 41.9886 71.8043C41.657 71.9652 41.6388 72.4855 41.7842 72.7147C41.8253 72.7791 41.8825 72.8289 41.9551 72.8513C42.3092 72.9599 42.7614 72.8076 42.8105 72.3517C42.8245 72.2232 42.8127 72.092 42.8127 71.9621L42.8125 71.9618Z" fill="#595959"/>
<path d="M19.0898 71.6101C18.8763 71.6101 18.6628 71.6117 18.449 71.6092C18.3323 71.6078 18.281 71.659 18.2826 71.7771C18.286 72.01 18.2838 72.2429 18.3516 72.4693C18.4406 72.7665 18.6067 72.8857 18.9302 72.8826C19.2218 72.8798 19.3901 72.7491 19.4716 72.4586C19.4867 72.4052 19.4948 72.3495 19.5032 72.2941C19.5177 72.1986 19.5618 72.1505 19.6676 72.1457C19.8791 72.1359 19.9107 72.1664 19.8721 72.3822C19.7859 72.8656 19.4945 73.1491 19.0454 73.1872C18.5255 73.2311 18.1386 73.0209 17.9921 72.5552C17.7764 71.8695 17.7808 71.1779 18.0744 70.5096C18.2129 70.1944 18.4635 70.0192 18.818 70.0167C18.9014 70.0162 18.9851 70.015 19.0686 70.0192C19.4792 70.0397 19.6916 70.2076 19.8105 70.607C19.8908 70.8768 19.9087 71.1547 19.9162 71.4348C19.9201 71.5745 19.8543 71.6114 19.7306 71.6092C19.5171 71.605 19.3036 71.6081 19.0898 71.6081V71.6101ZM18.8757 71.3064C19.0239 71.3064 19.1721 71.3041 19.3201 71.3069C19.4362 71.3092 19.4873 71.2582 19.4864 71.1401C19.4853 70.9714 19.4596 70.8065 19.4088 70.6473C19.3424 70.439 19.1967 70.3302 18.9762 70.319C18.7407 70.3069 18.5283 70.3433 18.4108 70.5795C18.3226 70.7567 18.2916 70.9481 18.2882 71.146C18.2863 71.2683 18.3468 71.3097 18.4593 71.3075C18.598 71.3047 18.737 71.3069 18.876 71.3067L18.8757 71.3064Z" fill="#595959"/>
<path d="M50.0468 77.1186C50.0499 77.4511 50.0192 77.7475 49.9371 78.0352C49.7892 78.5532 49.4442 78.8026 48.8838 78.8116C48.3429 78.8202 47.96 78.5622 47.8101 78.0567C47.6624 77.558 47.637 77.045 47.7529 76.5373C47.9605 75.6266 48.7267 75.4933 49.3711 75.7287C49.7423 75.8642 49.907 76.2003 49.989 76.5697C50.0312 76.7601 50.0619 76.9543 50.0468 77.1189V77.1186ZM48.1196 77.2244C48.1366 77.4998 48.1372 77.7799 48.234 78.0469C48.3493 78.3643 48.562 78.5152 48.8835 78.5098C49.1944 78.5048 49.406 78.3637 49.5017 78.0469C49.6667 77.5 49.6524 76.9442 49.5054 76.3957C49.4537 76.2031 49.3359 76.0455 49.1308 75.9764C48.7077 75.8339 48.3426 76.0198 48.2134 76.4483C48.1375 76.7004 48.1344 76.9616 48.1196 77.2246V77.2244Z" fill="#595959"/>
<path d="M33.1145 71.61C32.9007 71.61 32.6866 71.6114 32.4728 71.6095C32.36 71.6086 32.3017 71.6529 32.3012 71.774C32.2998 72.0175 32.3101 72.2593 32.3793 72.4942C32.4555 72.7522 32.6154 72.8698 32.8929 72.8821C33.2007 72.8958 33.3595 72.8018 33.4611 72.5367C33.4943 72.4502 33.5186 72.359 33.5345 72.2677C33.5507 72.1745 33.6021 72.1505 33.6883 72.1463C33.8985 72.1356 33.9342 72.174 33.894 72.3864C33.8005 72.8782 33.496 73.162 33.0313 73.1905C32.5191 73.2221 32.1334 72.9912 31.9978 72.5216C31.8038 71.8502 31.8069 71.1774 32.089 70.5241C32.2325 70.1922 32.4879 70.0195 32.8521 70.0173C32.9358 70.0167 33.0196 70.0153 33.1033 70.0201C33.5027 70.0424 33.7165 70.2135 33.8276 70.5949C33.9063 70.8658 33.9272 71.1438 33.9331 71.4245C33.9356 71.5532 33.8904 71.6131 33.7561 71.6098C33.5423 71.6042 33.3283 71.6084 33.1145 71.6084V71.6103V71.61ZM32.9107 71.3092V71.3103C32.9478 71.3103 32.985 71.3103 33.0224 71.3103C33.5437 71.3103 33.6015 71.2291 33.4502 70.7094C33.4477 70.7004 33.446 70.6912 33.4432 70.6822C33.3615 70.4253 33.2236 70.3218 32.9517 70.3128C32.6238 70.3022 32.4429 70.4326 32.3645 70.7477C32.3355 70.8644 32.3143 70.9854 32.3084 71.1054C32.3 71.277 32.3246 71.3002 32.4929 71.3078C32.6319 71.3139 32.7717 71.3092 32.911 71.3092H32.9107Z" fill="#595959"/>
<path d="M41.2517 77.179C41.245 77.4779 41.2255 77.7741 41.135 78.0618C40.9908 78.5208 40.7022 78.7578 40.2294 78.7998C39.5227 78.8625 39.094 78.5392 38.9639 77.8398C38.8816 77.3968 38.8665 76.9523 38.9681 76.5096C39.1841 75.5703 40.0627 75.4947 40.6285 75.7511C41.0323 75.9342 41.1618 76.3254 41.2263 76.7335C41.2495 76.8799 41.2439 77.0304 41.2514 77.1793L41.2517 77.179ZM40.8152 77.2943C40.8124 77.0299 40.8188 76.8432 40.7767 76.6604C40.7538 76.5611 40.7354 76.4595 40.7002 76.3643C40.5919 76.0721 40.3949 75.9386 40.0853 75.9367C39.7769 75.9347 39.5732 76.0688 39.4543 76.3478C39.3988 76.4779 39.3761 76.6165 39.3622 76.7542C39.3153 77.2095 39.2983 77.6655 39.4666 78.1029C39.5737 78.3814 39.7987 78.521 40.0976 78.509C40.382 78.4975 40.5908 78.3752 40.6946 78.0937C40.7999 77.8088 40.8225 77.5149 40.8155 77.2943H40.8152Z" fill="#595959"/>
<path d="M14.9786 71.5997C14.9786 71.1712 14.9764 70.7427 14.9797 70.3142C14.9814 70.1032 15.1067 70.0217 15.3057 70.0892C15.373 70.1119 15.3738 70.1631 15.3861 70.2188C15.4269 70.4013 15.4408 70.4113 15.5809 70.2871C15.8268 70.0685 16.1068 69.9882 16.4294 70.0187C16.8081 70.0548 17.0563 70.2826 17.0638 70.6657C17.0786 71.42 17.073 72.1746 17.0708 72.9291C17.0702 73.1004 17.0454 73.1144 16.8704 73.1161C16.687 73.1177 16.6549 73.0954 16.6535 72.9137C16.6496 72.3456 16.6521 71.7771 16.6518 71.209C16.6518 71.0693 16.6566 70.9291 16.6491 70.79C16.632 70.4788 16.4824 70.3402 16.179 70.3159C15.764 70.2829 15.39 70.5709 15.3981 71.0576C15.4084 71.6722 15.402 72.2871 15.3981 72.902C15.397 73.101 15.3655 73.1166 15.1684 73.1186C15.0188 73.12 14.9758 73.05 14.9772 72.9134C14.9809 72.4757 14.9786 72.0377 14.9786 71.6V71.5997Z" fill="#595959"/>
<path d="M8.823 77.2224C8.60893 77.2224 8.39514 77.223 8.18107 77.2224C8.06775 77.2219 8.01137 77.272 8.0097 77.3901C8.00635 77.6428 8.015 77.8944 8.09287 78.1371C8.17018 78.378 8.35132 78.5029 8.62233 78.5107C8.8925 78.5182 9.07085 78.4057 9.16491 78.1611C9.19142 78.0923 9.20538 78.0181 9.22324 77.9462C9.26454 77.7811 9.30585 77.7517 9.47303 77.7589C9.5724 77.7634 9.62487 77.7925 9.61538 77.9104C9.57798 78.3741 9.28241 78.7228 8.85873 78.7903C8.31643 78.8762 7.88187 78.6741 7.72752 78.2031C7.49671 77.4989 7.5062 76.7889 7.81488 76.1021C7.92904 75.8482 8.13334 75.7024 8.41356 75.6523C8.63126 75.6134 8.84087 75.6386 9.04936 75.6859C9.26343 75.7346 9.41247 75.8729 9.48811 76.0794C9.60505 76.3982 9.63826 76.7312 9.64217 77.0688C9.64329 77.1751 9.59612 77.2207 9.49201 77.2199C9.26873 77.2182 9.04545 77.2193 8.82217 77.2193C8.82217 77.2205 8.82217 77.2216 8.82217 77.2227L8.823 77.2224ZM8.624 76.9372C8.624 76.9372 8.624 76.9392 8.624 76.9403C8.6427 76.9403 8.66112 76.9403 8.67982 76.9403C9.26706 76.9403 9.31674 76.8723 9.14676 76.303C9.07336 76.057 8.94246 75.9543 8.6815 75.9386C8.33709 75.9179 8.16209 76.0436 8.07054 76.3775C8.03593 76.504 8.01863 76.6322 8.01388 76.7637C8.0097 76.8832 8.06384 76.9364 8.17744 76.9372C8.3262 76.9381 8.47496 76.9372 8.62372 76.9372H8.624Z" fill="#595959"/>
<path d="M34.3235 77.2213C34.1284 77.2213 33.9331 77.2244 33.738 77.2202C33.6021 77.2174 33.5342 77.2658 33.5317 77.4139C33.5281 77.6394 33.5462 77.8617 33.6012 78.0788C33.6757 78.3716 33.8666 78.5112 34.1703 78.5104C34.4595 78.5096 34.6306 78.3789 34.7185 78.0892C34.7347 78.0357 34.7522 77.9812 34.7561 77.926C34.7654 77.7945 34.8379 77.7531 34.9596 77.757C35.1209 77.762 35.1544 77.7978 35.1335 77.9621C35.074 78.4281 34.7857 78.7385 34.3621 78.7928C33.8186 78.8622 33.4151 78.6713 33.256 78.2065C33.012 77.4933 33.0358 76.776 33.3484 76.0825C33.4541 75.8479 33.6481 75.7142 33.9035 75.6596C34.1287 75.6114 34.3487 75.6344 34.5664 75.6823C34.7913 75.7318 34.9454 75.8762 35.0221 76.094C35.1315 76.4055 35.1597 76.7296 35.1639 77.0576C35.1656 77.1793 35.1064 77.2216 34.9928 77.2202C34.7698 77.2174 34.5465 77.2193 34.3235 77.2193V77.2213ZM34.1245 76.9353C34.2727 76.9353 34.4209 76.9353 34.5691 76.9353C34.6841 76.9353 34.7341 76.8804 34.7333 76.7631C34.7319 76.5944 34.7121 76.4287 34.6587 76.2692C34.5828 76.0419 34.4547 75.9529 34.1993 75.9383C33.9205 75.9224 33.7444 76.0108 33.6484 76.2252C33.5755 76.3881 33.554 76.5639 33.5367 76.7399C33.5245 76.8656 33.5769 76.9347 33.7076 76.935C33.8465 76.935 33.9855 76.935 34.1245 76.9353Z" fill="#595959"/>
<path d="M23.7235 77.2224C23.5005 77.2224 23.2775 77.223 23.0545 77.2224C22.9412 77.2219 22.8842 77.2742 22.88 77.3901C22.8711 77.6529 22.8959 77.9118 22.9813 78.1609C23.0592 78.3884 23.2362 78.5034 23.496 78.5104C23.7592 78.5174 23.9378 78.4147 24.0316 78.1914C24.0673 78.1063 24.0863 78.0139 24.1089 77.9238C24.146 77.7771 24.323 77.7038 24.4422 77.7855C24.4893 77.818 24.4835 77.8645 24.4843 77.9098C24.4927 78.3033 24.1754 78.7027 23.7921 78.7816C23.153 78.9134 22.6936 78.631 22.5365 77.994C22.3927 77.4108 22.415 76.8303 22.6182 76.2622C22.7726 75.8309 23.0333 75.6075 23.6113 75.6366C23.6945 75.6408 23.7773 75.6565 23.8597 75.6702C24.11 75.7125 24.2803 75.8541 24.3716 76.0914C24.4941 76.4102 24.4952 76.7483 24.5262 77.0814C24.5365 77.1925 24.462 77.2213 24.3646 77.2205C24.1508 77.2182 23.9373 77.2199 23.7235 77.2199V77.2227V77.2224ZM23.4971 76.9392C23.4971 76.9392 23.4971 76.9369 23.4971 76.9358C23.6456 76.9358 23.7941 76.9364 23.9426 76.9358C24.0327 76.9353 24.0788 76.8894 24.0785 76.7978C24.0779 76.6017 24.0707 76.4063 23.9934 76.2219C23.9403 76.0954 23.8575 75.9966 23.7187 75.9663C23.3604 75.8885 23.0397 75.9417 22.9361 76.4052C22.9158 76.4959 22.9012 76.5882 22.8912 76.6806C22.8683 76.891 22.9001 76.9299 23.1069 76.9386C23.2367 76.9439 23.3668 76.9397 23.4969 76.9397L23.4971 76.9392Z" fill="#595959"/>
<path d="M14.7833 78.4166C14.6794 78.4393 14.6484 78.5023 14.6038 78.5465C14.3289 78.8183 13.9962 78.8544 13.6448 78.7662C13.4346 78.7133 13.287 78.57 13.2331 78.3506C13.2111 78.2605 13.1896 78.1676 13.189 78.0758C13.1851 77.3576 13.1848 76.6394 13.1873 75.9215C13.1879 75.7284 13.2127 75.7094 13.3916 75.7083C13.5739 75.7072 13.5987 75.7256 13.5999 75.9154C13.6029 76.5404 13.6012 77.165 13.6015 77.79C13.6015 77.846 13.6007 77.902 13.6018 77.9579C13.6057 78.1734 13.587 78.3996 13.858 78.4852C14.1352 78.5725 14.4863 78.4749 14.642 78.263C14.7685 78.0909 14.81 77.895 14.8089 77.6834C14.8059 77.0959 14.8061 76.5082 14.81 75.9207C14.8112 75.7279 14.8377 75.7077 15.0157 75.7074C15.1986 75.7074 15.2256 75.7262 15.2262 75.9143C15.2293 76.7816 15.227 77.6489 15.2281 78.5163C15.2281 78.6375 15.2234 78.7399 15.0548 78.7298C14.8728 78.7189 14.8011 78.7469 14.8059 78.5339C14.8067 78.4984 14.7927 78.4628 14.7835 78.4169L14.7833 78.4166Z" fill="#595959"/>
<path d="M5.85865 71.5969C5.85865 71.1583 5.85837 70.72 5.85893 70.2815C5.85893 70.1874 5.85139 70.0937 5.99039 70.0814C6.1612 70.0665 6.20725 70.0875 6.24939 70.2375C6.29321 70.3943 6.31498 70.408 6.44337 70.2915C6.68759 70.0699 6.96669 69.9865 7.29073 70.0181C7.65077 70.0534 7.86707 70.251 7.92569 70.6086C7.95611 70.7939 7.95555 70.9803 7.95555 71.1667C7.95583 71.7357 7.95723 72.3047 7.95471 72.8737C7.95388 73.1001 7.91396 73.1275 7.69403 73.1172C7.57234 73.1116 7.53271 73.0573 7.53438 72.9431C7.53801 72.71 7.53494 72.4768 7.53494 72.2434C7.53494 71.8144 7.53355 71.3853 7.5355 70.956C7.53606 70.8334 7.52182 70.715 7.48191 70.5986C7.43558 70.4637 7.34124 70.3811 7.21035 70.3391C6.76378 70.1964 6.32587 70.4785 6.27926 70.9476C6.22734 71.4684 6.26614 71.9915 6.25609 72.5135C6.25358 72.6439 6.25944 72.7749 6.25414 72.9053C6.2466 73.092 6.10426 73.1765 5.93233 73.1032C5.83967 73.0637 5.86004 72.9814 5.85977 72.9115C5.85753 72.4732 5.85865 72.0346 5.85865 71.596V71.5969Z" fill="#595959"/>
<path d="M21.5621 70.024C21.722 70.0075 21.8797 70.0265 22.0279 70.0847C22.2654 70.1779 22.4382 70.3383 22.4943 70.5991C22.5122 70.6823 22.5867 70.7841 22.4491 70.8342C22.2973 70.8896 22.1482 70.8328 22.1192 70.6996C22.0801 70.5205 21.9995 70.3761 21.8139 70.3416C21.5853 70.2994 21.3466 70.2692 21.1476 70.4371C20.9244 70.6254 20.9472 71.0108 21.187 71.2006C21.2757 71.2708 21.3801 71.3114 21.4859 71.3481C21.741 71.4365 21.9877 71.5446 22.23 71.6627C22.7335 71.9081 22.8083 72.6126 22.3531 72.9442C21.9269 73.2546 21.4533 73.277 20.9771 73.071C20.7304 72.9644 20.5964 72.7508 20.5585 72.4835C20.5465 72.3996 20.542 72.3022 20.6637 72.2969C20.7678 72.2924 20.9029 72.2445 20.9439 72.3987C20.9874 72.5633 21.0218 72.7279 21.1898 72.8158C21.3734 72.9118 21.5713 72.8952 21.7636 72.8695C22.0757 72.8281 22.2308 72.6226 22.2205 72.3067C22.2138 72.1057 22.1189 71.9711 21.9364 71.9003C21.7285 71.8197 21.5177 71.7469 21.3084 71.6699C21.2213 71.638 21.132 71.6103 21.0488 71.57C20.6609 71.3817 20.5077 71.104 20.5741 70.7192C20.6383 70.3467 20.9271 70.0727 21.3123 70.0257C21.3946 70.0156 21.4792 70.0243 21.5629 70.0243L21.5621 70.024Z" fill="#595959"/>
<path d="M35.2061 70.3626C35.2937 70.3596 35.3344 70.303 35.3813 70.261C35.6119 70.0556 35.8812 69.9932 36.1829 70.0178C36.5639 70.0486 36.8078 70.2666 36.8299 70.6509C36.8511 71.0223 36.8444 71.3954 36.8466 71.7679C36.8486 72.1497 36.8503 72.5317 36.8444 72.9134C36.8416 73.0942 36.8042 73.1208 36.6267 73.1161C36.4673 73.1116 36.4461 73.0959 36.445 72.9098C36.4414 72.2859 36.4422 71.6618 36.4436 71.0377C36.4439 70.8972 36.4383 70.7584 36.3945 70.6238C36.3373 70.4469 36.2164 70.35 36.0314 70.3235C35.5675 70.2563 35.2022 70.5269 35.1723 70.9747C35.1505 71.3008 35.1636 71.6263 35.1597 71.9521C35.1561 72.2594 35.1611 72.5667 35.1583 72.874C35.1564 73.0948 35.1335 73.1183 34.956 73.1161C34.7832 73.1138 34.7648 73.0934 34.7612 72.8622C34.7578 72.6294 34.7601 72.3965 34.7601 72.1636C34.7601 71.549 34.7581 70.9341 34.7614 70.3195C34.7626 70.1007 34.7991 70.0741 34.9998 70.0811C35.1008 70.0844 35.1583 70.1163 35.1555 70.2263C35.1544 70.2714 35.1539 70.3198 35.2061 70.3632V70.3626Z" fill="#595959"/>
<path d="M42.8859 78.8127C42.5741 78.795 42.233 78.7601 42.0184 78.4242C41.9623 78.3366 41.9157 78.2468 41.9137 78.1401C41.9121 78.0433 41.8669 77.9274 42.0268 77.9042C42.1998 77.879 42.2559 77.9115 42.2992 78.0763C42.3773 78.3755 42.5188 78.4919 42.8292 78.5098C42.9408 78.5163 43.0514 78.5098 43.1605 78.4785C43.4329 78.4007 43.5426 78.2734 43.5585 78.0103C43.5747 77.7433 43.4865 77.6003 43.2247 77.4961C43.0349 77.4208 42.8398 77.3593 42.6481 77.2885C42.544 77.2501 42.4373 77.2143 42.3397 77.1622C41.9749 76.9674 41.8618 76.7284 41.9252 76.3072C41.9715 75.9988 42.2219 75.7469 42.5504 75.6705C42.8105 75.61 43.069 75.6266 43.3224 75.6932C43.621 75.7715 43.7935 75.9781 43.8518 76.2789C43.8655 76.3495 43.8848 76.4441 43.7793 76.4578C43.6771 76.4712 43.5557 76.5208 43.4826 76.3903C43.4737 76.3747 43.4737 76.3542 43.4672 76.3369C43.3285 75.9604 42.9244 75.8088 42.5694 75.9991C42.3171 76.1345 42.2612 76.5236 42.4594 76.7522C42.542 76.8474 42.6503 76.8983 42.7633 76.9425C43.0399 77.0508 43.309 77.1832 43.587 77.2817C44.1859 77.4939 44.0497 78.3707 43.6389 78.6106C43.4407 78.7262 43.2163 78.8018 42.8856 78.8124L42.8859 78.8127Z" fill="#595959"/>
<path d="M26.1648 78.8149C25.7928 78.792 25.4564 78.7363 25.2563 78.3914C25.2089 78.3097 25.1762 78.226 25.1706 78.1295C25.1584 77.9207 25.1944 77.8866 25.4065 77.9022C25.4941 77.9087 25.5382 77.9389 25.5527 78.0312C25.5859 78.2454 25.6691 78.4245 25.9083 78.4791C26.1726 78.5395 26.4305 78.5361 26.6543 78.3671C26.9287 78.16 26.8704 77.6694 26.5522 77.5255C26.3496 77.4337 26.1352 77.3679 25.9239 77.2971C25.8089 77.2585 25.6967 77.2162 25.5901 77.1577C25.2471 76.9691 25.1229 76.7169 25.1812 76.3248C25.2295 75.9999 25.4843 75.7455 25.8223 75.6691C26.0741 75.612 26.3228 75.631 26.5681 75.6892C26.8687 75.7606 27.09 76.015 27.1121 76.2921C27.1179 76.3677 27.1291 76.4575 27.0236 76.4617C26.9228 76.4659 26.7936 76.5275 26.7375 76.3752C26.7183 76.3229 26.7074 76.2675 26.6895 76.2146C26.6404 76.0687 26.5357 75.9865 26.3878 75.9551C26.2681 75.9296 26.1469 75.9283 26.0269 75.9428C25.7947 75.9711 25.6591 76.0897 25.6122 76.2955C25.5631 76.5118 25.6342 76.7113 25.8137 76.8365C25.9368 76.9224 26.0805 76.9672 26.2192 77.0195C26.428 77.0984 26.6345 77.1815 26.8335 77.2843C27.3169 77.5342 27.4107 78.0875 27.0359 78.4874C26.8905 78.6428 26.709 78.7326 26.5045 78.7735C26.3864 78.7973 26.2647 78.8032 26.1645 78.8149H26.1648Z" fill="#595959"/>
<path d="M10.7086 77.3069C10.7234 77.5605 10.7343 77.8311 10.8166 78.0914C10.9096 78.3847 11.1133 78.5224 11.4279 78.5104C11.7338 78.4986 11.9049 78.3612 11.985 78.0595C11.997 78.0147 12.0009 77.968 12.009 77.9221C12.0413 77.734 12.0771 77.7097 12.2632 77.7226C12.3676 77.7295 12.4206 77.7724 12.4042 77.8796C12.3358 78.3193 12.1549 78.7808 11.5122 78.8104C11.3436 78.8183 11.1761 78.8051 11.0145 78.7643C10.7097 78.6876 10.5208 78.4835 10.4225 78.1877C10.2852 77.7738 10.2584 77.3481 10.2975 76.9179C10.3151 76.7237 10.3366 76.528 10.3966 76.3402C10.5945 75.7226 11.3695 75.4208 11.928 75.7497C12.1848 75.9011 12.314 76.1457 12.3682 76.4323C12.3818 76.5054 12.3902 76.5997 12.2816 76.5983C12.1842 76.5969 12.0478 76.6716 12.0051 76.5017C11.9914 76.4474 11.9836 76.3917 11.9671 76.3386C11.8753 76.043 11.7274 75.9367 11.4108 75.9364C11.0957 75.9364 10.9087 76.0643 10.8225 76.3481C10.7544 76.5725 10.7485 76.8074 10.724 77.0388C10.715 77.1222 10.7139 77.2062 10.7083 77.3064L10.7086 77.3069Z" fill="#595959"/>
<path d="M46.2111 77.2845C46.2111 76.9302 46.2075 76.5756 46.2128 76.2213C46.215 76.0777 46.1595 76.0148 46.0157 76.0226C45.9513 76.0262 45.8851 76.0223 45.8218 76.0103C45.7405 75.9952 45.7324 75.9274 45.7324 75.8586C45.7324 75.7883 45.7464 75.7265 45.829 75.713C45.8656 75.7072 45.9033 75.7088 45.9401 75.706C46.1178 75.692 46.2077 75.5928 46.2097 75.4083C46.2114 75.2778 46.2147 75.1471 46.2164 75.0167C46.2184 74.8563 46.3364 74.8826 46.4355 74.8784C46.5354 74.874 46.6267 74.884 46.6281 75.017C46.6298 75.1941 46.6348 75.3716 46.6292 75.5485C46.6258 75.6576 46.6739 75.7021 46.7757 75.7038C46.8595 75.7052 46.9432 75.7097 47.0266 75.708C47.1503 75.7055 47.1882 75.7794 47.1896 75.8857C47.1913 76.0008 47.1126 76.0167 47.0213 76.0237C46.9033 76.0327 46.7584 75.9753 46.6739 76.0648C46.582 76.1625 46.6348 76.3145 46.6337 76.4418C46.6295 76.9921 46.6306 77.5423 46.6325 78.0926C46.6334 78.3948 46.6443 78.4043 46.9421 78.4234C47.0063 78.4276 47.0805 78.4097 47.1277 78.4614C47.174 78.5126 47.1626 78.5846 47.1506 78.6489C47.1372 78.7203 47.0783 78.7259 47.0219 78.7262C46.8639 78.7265 46.7048 78.7349 46.548 78.7203C46.3278 78.6999 46.2329 78.6053 46.2256 78.3755C46.2139 78.0122 46.2225 77.6484 46.2225 77.2848C46.2186 77.2848 46.215 77.2848 46.2111 77.2848V77.2845Z" fill="#595959"/>
<path d="M19.6639 77.2473C19.6639 76.9302 19.6656 76.6131 19.6634 76.296C19.6614 76.0438 19.6592 76.0438 19.4066 76.0231C19.2252 76.008 19.1939 75.9772 19.2009 75.8379C19.2048 75.7589 19.2375 75.7161 19.3164 75.7114C19.3628 75.7086 19.4094 75.7086 19.4557 75.7035C19.6522 75.6822 19.6564 75.6797 19.6631 75.4863C19.6673 75.3652 19.6623 75.244 19.6645 75.1228C19.6687 74.8902 19.6773 74.8804 19.8635 74.8784C20.0633 74.8765 20.0745 74.8888 20.0784 75.1351C20.0803 75.2563 20.0862 75.378 20.0773 75.4987C20.0667 75.642 20.1247 75.7077 20.2668 75.7052C20.341 75.7038 20.4156 75.7088 20.4898 75.7091C20.5914 75.7097 20.6411 75.7528 20.6402 75.8614C20.6391 75.9646 20.6003 76.0195 20.4951 76.0212C20.4114 76.0223 20.3276 76.0265 20.2442 76.0243C20.125 76.0212 20.0795 76.0805 20.0798 76.195C20.0812 76.8572 20.0773 77.5194 20.0817 78.1815C20.0831 78.3671 20.1281 78.4035 20.3159 78.4211C20.3715 78.4264 20.4273 78.425 20.4831 78.4256C20.5905 78.4267 20.6263 78.4858 20.6271 78.5871C20.6282 78.701 20.5668 78.7301 20.4686 78.7281C20.3385 78.7256 20.2079 78.7323 20.0781 78.7265C19.7926 78.7136 19.6916 78.6263 19.6726 78.3386C19.6556 78.0786 19.6662 77.8166 19.6648 77.5555C19.6642 77.4528 19.6648 77.3503 19.6648 77.2476H19.6642L19.6639 77.2473Z" fill="#595959"/>
<path d="M37.8841 71.6725C37.8841 71.3461 37.8838 71.0201 37.8841 70.6937C37.8846 70.4074 37.8556 70.3677 37.5932 70.3867C37.512 70.3926 37.4216 70.4001 37.4107 70.2733C37.399 70.1393 37.4322 70.0956 37.5773 70.0819C37.7796 70.0627 37.8818 69.9485 37.8841 69.7393C37.8849 69.6554 37.8824 69.5714 37.8852 69.4877C37.8916 69.2742 37.9189 69.2437 38.0945 69.2459C38.2595 69.2479 38.2759 69.2666 38.2804 69.476C38.2832 69.6156 38.2843 69.7556 38.2818 69.8955C38.2793 70.0223 38.3309 70.0875 38.4635 70.0811C38.5377 70.0774 38.6122 70.0833 38.6865 70.0819C38.7867 70.0802 38.8403 70.118 38.8436 70.228C38.8475 70.352 38.7895 70.3833 38.6759 70.3903C38.2848 70.4144 38.2849 70.4183 38.2849 70.8163C38.2849 71.3475 38.2843 71.879 38.2849 72.4102C38.2851 72.7732 38.2949 72.785 38.6535 72.8079C38.7529 72.8144 38.84 72.8144 38.8375 72.9523C38.8355 73.0517 38.8096 73.1155 38.6982 73.1141C38.5494 73.1124 38.3998 73.1228 38.2525 73.1082C37.9974 73.0833 37.9047 72.9915 37.8966 72.7343C37.8855 72.3805 37.8938 72.0262 37.8938 71.6719H37.8849L37.8841 71.6725Z" fill="#595959"/>
<path d="M4.30795 71.0495C4.30795 70.4449 4.30739 69.8404 4.30907 69.2356C4.30907 69.1642 4.28032 69.0665 4.35624 69.031C4.45755 68.9837 4.57505 68.9985 4.6839 69.0245C4.71963 69.0329 4.73247 69.0786 4.73442 69.1166C4.73833 69.1908 4.7414 69.2652 4.7414 69.3397C4.74168 70.4931 4.7414 71.6464 4.7414 72.7998C4.7414 72.8278 4.74196 72.8555 4.74084 72.8835C4.73331 73.0948 4.5904 73.1841 4.38861 73.1057C4.34033 73.087 4.31298 73.0542 4.31102 73.0027C4.30851 72.9378 4.30767 72.8726 4.30767 72.8074C4.30767 72.2213 4.30767 71.6355 4.30767 71.0495H4.30795Z" fill="#595959"/>
<path d="M44.6328 71.0682C44.6328 71.6638 44.6339 72.2594 44.6322 72.8549C44.6317 73.1015 44.5683 73.1533 44.3383 73.1144C44.2635 73.1018 44.2191 73.0707 44.2191 72.9904C44.2191 72.9252 44.2175 72.8603 44.2175 72.795C44.2175 71.6411 44.2175 70.4872 44.2175 69.3333C44.2175 69.3053 44.2172 69.2773 44.2175 69.2496C44.2214 69.0254 44.3352 68.9473 44.5521 69.0139C44.6386 69.0405 44.6308 69.1071 44.6314 69.1698C44.6331 69.4676 44.6328 69.7654 44.6328 70.0632C44.6328 70.3982 44.6328 70.7332 44.6328 71.0682Z" fill="#595959"/>
<path d="M39.972 70.5292C40.0898 70.4788 40.1214 70.3831 40.1853 70.3184C40.3499 70.1522 40.5417 70.0553 40.7792 70.0545C40.8763 70.0542 40.9419 70.0794 40.9439 70.1919C40.9458 70.3002 40.9483 70.4046 40.7959 70.4026C40.7683 70.4024 40.7404 70.4085 40.7128 70.4102C40.1674 70.4399 39.9542 70.8544 39.9542 71.2708C39.9542 71.7365 39.9542 72.2023 39.9539 72.6683C39.9539 72.7427 39.9556 72.8174 39.9533 72.8919C39.9475 73.1054 39.9198 73.1233 39.7072 73.118C39.5707 73.1147 39.5302 73.0497 39.533 72.9257C39.5369 72.7489 39.5336 72.5717 39.5336 72.3948C39.5336 71.6962 39.5319 70.9974 39.535 70.2988C39.5358 70.0981 39.5693 70.0786 39.7627 70.0797C39.8972 70.0805 39.9444 70.1401 39.9402 70.2672C39.9374 70.3489 39.926 70.434 39.9726 70.5289L39.972 70.5292Z" fill="#595959"/>
<path d="M16.7199 76.1491C16.8054 76.055 16.8785 75.9716 16.955 75.8916C17.1065 75.7323 17.3033 75.6881 17.5123 75.6733C17.6058 75.6666 17.6566 75.7046 17.6541 75.7976C17.6519 75.8849 17.6848 75.9938 17.555 76.0251C17.5196 76.0338 17.4808 76.0287 17.4439 76.0321C16.977 76.0744 16.7163 76.3293 16.6786 76.7964C16.663 76.9912 16.6683 77.1877 16.6675 77.3836C16.6661 77.7659 16.6694 78.1483 16.6655 78.5308C16.6636 78.7203 16.6471 78.7304 16.4528 78.7282C16.2753 78.7259 16.2586 78.7178 16.258 78.5398C16.255 77.6632 16.255 76.7866 16.258 75.9098C16.2586 75.7307 16.2837 75.7122 16.4459 75.7088C16.6209 75.7052 16.6407 75.7259 16.6574 75.9179C16.6636 75.9884 16.6345 76.0671 16.7202 76.1494L16.7199 76.1491Z" fill="#595959"/>
<path d="M51.3759 76.1561C51.4535 76.0676 51.518 75.9898 51.5872 75.9159C51.7426 75.7494 51.9416 75.6856 52.163 75.6739C52.2766 75.6677 52.3098 75.7329 52.3078 75.8297C52.3059 75.9215 52.3204 76.0271 52.178 76.0285C52.1501 76.0285 52.1222 76.0299 52.0946 76.0324C51.6218 76.0752 51.3558 76.3447 51.3379 76.8314C51.3226 77.2504 51.3324 77.6702 51.3312 78.0895C51.3307 78.2479 51.3354 78.4066 51.3287 78.5647C51.3223 78.7181 51.2989 78.7276 51.1102 78.729C50.9921 78.7301 50.9165 78.7086 50.9176 78.5633C50.9221 77.9669 50.919 77.3702 50.919 76.7738C50.919 76.4849 50.9159 76.1958 50.9204 75.907C50.9232 75.7256 50.9405 75.7128 51.1088 75.7077C51.2793 75.7027 51.2978 75.7195 51.3123 75.8885C51.3187 75.9624 51.3265 76.036 51.3352 76.1093C51.336 76.1166 51.3466 76.1231 51.3759 76.1558V76.1561Z" fill="#595959"/>
<path d="M21.6877 77.1978C21.6877 77.6361 21.6891 78.0741 21.6866 78.5124C21.6863 78.5821 21.7165 78.6761 21.6283 78.7097C21.5322 78.7463 21.4265 78.7388 21.3274 78.7077C21.3081 78.7018 21.2917 78.6669 21.2858 78.6425C21.2774 78.607 21.2777 78.5686 21.2777 78.5314C21.2774 77.6643 21.276 76.7976 21.2783 75.9305C21.2788 75.7295 21.3123 75.7018 21.501 75.7083C21.6615 75.7136 21.6852 75.7326 21.6869 75.9112C21.6905 76.34 21.688 76.7687 21.6883 77.1978H21.6877Z" fill="#595959"/>
<path d="M44.7751 77.1955C44.7751 76.7676 44.7723 76.3397 44.7762 75.9117C44.7779 75.7256 44.8033 75.7069 44.9872 75.7077C45.1689 75.7086 45.1887 75.7234 45.1893 75.9201C45.1918 76.7852 45.1913 77.6506 45.1893 78.5157C45.1893 78.5843 45.222 78.6789 45.1299 78.7108C45.0333 78.7444 44.9253 78.7449 44.8293 78.7083C44.7553 78.68 44.7768 78.5969 44.7765 78.535C44.7748 78.0883 44.7757 77.6419 44.7754 77.1953L44.7751 77.1955Z" fill="#595959"/>
<path d="M23.8407 71.598C23.8407 72.0265 23.8376 72.4553 23.8421 72.8838C23.8443 73.0948 23.8027 73.1267 23.5663 73.1135C23.4913 73.1093 23.4444 73.0746 23.4371 72.9965C23.4338 72.9596 23.4307 72.9221 23.4307 72.8852C23.4301 72.0279 23.4287 71.1709 23.4313 70.3136C23.4318 70.1063 23.4541 70.0872 23.6197 70.0825C23.7988 70.0774 23.834 70.1032 23.8379 70.2843C23.8443 70.5636 23.8401 70.8432 23.8404 71.1228C23.8404 71.2812 23.8404 71.4396 23.8404 71.598H23.8407Z" fill="#595959"/>
<path d="M18.6385 77.2238C18.6385 77.6428 18.6407 78.0618 18.6377 78.4805C18.636 78.7175 18.5799 78.7603 18.3594 78.7265C18.2796 78.7142 18.2444 78.675 18.2419 78.6002C18.2385 78.4981 18.2369 78.3957 18.2369 78.2932C18.2366 77.5669 18.2369 76.8409 18.2369 76.1147C18.2369 76.0587 18.2355 76.003 18.2377 75.947C18.2458 75.7318 18.2695 75.7058 18.4495 75.7086C18.6131 75.7111 18.636 75.7326 18.6379 75.9386C18.6416 76.3668 18.6391 76.795 18.6391 77.2233L18.6385 77.2238Z" fill="#595959"/>
<path d="M21.6877 74.8854C21.6852 75.0828 21.6503 75.1197 21.4708 75.1152C21.2992 75.111 21.2746 75.0794 21.2771 74.8631C21.2794 74.6646 21.312 74.6299 21.4934 74.6338C21.6659 74.6375 21.6905 74.6694 21.6877 74.8854Z" fill="#595959"/>
<path d="M45.1901 74.8854C45.1885 75.0853 45.1566 75.1186 44.9719 75.1149C44.7958 75.1113 44.7729 75.0819 44.7748 74.8636C44.7768 74.6624 44.8075 74.6299 44.9928 74.6341C45.1689 74.638 45.1921 74.6674 45.1904 74.8854H45.1901Z" fill="#595959"/>
<path d="M23.8401 69.2451C23.8415 69.4628 23.8195 69.4917 23.6478 69.4959C23.4581 69.5003 23.4346 69.4763 23.4307 69.272C23.4262 69.0366 23.4483 69.0083 23.6356 69.0086C23.8201 69.0089 23.8388 69.0307 23.8401 69.2451Z" fill="#595959"/>
<path d="M18.2374 74.8866C18.2341 74.682 18.269 74.6375 18.4336 74.635C18.6056 74.6324 18.6385 74.6711 18.6382 74.8759C18.6382 75.0732 18.6128 75.1065 18.4579 75.1133C18.2804 75.1211 18.2405 75.08 18.2374 74.8866Z" fill="#595959"/>
</g>
</g>
<defs>
<radialGradient id="paint0_radial_47_4654" cx="0" cy="0" r="1" gradientUnits="userSpaceOnUse" gradientTransform="translate(39.798 63.3391) scale(80.635 47.3834)">
<stop offset="0.16" stop-color="#DD8B71"/>
<stop offset="0.29" stop-color="#C4583D"/>
<stop offset="0.41" stop-color="#AF2B11"/>
<stop offset="0.47" stop-color="#A71B00"/>
</radialGradient>
</defs>
</svg>
