<svg width="192" height="64" viewBox="0 0 192 64" fill="none" xmlns="http://www.w3.org/2000/svg">
<g id="logo">
<g id="Logo">
<path id="Vector" d="M32.1073 36.7511C33.0024 33.7647 33.2778 30.3394 32.0987 23.8071L22.0293 19.5642V22.6453H22.0207V44.669C22.4166 44.8927 24.0604 44.385 24.0604 44.385C21.8313 46.003 19.5506 47.5607 19.4646 47.6123C19.3871 47.5607 17.1064 45.9943 14.8688 44.385C14.8688 44.385 16.5126 44.8927 16.9171 44.669V22.6367H16.8999V19.5642L6.82184 23.7985C5.63416 30.3136 5.90956 33.7303 6.79602 36.7167C5.24687 33.67 3.95592 28.9451 4.0678 21.6642C4.0678 21.6642 13.2078 18.6605 19.456 14.4004C25.7042 18.6605 34.8355 21.6642 34.8355 21.6642C34.956 28.971 33.6565 33.7045 32.0987 36.7425L32.1073 36.7511Z" fill="url(#paint0_linear_2_4293)"/>
<g id="Vector_2">
<path d="M38.5879 21.4571H54.9916V25.7688H43.3042V33.1445L53.2703 33.1101V37.3444H43.3042V43.3775H54.9916V47.6892H38.5879V21.4571Z" fill="white"/>
<path d="M58.744 21.4571H62.4189L70.9564 35.0551L79.537 21.4571H83.2119V47.6806H78.53L78.4956 31.2769L70.9994 42.818L63.4689 31.2769V47.6806H58.7526V21.4571H58.744Z" fill="white"/>
<path d="M95.7169 21.4571C96.8444 21.4571 97.8685 21.6206 98.7894 21.9476C99.7103 22.2747 100.502 22.7308 101.148 23.316C101.793 23.9013 102.301 24.607 102.662 25.416C103.024 26.225 103.204 27.1114 103.204 28.0581C103.204 29.3319 102.903 30.4593 102.309 31.4318C101.716 32.4043 100.898 33.1015 99.8738 33.5318C100.674 33.7297 101.397 34.0482 102.043 34.4871C102.688 34.926 103.256 35.451 103.729 36.062C104.203 36.6731 104.564 37.353 104.814 38.1018C105.063 38.8505 105.193 39.6337 105.193 40.4599C105.193 41.5357 104.977 42.5168 104.556 43.4033C104.134 44.2897 103.54 45.0557 102.774 45.6926C102.008 46.3294 101.087 46.82 100.003 47.1729C98.9185 47.5257 97.7136 47.6978 96.3882 47.6978H87.102V21.4571H95.7169ZM91.8613 32.172H94.7444C95.9407 32.172 96.896 31.8535 97.5931 31.2167C98.2902 30.5798 98.6431 29.7364 98.6431 28.6864C98.6431 27.6364 98.2902 26.793 97.5931 26.1561C96.896 25.5193 95.9407 25.2008 94.7444 25.2008H91.8613V32.172ZM95.605 43.9369C97.0251 43.9369 98.1783 43.5668 99.0476 42.8353C99.9254 42.0951 100.356 41.1054 100.356 39.8575C100.356 38.6095 99.9082 37.6026 99.0304 36.8452C98.1439 36.0879 96.9734 35.7006 95.5276 35.7006H91.8527V43.9455H95.5964L95.605 43.9369Z" fill="white"/>
<path d="M113.059 21.4571L113.093 37.7919C113.093 38.687 113.239 39.5046 113.523 40.2275C113.807 40.9505 114.212 41.5787 114.72 42.1037C115.228 42.6287 115.847 43.0332 116.553 43.3172C117.267 43.6012 118.059 43.7475 118.928 43.7475C120.701 43.7475 122.121 43.2053 123.18 42.1209C124.238 41.0365 124.772 39.5907 124.772 37.7919V21.4571H129.488V37.3788C129.488 38.9796 129.239 40.4341 128.74 41.7422C128.24 43.0504 127.526 44.1778 126.605 45.1159C125.684 46.054 124.565 46.777 123.274 47.2847C121.984 47.7925 120.529 48.0507 118.928 48.0507C117.328 48.0507 115.882 47.7925 114.582 47.2847C113.283 46.777 112.172 46.0454 111.251 45.1159C110.331 44.1778 109.608 43.059 109.1 41.7422C108.583 40.4341 108.334 38.9796 108.334 37.3788V21.4571H113.059Z" fill="white"/>
<path d="M142.097 21.0439C142.974 21.0439 143.887 21.1472 144.851 21.3452C145.815 21.5431 146.761 21.8185 147.699 22.1714C148.637 22.5242 149.541 22.946 150.419 23.4451C151.297 23.9443 152.089 24.4951 152.82 25.0975L150.651 28.7725C150.178 28.2991 149.61 27.8516 148.947 27.4385C148.285 27.0254 147.579 26.6639 146.83 26.3541C146.081 26.0442 145.315 25.7947 144.541 25.6225C143.766 25.4504 143.043 25.3643 142.372 25.3643C141.477 25.3643 140.728 25.5279 140.143 25.8549C139.558 26.1819 139.188 26.6553 139.041 27.275C138.895 27.7225 138.938 28.2044 139.17 28.7208C139.411 29.2372 139.876 29.6847 140.573 30.0892L148.706 34.5818C150.101 35.3047 151.116 36.1997 151.744 37.2583C152.373 38.3169 152.682 39.5218 152.682 40.873C152.682 41.9746 152.484 42.9644 152.08 43.8508C151.684 44.7373 151.107 45.4946 150.359 46.1143C149.61 46.7425 148.706 47.2159 147.665 47.5601C146.624 47.9044 145.444 48.0679 144.145 48.0679C143.095 48.0679 142.036 47.9646 140.961 47.7495C139.885 47.5343 138.861 47.2331 137.871 46.8286C136.881 46.4327 135.969 45.9508 135.117 45.4086C134.265 44.8577 133.533 44.2467 132.905 43.5754L134.738 39.6079C135.237 40.1587 135.814 40.6665 136.459 41.1398C137.105 41.6132 137.802 42.0349 138.542 42.4135C139.282 42.7922 140.04 43.1021 140.831 43.3516C141.615 43.6012 142.389 43.7733 143.138 43.8766C144.489 44.0229 145.582 43.9197 146.434 43.5582C147.286 43.1967 147.794 42.5771 147.966 41.7078C148.19 40.3566 147.476 39.212 145.832 38.2653L137.552 33.5834C136.175 32.8088 135.263 31.9224 134.798 30.9241C134.334 29.9257 134.101 28.9532 134.101 27.9979C134.101 26.9737 134.308 26.0356 134.721 25.1922C135.134 24.3402 135.693 23.6172 136.408 22.9976C137.122 22.3865 137.966 21.9132 138.938 21.5775C139.911 21.2419 140.969 21.0698 142.122 21.0698L142.097 21.0439Z" fill="white"/>
<path d="M157.795 21.4571H162.511V47.6806H157.795V21.4571Z" fill="white"/>
<path d="M168.32 21.4571H172.288L183.192 38.5407V21.4571H187.951V47.6806H184.018L173.045 30.597V47.6806H168.329V21.4571H168.32Z" fill="white"/>
</g>
<path id="Vector_3" d="M6.82207 23.7986L16.8915 19.5557V22.6367L9.41258 25.8039C9.41258 25.8039 7.20075 33.8078 11.6761 41.9236C11.5384 41.872 8.91341 40.8822 6.79625 36.6995C5.90979 33.7131 5.63439 30.2964 6.82207 23.7814V23.7986Z" fill="#495791"/>
<path id="Vector_4" d="M32.1073 36.7512C32.1073 36.7512 32.1073 36.7512 32.1073 36.7598C29.9816 40.8994 27.3825 41.8892 27.2448 41.9322C31.7287 33.8078 29.5082 25.8125 29.5082 25.8125L22.0293 22.6367V19.5557L32.0987 23.7986C33.2864 30.3394 33.0024 33.7648 32.1073 36.7426V36.7512Z" fill="#495791"/>
</g>
</g>
<defs>
<linearGradient id="paint0_linear_2_4293" x1="12.1234" y1="19.1683" x2="35.6962" y2="46.3386" gradientUnits="userSpaceOnUse">
<stop offset="0.06" stop-color="white"/>
<stop offset="0.63" stop-color="#3E5CAA"/>
<stop offset="1" stop-color="#2E449C"/>
</linearGradient>
</defs>
</svg>
