<svg width="214" height="53" viewBox="0 0 214 53" fill="none" xmlns="http://www.w3.org/2000/svg">
<g clip-path="url(#clip0_47_4457)">
<path d="M0.760029 47.8403V49.1503H2.30003V49.7503H0.760029V51.1203H2.49003V51.7203H0.0300293V47.2603H2.49003V47.8603H0.760029V47.8403Z" fill="white"/>
<path d="M10.5501 47.25V51.71H9.8201V48.66L8.4601 51.71H7.9501L6.5801 48.66V51.71H5.8501V47.25H6.6401L8.2001 50.74L9.7601 47.25H10.5401H10.5501Z" fill="white"/>
<path d="M16.93 49.22C16.82 49.42 16.65 49.58 16.42 49.71C16.18 49.84 15.88 49.9 15.52 49.9H14.71V51.71H13.98V47.25H15.52C15.86 47.25 16.15 47.31 16.39 47.43C16.63 47.55 16.8 47.71 16.92 47.91C17.04 48.11 17.1 48.34 17.1 48.58C17.1 48.81 17.05 49.02 16.94 49.22H16.93ZM16.14 49.11C16.28 48.98 16.35 48.81 16.35 48.57C16.35 48.08 16.07 47.84 15.52 47.84H14.71V49.3H15.52C15.8 49.3 16.01 49.24 16.14 49.11Z" fill="white"/>
<path d="M21.15 51.4602C20.8 51.2702 20.53 50.9902 20.32 50.6502C20.12 50.3002 20.02 49.9102 20.02 49.4702C20.02 49.0302 20.12 48.6402 20.32 48.3002C20.52 47.9502 20.8 47.6802 21.15 47.4902C21.5 47.3002 21.88 47.2002 22.29 47.2002C22.7 47.2002 23.09 47.3002 23.44 47.4902C23.79 47.6802 24.06 47.9502 24.26 48.3002C24.46 48.6502 24.56 49.0402 24.56 49.4702C24.56 49.9002 24.46 50.3002 24.26 50.6502C24.06 51.0002 23.78 51.2702 23.44 51.4602C23.09 51.6502 22.71 51.7502 22.29 51.7502C21.87 51.7502 21.49 51.6502 21.15 51.4602ZM23.08 50.9202C23.31 50.7902 23.49 50.5902 23.62 50.3402C23.75 50.0902 23.82 49.8002 23.82 49.4702C23.82 49.1402 23.75 48.8502 23.62 48.6002C23.49 48.3502 23.31 48.1602 23.08 48.0302C22.85 47.9002 22.59 47.8302 22.29 47.8302C21.99 47.8302 21.73 47.9002 21.5 48.0302C21.27 48.1602 21.09 48.3502 20.96 48.6002C20.83 48.8502 20.76 49.1402 20.76 49.4702C20.76 49.8002 20.82 50.0902 20.96 50.3402C21.1 50.5902 21.27 50.7802 21.5 50.9202C21.73 51.0502 21.99 51.1202 22.29 51.1202C22.59 51.1202 22.85 51.0502 23.08 50.9202Z" fill="white"/>
<path d="M33.5601 47.25L32.2401 51.71H31.4101L30.4701 48.34L29.4801 51.71H28.6601L27.4001 47.25H28.1801L29.1001 50.88L30.1001 47.25H30.9201L31.8501 50.86L32.7801 47.25H33.5601Z" fill="white"/>
<path d="M37.3601 47.8403V49.1503H38.9001V49.7503H37.3601V51.1203H39.0901V51.7203H36.6301V47.2603H39.0901V47.8603H37.3601V47.8403Z" fill="white"/>
<path d="M44.77 51.71L43.74 49.93H43.18V51.71H42.45V47.25H43.99C44.33 47.25 44.62 47.31 44.86 47.43C45.1 47.55 45.2699 47.71 45.3899 47.91C45.5099 48.11 45.57 48.34 45.57 48.58C45.57 48.87 45.49 49.13 45.32 49.37C45.15 49.61 44.89 49.77 44.54 49.85L45.6399 51.7H44.77V51.71ZM43.1899 49.34H44C44.27 49.34 44.4799 49.27 44.6199 49.13C44.7599 48.99 44.83 48.81 44.83 48.58C44.83 48.35 44.7599 48.17 44.6199 48.04C44.4799 47.91 44.28 47.84 44 47.84H43.1899V49.33V49.34Z" fill="white"/>
<path d="M49.7 47.25V51.71H48.97V47.25H49.7Z" fill="white"/>
<path d="M56.7901 51.71H56.0601L53.8601 48.38V51.71H53.1301V47.25H53.8601L56.0601 50.57V47.25H56.7901V51.71Z" fill="white"/>
<path d="M63.45 48.53C63.33 48.31 63.17 48.14 62.97 48.03C62.77 47.92 62.53 47.86 62.26 47.86C61.97 47.86 61.7 47.93 61.47 48.06C61.24 48.19 61.06 48.38 60.93 48.62C60.8 48.86 60.73 49.15 60.73 49.47C60.73 49.79 60.79 50.07 60.93 50.32C61.06 50.57 61.24 50.75 61.47 50.89C61.7 51.02 61.96 51.09 62.26 51.09C62.66 51.09 62.98 50.98 63.23 50.76C63.48 50.54 63.63 50.24 63.69 49.86H62.02V49.28H64.48V49.85C64.43 50.2 64.31 50.52 64.11 50.81C63.91 51.1 63.65 51.33 63.33 51.51C63.01 51.68 62.66 51.77 62.27 51.77C61.85 51.77 61.47 51.67 61.12 51.48C60.77 51.29 60.5 51.02 60.3 50.67C60.1 50.32 60 49.93 60 49.5C60 49.07 60.1 48.67 60.3 48.33C60.5 47.98 60.78 47.71 61.13 47.52C61.48 47.33 61.86 47.23 62.27 47.23C62.74 47.23 63.17 47.35 63.54 47.58C63.91 47.81 64.18 48.14 64.34 48.57H63.46L63.45 48.53Z" fill="white"/>
<path d="M72.4399 51.6002C72.1999 51.5002 72.0099 51.3502 71.8799 51.1502C71.7399 50.9602 71.6699 50.7302 71.6699 50.4802H72.4499C72.4699 50.6702 72.5399 50.8302 72.6799 50.9502C72.8099 51.0702 72.9999 51.1402 73.2499 51.1402C73.4999 51.1402 73.6999 51.0802 73.8399 50.9602C73.9799 50.8402 74.0499 50.6802 74.0499 50.4902C74.0499 50.3402 74.0099 50.2202 73.9199 50.1202C73.8299 50.0302 73.7199 49.9502 73.5899 49.9002C73.4599 49.8502 73.2799 49.7902 73.0499 49.7302C72.7599 49.6502 72.5199 49.5802 72.3399 49.5002C72.1599 49.4202 71.9999 49.3002 71.8799 49.1302C71.7499 48.9602 71.6899 48.7402 71.6899 48.4602C71.6899 48.2002 71.7499 47.9802 71.8799 47.7902C72.0099 47.6002 72.1899 47.4502 72.4199 47.3502C72.6499 47.2502 72.9199 47.2002 73.2199 47.2002C73.6499 47.2002 74.0099 47.3102 74.2799 47.5202C74.5599 47.7402 74.7099 48.0302 74.7399 48.4102H73.9299C73.9199 48.2502 73.8399 48.1102 73.6999 47.9902C73.5599 47.8702 73.3699 47.8202 73.1399 47.8202C72.9299 47.8202 72.7599 47.8702 72.6299 47.9802C72.4999 48.0902 72.4299 48.2402 72.4299 48.4402C72.4299 48.5802 72.4699 48.6902 72.5499 48.7802C72.6299 48.8702 72.7399 48.9402 72.8699 48.9902C72.9999 49.0402 73.1699 49.1002 73.3999 49.1602C73.6899 49.2402 73.9399 49.3202 74.1199 49.4002C74.3099 49.4802 74.4599 49.6102 74.5899 49.7802C74.7199 49.9502 74.7899 50.1702 74.7899 50.4602C74.7899 50.6902 74.7299 50.9002 74.6099 51.1002C74.4899 51.3002 74.3099 51.4602 74.0799 51.5802C73.8499 51.7002 73.5699 51.7602 73.2599 51.7602C72.9599 51.7602 72.6899 51.7102 72.4499 51.6002H72.4399Z" fill="white"/>
<path d="M78.8501 47.8403V49.1503H80.3901V49.7503H78.8501V51.1203H80.5801V51.7203H78.1201V47.2603H80.5801V47.8603H78.8501V47.8403Z" fill="white"/>
<path d="M84.01 48.3002C84.21 47.9502 84.49 47.6802 84.84 47.4902C85.19 47.3002 85.57 47.2002 85.98 47.2002C86.45 47.2002 86.88 47.3202 87.25 47.5502C87.62 47.7802 87.89 48.1102 88.05 48.5402H87.17C87.05 48.3102 86.89 48.1302 86.69 48.0102C86.49 47.8902 86.25 47.8402 85.98 47.8402C85.69 47.8402 85.42 47.9102 85.19 48.0402C84.96 48.1702 84.78 48.3602 84.65 48.6102C84.52 48.8602 84.45 49.1502 84.45 49.4802C84.45 49.8102 84.51 50.1002 84.65 50.3502C84.78 50.6002 84.96 50.7902 85.19 50.9202C85.42 51.0502 85.68 51.1202 85.98 51.1202C86.25 51.1202 86.49 51.0602 86.69 50.9502C86.9 50.8302 87.06 50.6602 87.17 50.4202H88.05C87.88 50.8502 87.61 51.1802 87.25 51.4102C86.88 51.6402 86.46 51.7602 85.98 51.7602C85.56 51.7602 85.18 51.6602 84.83 51.4702C84.48 51.2802 84.21 51.0102 84.01 50.6602C83.81 50.3102 83.71 49.9202 83.71 49.4902C83.71 49.0602 83.81 48.6602 84.01 48.3202V48.3002Z" fill="white"/>
<path d="M92.1001 47.25V50.09C92.1001 50.43 92.1901 50.68 92.3701 50.85C92.5501 51.02 92.7901 51.11 93.1101 51.11C93.4301 51.11 93.6801 51.02 93.8601 50.85C94.0401 50.68 94.1301 50.42 94.1301 50.09V47.25H94.8601V50.08C94.8601 50.44 94.7801 50.75 94.6201 51C94.4601 51.25 94.2501 51.44 93.9901 51.56C93.7201 51.68 93.4301 51.75 93.1101 51.75C92.7901 51.75 92.5001 51.69 92.2301 51.56C91.9601 51.43 91.7601 51.25 91.6101 51C91.4601 50.75 91.3801 50.44 91.3801 50.08V47.25H92.1101H92.1001Z" fill="white"/>
<path d="M100.58 51.71L99.55 49.93H98.99V51.71H98.26V47.25H99.8C100.14 47.25 100.43 47.31 100.67 47.43C100.91 47.55 101.08 47.71 101.2 47.91C101.32 48.11 101.38 48.34 101.38 48.58C101.38 48.87 101.3 49.13 101.13 49.37C100.96 49.61 100.7 49.77 100.35 49.85L101.45 51.7H100.58V51.71ZM99 49.34H99.81C100.08 49.34 100.29 49.27 100.43 49.13C100.57 48.99 100.64 48.81 100.64 48.58C100.64 48.35 100.57 48.17 100.43 48.04C100.29 47.91 100.09 47.84 99.81 47.84H99V49.33V49.34Z" fill="white"/>
<path d="M105.51 47.25V51.71H104.78V47.25H105.51Z" fill="white"/>
<path d="M111.82 47.25V47.85H110.63V51.71H109.9V47.85H108.71V47.25H111.82Z" fill="white"/>
<path d="M118.33 47.25L116.86 50.09V51.71H116.13V50.09L114.65 47.25H115.46L116.49 49.44L117.52 47.25H118.33Z" fill="white"/>
<path d="M122.17 50.8301L121.39 52.6001H120.92L121.38 50.8301H122.17Z" fill="white"/>
<path d="M130.15 47.8403V49.1503H131.69V49.7503H130.15V51.1203H131.88V51.7203H129.42V47.2603H131.88V47.8603H130.15V47.8403Z" fill="white"/>
<path d="M138.9 51.71H138.17L135.97 48.38V51.71H135.24V47.25H135.97L138.17 50.57V47.25H138.9V51.71Z" fill="white"/>
<path d="M142.99 51.6002C142.75 51.5002 142.56 51.3502 142.43 51.1502C142.29 50.9602 142.22 50.7302 142.22 50.4802H143C143.02 50.6702 143.09 50.8302 143.23 50.9502C143.36 51.0702 143.55 51.1402 143.8 51.1402C144.05 51.1402 144.25 51.0802 144.39 50.9602C144.53 50.8402 144.6 50.6802 144.6 50.4902C144.6 50.3402 144.56 50.2202 144.47 50.1202C144.38 50.0302 144.27 49.9502 144.14 49.9002C144.01 49.8502 143.83 49.7902 143.6 49.7302C143.31 49.6502 143.07 49.5802 142.89 49.5002C142.71 49.4202 142.55 49.3002 142.43 49.1302C142.3 48.9602 142.24 48.7402 142.24 48.4602C142.24 48.2002 142.3 47.9802 142.43 47.7902C142.56 47.6002 142.74 47.4502 142.97 47.3502C143.2 47.2502 143.47 47.2002 143.77 47.2002C144.2 47.2002 144.56 47.3102 144.83 47.5202C145.11 47.7402 145.26 48.0302 145.29 48.4102H144.48C144.47 48.2502 144.39 48.1102 144.25 47.9902C144.11 47.8702 143.92 47.8202 143.69 47.8202C143.48 47.8202 143.31 47.8702 143.18 47.9802C143.05 48.0902 142.98 48.2402 142.98 48.4402C142.98 48.5802 143.02 48.6902 143.1 48.7802C143.18 48.8702 143.29 48.9402 143.42 48.9902C143.55 49.0402 143.72 49.1002 143.95 49.1602C144.24 49.2402 144.49 49.3202 144.67 49.4002C144.86 49.4802 145.01 49.6102 145.14 49.7802C145.27 49.9502 145.34 50.1702 145.34 50.4602C145.34 50.6902 145.28 50.9002 145.16 51.1002C145.04 51.3002 144.86 51.4602 144.63 51.5802C144.4 51.7002 144.12 51.7602 143.81 51.7602C143.51 51.7602 143.24 51.7102 143 51.6002H142.99Z" fill="white"/>
<path d="M149.4 47.25V50.09C149.4 50.43 149.49 50.68 149.67 50.85C149.85 51.02 150.09 51.11 150.41 51.11C150.73 51.11 150.98 51.02 151.16 50.85C151.34 50.68 151.43 50.42 151.43 50.09V47.25H152.16V50.08C152.16 50.44 152.08 50.75 151.92 51C151.76 51.25 151.55 51.44 151.29 51.56C151.02 51.68 150.73 51.75 150.41 51.75C150.09 51.75 149.8 51.69 149.53 51.56C149.26 51.43 149.06 51.25 148.91 51C148.76 50.75 148.68 50.44 148.68 50.08V47.25H149.41H149.4Z" fill="white"/>
<path d="M157.88 51.71L156.85 49.93H156.29V51.71H155.56V47.25H157.1C157.44 47.25 157.73 47.31 157.97 47.43C158.21 47.55 158.38 47.71 158.5 47.91C158.62 48.11 158.68 48.34 158.68 48.58C158.68 48.87 158.6 49.13 158.43 49.37C158.26 49.61 158 49.77 157.65 49.85L158.75 51.7H157.88V51.71ZM156.3 49.34H157.11C157.38 49.34 157.59 49.27 157.73 49.13C157.87 48.99 157.94 48.81 157.94 48.58C157.94 48.35 157.87 48.17 157.73 48.04C157.59 47.91 157.39 47.84 157.11 47.84H156.3V49.33V49.34Z" fill="white"/>
<path d="M162.81 47.25V51.71H162.08V47.25H162.81Z" fill="white"/>
<path d="M169.9 51.71H169.17L166.97 48.38V51.71H166.24V47.25H166.97L169.17 50.57V47.25H169.9V51.71Z" fill="white"/>
<path d="M176.56 48.53C176.44 48.31 176.28 48.14 176.08 48.03C175.88 47.92 175.64 47.86 175.37 47.86C175.08 47.86 174.81 47.93 174.58 48.06C174.35 48.19 174.17 48.38 174.04 48.62C173.91 48.86 173.84 49.15 173.84 49.47C173.84 49.79 173.9 50.07 174.04 50.32C174.17 50.57 174.35 50.75 174.58 50.89C174.81 51.02 175.07 51.09 175.37 51.09C175.77 51.09 176.09 50.98 176.34 50.76C176.59 50.54 176.74 50.24 176.8 49.86H175.13V49.28H177.59V49.85C177.54 50.2 177.42 50.52 177.22 50.81C177.02 51.1 176.76 51.33 176.44 51.51C176.12 51.68 175.77 51.77 175.38 51.77C174.96 51.77 174.58 51.67 174.23 51.48C173.88 51.29 173.61 51.02 173.41 50.67C173.21 50.32 173.11 49.93 173.11 49.5C173.11 49.07 173.21 48.67 173.41 48.33C173.61 47.98 173.89 47.71 174.24 47.52C174.59 47.33 174.97 47.23 175.38 47.23C175.85 47.23 176.28 47.35 176.65 47.58C177.02 47.81 177.29 48.14 177.45 48.57H176.57L176.56 48.53Z" fill="white"/>
<path d="M187.77 47.25V47.85H186.58V51.71H185.85V47.85H184.66V47.25H187.77Z" fill="white"/>
<path d="M193.29 51.71L192.26 49.93H191.7V51.71H190.97V47.25H192.51C192.85 47.25 193.14 47.31 193.38 47.43C193.62 47.55 193.79 47.71 193.91 47.91C194.03 48.11 194.09 48.34 194.09 48.58C194.09 48.87 194.01 49.13 193.84 49.37C193.67 49.61 193.41 49.77 193.06 49.85L194.16 51.7H193.29V51.71ZM191.71 49.34H192.52C192.79 49.34 193 49.27 193.14 49.13C193.28 48.99 193.35 48.81 193.35 48.58C193.35 48.35 193.28 48.17 193.14 48.04C193 47.91 192.8 47.84 192.52 47.84H191.71V49.33V49.34Z" fill="white"/>
<path d="M198.22 47.25V50.09C198.22 50.43 198.31 50.68 198.49 50.85C198.67 51.02 198.91 51.11 199.23 51.11C199.55 51.11 199.8 51.02 199.98 50.85C200.16 50.68 200.25 50.42 200.25 50.09V47.25H200.98V50.08C200.98 50.44 200.9 50.75 200.74 51C200.58 51.25 200.37 51.44 200.11 51.56C199.84 51.68 199.55 51.75 199.23 51.75C198.91 51.75 198.62 51.69 198.35 51.56C198.08 51.43 197.88 51.25 197.73 51C197.58 50.75 197.5 50.44 197.5 50.08V47.25H198.23H198.22Z" fill="white"/>
<path d="M205.05 51.6002C204.81 51.5002 204.62 51.3502 204.49 51.1502C204.35 50.9602 204.28 50.7302 204.28 50.4802H205.06C205.08 50.6702 205.15 50.8302 205.29 50.9502C205.42 51.0702 205.61 51.1402 205.86 51.1402C206.11 51.1402 206.31 51.0802 206.45 50.9602C206.59 50.8402 206.66 50.6802 206.66 50.4902C206.66 50.3402 206.62 50.2202 206.53 50.1202C206.44 50.0302 206.33 49.9502 206.2 49.9002C206.07 49.8502 205.89 49.7902 205.66 49.7302C205.37 49.6502 205.13 49.5802 204.95 49.5002C204.77 49.4202 204.61 49.3002 204.49 49.1302C204.36 48.9602 204.3 48.7402 204.3 48.4602C204.3 48.2002 204.36 47.9802 204.49 47.7902C204.62 47.6002 204.8 47.4502 205.03 47.3502C205.26 47.2502 205.53 47.2002 205.83 47.2002C206.26 47.2002 206.62 47.3102 206.89 47.5202C207.17 47.7402 207.32 48.0302 207.35 48.4102H206.54C206.53 48.2502 206.45 48.1102 206.31 47.9902C206.17 47.8702 205.98 47.8202 205.75 47.8202C205.54 47.8202 205.37 47.8702 205.24 47.9802C205.11 48.0902 205.04 48.2402 205.04 48.4402C205.04 48.5802 205.08 48.6902 205.16 48.7802C205.24 48.8702 205.35 48.9402 205.48 48.9902C205.61 49.0402 205.78 49.1002 206.01 49.1602C206.3 49.2402 206.55 49.3202 206.73 49.4002C206.92 49.4802 207.07 49.6102 207.2 49.7802C207.33 49.9502 207.4 50.1702 207.4 50.4602C207.4 50.6902 207.34 50.9002 207.22 51.1002C207.1 51.3002 206.92 51.4602 206.69 51.5802C206.46 51.7002 206.18 51.7602 205.87 51.7602C205.57 51.7602 205.3 51.7102 205.06 51.6002H205.05Z" fill="white"/>
<path d="M213.6 47.25V47.85H212.41V51.71H211.68V47.85H210.49V47.25H213.6Z" fill="white"/>
<path d="M32.5801 25.97C33.6201 22.5 33.94 18.52 32.57 10.93L20.8701 6V9.58H20.8601V35.17C21.32 35.43 23.23 34.84 23.23 34.84C20.64 36.72 17.99 38.53 17.89 38.59C17.8 38.53 15.15 36.71 12.55 34.84C12.55 34.84 14.46 35.43 14.93 35.17V9.57H14.91V6L3.20005 10.92C1.82005 18.49 2.14005 22.46 3.17005 25.93C1.37005 22.39 -0.12995 16.9 5.0039e-05 8.44C5.0039e-05 8.44 10.62 4.95 17.88 0C25.14 4.95 35.75 8.44 35.75 8.44C35.89 16.93 34.3801 22.43 32.57 25.96L32.5801 25.97Z" fill="url(#paint0_linear_47_4457)"/>
<path d="M3.20007 10.9202L14.9001 5.99023V9.57023L6.21007 13.2502C6.21007 13.2502 3.64007 22.5502 8.84007 31.9802C8.68007 31.9202 5.63007 30.7702 3.17007 25.9102C2.14007 22.4402 1.82007 18.4702 3.20007 10.9002V10.9202Z" fill="#2E449C"/>
<path d="M32.5801 25.9702C32.5801 25.9702 32.5801 25.9702 32.5801 25.9802C30.1101 30.7902 27.0901 31.9402 26.9301 31.9902C32.1401 22.5502 29.5601 13.2602 29.5601 13.2602L20.8701 9.57023V5.99023L32.5701 10.9202C33.9501 18.5202 33.6201 22.5002 32.5801 25.9602V25.9702Z" fill="#2E449C"/>
<path d="M40.1101 8.2002H59.1701V13.2102H45.5901V21.7802L57.1701 21.7402V26.6602H45.5901V33.6702H59.1701V38.6802H40.1101V8.2002Z" fill="white"/>
<path d="M63.53 8.2002H67.8L77.72 24.0002L87.69 8.2002H91.96V38.6702H86.52L86.48 19.6102L77.77 33.0202L69.02 19.6102V38.6702H63.54V8.2002H63.53Z" fill="white"/>
<path d="M106.49 8.2002C107.8 8.2002 108.99 8.3902 110.06 8.7702C111.13 9.1502 112.05 9.6802 112.8 10.3602C113.55 11.0402 114.14 11.8602 114.56 12.8002C114.98 13.7402 115.19 14.7702 115.19 15.8702C115.19 17.3502 114.84 18.6602 114.15 19.7902C113.46 20.9202 112.51 21.7302 111.32 22.2302C112.25 22.4602 113.09 22.8302 113.84 23.3402C114.59 23.8502 115.25 24.4602 115.8 25.1702C116.35 25.8802 116.77 26.6702 117.06 27.5402C117.35 28.4102 117.5 29.3202 117.5 30.2802C117.5 31.5302 117.25 32.6702 116.76 33.7002C116.27 34.7302 115.58 35.6202 114.69 36.3602C113.8 37.1002 112.73 37.6702 111.47 38.0802C110.21 38.4902 108.81 38.6902 107.27 38.6902H96.4802V8.2002H106.49ZM102.01 20.6502H105.36C106.75 20.6502 107.86 20.2802 108.67 19.5402C109.48 18.8002 109.89 17.8202 109.89 16.6002C109.89 15.3802 109.48 14.4002 108.67 13.6602C107.86 12.9202 106.75 12.5502 105.36 12.5502H102.01V20.6502ZM106.36 34.3202C108.01 34.3202 109.35 33.8902 110.36 33.0402C111.38 32.1802 111.88 31.0302 111.88 29.5802C111.88 28.1302 111.36 26.9602 110.34 26.0802C109.31 25.2002 107.95 24.7502 106.27 24.7502H102V34.3302H106.35L106.36 34.3202Z" fill="white"/>
<path d="M121.16 8.2002H126.64L126.68 27.1802C126.68 28.2202 126.85 29.1702 127.18 30.0102C127.51 30.8502 127.98 31.5802 128.57 32.1902C129.16 32.8002 129.88 33.2702 130.7 33.6002C131.53 33.9302 132.45 34.1002 133.46 34.1002C135.52 34.1002 137.17 33.4702 138.4 32.2102C139.63 30.9502 140.25 29.2702 140.25 27.1802V8.2002H145.73V26.7002C145.73 28.5602 145.44 30.2502 144.86 31.7702C144.28 33.2902 143.45 34.6002 142.38 35.6902C141.31 36.7802 140.01 37.6202 138.51 38.2102C137.01 38.8002 135.32 39.1002 133.46 39.1002C131.6 39.1002 129.92 38.8002 128.41 38.2102C126.9 37.6202 125.61 36.7702 124.54 35.6902C123.47 34.6002 122.63 33.3002 122.04 31.7702C121.44 30.2502 121.15 28.5602 121.15 26.7002V8.2002H121.16Z" fill="white"/>
<path d="M160.38 7.72021C161.4 7.72021 162.46 7.84021 163.58 8.07021C164.7 8.30021 165.8 8.62021 166.89 9.03021C167.98 9.44021 169.03 9.93022 170.05 10.5102C171.07 11.0902 171.99 11.7302 172.84 12.4302L170.32 16.7002C169.77 16.1502 169.11 15.6302 168.34 15.1502C167.57 14.6702 166.75 14.2502 165.88 13.8902C165.01 13.5302 164.12 13.2402 163.22 13.0402C162.32 12.8402 161.48 12.7402 160.7 12.7402C159.66 12.7402 158.79 12.9302 158.11 13.3102C157.43 13.6902 157 14.2402 156.83 14.9602C156.66 15.4802 156.71 16.0402 156.98 16.6402C157.26 17.2402 157.8 17.7602 158.61 18.2302L168.06 23.4502C169.68 24.2902 170.86 25.3302 171.59 26.5602C172.32 27.7902 172.68 29.1902 172.68 30.7602C172.68 32.0402 172.45 33.1902 171.98 34.2202C171.52 35.2502 170.85 36.1302 169.98 36.8502C169.11 37.5802 168.06 38.1302 166.85 38.5302C165.64 38.9302 164.27 39.1202 162.76 39.1202C161.54 39.1202 160.31 39.0002 159.06 38.7502C157.81 38.5002 156.62 38.1502 155.47 37.6802C154.32 37.2202 153.26 36.6602 152.27 36.0302C151.28 35.3902 150.43 34.6802 149.7 33.9002L151.83 29.2902C152.41 29.9302 153.08 30.5202 153.83 31.0702C154.58 31.6202 155.39 32.1102 156.25 32.5502C157.11 32.9902 157.99 33.3502 158.91 33.6402C159.82 33.9302 160.72 34.1302 161.59 34.2502C163.16 34.4202 164.43 34.3002 165.42 33.8802C166.41 33.4602 167 32.7402 167.2 31.7302C167.46 30.1602 166.63 28.8302 164.72 27.7302L155.1 22.2902C153.5 21.3902 152.44 20.3602 151.9 19.2002C151.36 18.0402 151.09 16.9102 151.09 15.8002C151.09 14.6102 151.33 13.5202 151.81 12.5402C152.29 11.5502 152.94 10.7102 153.77 9.99021C154.6 9.28021 155.58 8.73022 156.71 8.34022C157.84 7.95022 159.07 7.75022 160.41 7.75022L160.38 7.72021Z" fill="white"/>
<path d="M178.62 8.2002H184.1V38.6702H178.62V8.2002Z" fill="white"/>
<path d="M190.85 8.2002H195.46L208.13 28.0502V8.2002H213.66V38.6702H209.09L196.34 18.8202V38.6702H190.86V8.2002H190.85Z" fill="white"/>
</g>
<defs>
<linearGradient id="paint0_linear_47_4457" x1="9.36005" y1="5.54" x2="36.75" y2="37.11" gradientUnits="userSpaceOnUse">
<stop offset="0.06" stop-color="#46A7DE"/>
<stop offset="0.63" stop-color="#3E5CAA"/>
<stop offset="1" stop-color="#2E449C"/>
</linearGradient>
<clipPath id="clip0_47_4457">
<rect width="213.65" height="52.6" fill="white"/>
</clipPath>
</defs>
</svg>
