<svg width="94" height="124" viewBox="0 0 94 124" fill="none" xmlns="http://www.w3.org/2000/svg">
<g id="Layer_1" clip-path="url(#clip0_20_14313)">
<path id="Vector" d="M56.2369 109.222C55.796 108.128 55.1101 107.116 54.1996 106.205C52.3502 104.384 50.1537 103.47 47.598 103.47C45.0422 103.47 42.8049 104.384 40.9963 106.205C39.1632 108.022 38.2568 110.235 38.2568 112.803C38.2568 115.371 39.1632 117.588 40.9963 119.413C42.8049 121.237 45.0136 122.144 47.598 122.144C50.1823 122.144 52.3502 121.237 54.1996 119.413C56.0205 117.612 56.935 115.412 56.935 112.803C56.9228 111.521 56.6941 110.329 56.2369 109.222ZM52.9912 115.064C52.6768 115.775 52.2645 116.395 51.7337 116.926C51.207 117.461 50.5906 117.882 49.8761 118.2C49.1698 118.502 48.4104 118.665 47.598 118.665C46.7855 118.665 46.0098 118.502 45.2913 118.2C44.5727 117.882 43.9685 117.465 43.4459 116.934C42.9192 116.404 42.511 115.791 42.2007 115.077C41.8904 114.366 41.7475 113.611 41.7475 112.803C41.7475 111.994 41.8904 111.247 42.2007 110.537C42.511 109.831 42.9192 109.206 43.4459 108.679C43.9726 108.153 44.5727 107.736 45.2913 107.422C46.0098 107.111 46.7692 106.952 47.598 106.952C48.4267 106.952 49.1698 107.111 49.8761 107.422C50.5906 107.736 51.207 108.157 51.7337 108.691C52.2645 109.222 52.6768 109.843 52.9912 110.553C53.3014 111.255 53.4484 112.007 53.4484 112.803C53.4484 113.599 53.3014 114.366 52.9912 115.064Z" fill="#1E1E1E"/>
<path id="Vector_2" d="M60.5359 120.397V105.225C60.5359 104.736 60.6951 104.315 61.0381 103.976C61.3769 103.637 61.7811 103.466 62.2669 103.466C62.7528 103.466 63.1529 103.633 63.4958 103.976C63.8306 104.315 64.0062 104.736 64.0184 105.225V120.397C64.0062 120.882 63.8306 121.295 63.4958 121.638C63.157 121.977 62.7446 122.144 62.2669 122.144C61.7893 122.144 61.3769 121.977 61.0381 121.638C60.6951 121.295 60.5359 120.878 60.5359 120.397Z" fill="#1E1E1E"/>
<path id="Vector_3" d="M71.0692 105.188C72.5512 104.041 74.2863 103.47 76.2909 103.47C77.4626 103.47 78.569 103.702 79.6183 104.151C80.6675 104.609 81.5902 105.233 82.3986 106.009C83.1988 106.793 83.8316 107.72 84.297 108.777C84.7583 109.839 84.9992 110.974 84.9992 112.174V120.392C84.9992 120.878 84.8277 121.29 84.4889 121.633C84.1419 121.972 83.7377 122.14 83.2682 122.14C82.7701 122.14 82.3659 121.972 82.0189 121.633C81.68 121.29 81.5126 120.874 81.5126 120.392V112.174C81.5126 111.463 81.3697 110.786 81.088 110.157C80.8186 109.52 80.4389 108.973 79.9694 108.499C79.4958 108.022 78.9446 107.65 78.3118 107.369C77.6708 107.091 77.0054 106.952 76.2909 106.952C75.5764 106.952 74.8946 107.091 74.27 107.364C73.6372 107.634 73.086 108.014 72.6083 108.491C72.1266 108.965 71.751 109.524 71.4856 110.157C71.2162 110.79 71.0733 111.463 71.0733 112.174V120.392C71.0733 120.878 70.9018 121.29 70.5711 121.633C70.2282 121.972 69.8199 122.14 69.3463 122.14C68.8727 122.14 68.4359 121.972 68.1011 121.633C67.7581 121.29 67.5867 120.874 67.5867 120.392V105.221C67.5867 104.739 67.7581 104.323 68.1011 103.98C68.4359 103.637 68.8523 103.461 69.3463 103.461C69.8403 103.461 70.2282 103.633 70.5711 103.98C70.9059 104.323 71.0733 104.731 71.0733 105.18" fill="#1E1E1E"/>
<path id="Vector_4" d="M33.9538 119.335C33.3781 119.274 32.7943 119.159 32.2431 118.996C29.7568 118.245 27.7359 116.55 26.5601 114.236C26.0906 113.305 24.9556 112.933 24.0247 113.407C23.098 113.876 22.7264 115.011 23.2 115.938C23.5471 116.616 23.9512 117.24 24.3881 117.837C23.7471 117.975 23.0898 118.049 22.4243 118.049C17.2353 118.049 13.0097 113.827 13.0097 108.642C13.0097 103.457 17.2312 99.2359 22.4243 99.2359C27.6175 99.2359 31.8226 103.449 31.8226 108.642C31.8226 110.708 31.1735 112.66 29.9323 114.305C29.3077 115.126 29.4751 116.314 30.3039 116.934C31.1408 117.563 32.3207 117.4 32.9454 116.563C34.6805 114.268 35.595 111.525 35.595 108.642C35.595 101.383 29.6833 95.4717 22.4243 95.4717C15.1654 95.4717 9.25366 101.383 9.25366 108.642C9.25366 115.901 15.1654 121.813 22.4243 121.813C24.0615 121.813 25.6619 121.519 27.1725 120.931C27.2664 120.894 27.348 120.845 27.4256 120.801C28.5565 121.584 29.8139 122.193 31.1612 122.597C31.9369 122.83 32.729 122.989 33.5333 123.079C33.5945 123.091 33.668 123.091 33.7415 123.091C34.6886 123.091 35.5011 122.381 35.6032 121.413C35.7216 120.384 34.9744 119.453 33.9456 119.339" fill="#1E1E1E"/>
<path id="Vector_5" d="M64.3124 100.154C64.3124 100.722 64.1205 101.204 63.7163 101.604C63.3203 102.008 62.8304 102.208 62.267 102.208C61.7036 102.208 61.2177 102.008 60.8135 101.604C60.4216 101.204 60.2134 100.726 60.2134 100.154C60.2134 99.5829 60.4175 99.1011 60.8135 98.701C61.2177 98.3009 61.6954 98.105 62.267 98.105C62.8385 98.105 63.3203 98.3009 63.7163 98.701C64.1205 99.1011 64.3124 99.5911 64.3124 100.154Z" fill="#FFDE17"/>
<path id="Vector_6" d="M47.1244 0.90918C21.5506 0.90918 0.745361 21.7144 0.745361 47.2841C0.745361 72.8538 21.5506 93.6632 47.1244 93.6632C72.6982 93.6632 93.5034 72.8579 93.5034 47.2841C93.5034 21.7103 72.6982 0.90918 47.1244 0.90918ZM47.1244 91.9403C22.5019 91.9403 2.46824 71.9107 2.46824 47.2841C2.46824 22.6575 22.5019 2.62798 47.1244 2.62798C71.7469 2.62798 91.7806 22.6616 91.7806 47.2841C91.7806 71.9067 71.7469 91.9403 47.1244 91.9403Z" fill="url(#paint0_linear_20_14313)"/>
<g id="Group">
<path id="Vector_7" d="M73.9066 80.1415C83.0599 73.005 89.4329 60.0752 89.4329 47.2842C89.4329 23.9559 70.4567 4.97559 47.1284 4.97559C23.8001 4.97559 4.81567 23.96 4.81567 47.2883C4.81567 70.6166 23.7919 89.5969 47.1243 89.5969C55.1141 89.5969 62.5935 87.3678 68.9829 83.4974C66.5169 81.1131 63.1569 79.6597 59.5152 79.6597H30.1037C21.7138 79.6597 14.8917 72.8335 14.8917 64.4477V30.4024C14.8917 22.0125 21.7138 15.1863 30.1037 15.1863H64.1449C72.5348 15.1863 79.3569 22.0125 79.3569 30.4024V64.4477C79.3569 68.6039 77.5932 72.5396 74.572 75.4097C74.6169 76.4916 74.6006 76.7488 74.4618 77.7368C74.2822 79.0473 73.9066 80.1456 73.9066 80.1456V80.1415Z" fill="#FFCB1F"/>
<path id="Vector_8" d="M39.4122 78.0428H30.1037C22.608 78.0428 16.5044 71.9433 16.5044 64.4435V46.5165C16.5044 40.7763 20.0767 35.8608 25.1188 33.8643C25.5067 33.7133 25.9068 33.5704 26.3273 33.4438C26.7192 33.3377 27.1152 33.2356 27.5194 33.158C28.3564 32.9947 29.2178 32.9131 30.1037 32.9131H31.006V64.4435C31.006 64.7334 31.0223 65.0191 31.0387 65.3049C31.0387 65.3457 31.0387 65.3825 31.0428 65.4233C31.0509 65.5172 31.0591 65.607 31.0591 65.6928C31.0836 65.9581 31.1122 66.2235 31.1489 66.4848C31.1612 66.5501 31.1652 66.6114 31.1775 66.6767C31.2183 66.9911 31.2795 67.3054 31.3449 67.6157C31.3449 67.632 31.3449 67.6443 31.3449 67.6606C31.3612 67.7219 31.3775 67.779 31.3898 67.8362C31.4429 68.0811 31.5123 68.3302 31.5776 68.5711C31.5939 68.6486 31.6225 68.7303 31.6429 68.8078C31.7368 69.11 31.8266 69.408 31.9409 69.702C31.9573 69.7346 31.9695 69.7714 31.9858 69.804C32.0838 70.0694 32.1859 70.3225 32.2961 70.5797C32.337 70.6573 32.3737 70.7349 32.4023 70.8124C32.5207 71.0615 32.6432 71.3146 32.7779 71.5555C32.7942 71.5922 32.8065 71.6167 32.8228 71.6575C32.9698 71.927 33.1249 72.1965 33.2923 72.4577C33.3331 72.5231 33.3699 72.5925 33.4148 72.6537C33.5495 72.8701 33.6924 73.0742 33.8353 73.2743C33.8761 73.3314 33.921 73.3927 33.9496 73.4458C34.1456 73.6948 34.3252 73.9438 34.5253 74.1766C34.5579 74.2174 34.6069 74.2623 34.6355 74.299C34.8111 74.4991 34.9825 74.695 35.1581 74.8788C35.2112 74.94 35.2683 74.9931 35.3214 75.0584C35.7582 75.5034 36.2114 75.9158 36.7013 76.3036C36.7666 76.3567 36.8238 76.4057 36.8932 76.4506C37.0892 76.6098 37.3015 76.765 37.5138 76.9078C37.5546 76.9487 37.6036 76.9813 37.6526 77.0181C37.8975 77.1896 38.1629 77.3569 38.4324 77.5121C38.4854 77.5529 38.5549 77.5856 38.6161 77.6182C38.8325 77.7407 39.0529 77.8591 39.2693 77.9775C39.3183 78.002 39.3591 78.0306 39.404 78.051L39.4122 78.0428Z" fill="url(#paint1_linear_20_14313)"/>
<path id="Vector_9" d="M61.626 30.3983V31.3047H30.0997C29.769 31.3047 29.4424 31.3169 29.1117 31.3414C29.0586 31.3414 29.0178 31.3414 28.9647 31.3496C28.9239 31.3496 28.8871 31.3577 28.8381 31.3577C28.5727 31.3782 28.3155 31.4108 28.0542 31.4394C27.993 31.4557 27.9277 31.4557 27.8664 31.468C27.8338 31.4721 27.8011 31.4802 27.7766 31.4843C27.4868 31.5251 27.201 31.5741 26.9233 31.6354C26.8499 31.6517 26.7764 31.668 26.7029 31.6884C26.6621 31.7007 26.6253 31.7129 26.5763 31.717C26.3681 31.7701 26.1681 31.8191 25.9639 31.8762C25.8864 31.8966 25.8169 31.9211 25.7394 31.9456C25.425 32.0314 25.1351 32.1294 24.8371 32.2396C24.8044 32.2559 24.7677 32.2682 24.735 32.2804C24.4697 32.3825 24.2165 32.4886 23.9593 32.6029C23.8899 32.6356 23.8083 32.6683 23.7266 32.705C23.4776 32.8234 23.2285 32.9459 22.9795 33.0765C22.955 33.0929 22.9142 33.1051 22.8897 33.1214C22.6121 33.2684 22.3508 33.4276 22.0772 33.591C22.0201 33.6359 21.9507 33.6726 21.8935 33.7134C21.6812 33.8522 21.473 33.9951 21.2729 34.1421C21.2158 34.1789 21.1505 34.2238 21.0974 34.2605C20.8524 34.4442 20.6075 34.6361 20.3707 34.828C20.3298 34.8688 20.289 34.9056 20.2482 34.9382C20.0481 35.1056 19.8603 35.2812 19.6725 35.4567C19.6113 35.5139 19.5541 35.571 19.4929 35.6282C19.0479 36.0569 18.6274 36.5141 18.2436 36.9959C18.1905 37.0653 18.1415 37.1225 18.0966 37.1919C17.9374 37.396 17.7904 37.6001 17.6394 37.8083C17.6067 37.8573 17.57 37.9063 17.5373 37.9553C17.3658 38.2084 17.1984 38.4697 17.0392 38.7392C17.0025 38.7963 16.9698 38.8576 16.929 38.9229C16.8065 39.1352 16.684 39.3557 16.5738 39.5802C16.5575 39.6251 16.5248 39.666 16.5044 39.7109V30.4065C16.5044 22.9066 22.608 16.8071 30.1037 16.8071H48.0348C49.4351 16.8071 50.7906 17.0194 52.0685 17.4195C52.4931 17.5502 52.9095 17.7012 53.3137 17.8768C53.922 18.134 54.5181 18.4402 55.0733 18.7791C57.576 20.3019 59.5438 22.6086 60.6502 25.3521C60.8054 25.7482 60.9401 26.1523 61.0707 26.5688C61.1932 26.9648 61.2912 27.369 61.3688 27.7813C61.5402 28.6346 61.626 29.5124 61.626 30.4065V30.3983Z" fill="url(#paint2_linear_20_14313)"/>
<path id="Vector_10" d="M77.7484 30.3984V64.4437C77.7484 67.7874 76.4868 71.0127 74.2781 73.499C74.27 73.446 74.2455 73.397 74.2373 73.3398C74.1761 73.1194 74.1189 72.8907 74.0495 72.6662C74.0291 72.5804 73.9964 72.4906 73.9678 72.4049C73.878 72.1395 73.78 71.8905 73.6902 71.6292C73.6453 71.5149 73.5922 71.4087 73.5514 71.2944C73.4861 71.1393 73.4208 70.9841 73.3514 70.8331C73.286 70.7024 73.233 70.5759 73.1636 70.4411C73.0942 70.2942 73.0166 70.1553 72.9472 70.0084C72.8165 69.7838 72.6941 69.5511 72.5552 69.3266C72.5226 69.2735 72.494 69.2204 72.4654 69.1714C71.0855 66.9545 69.1748 65.1092 66.8803 63.8354C66.6395 63.7047 66.4068 63.5741 66.1536 63.4557C65.9005 63.3332 65.6392 63.2148 65.3779 63.1046C65.235 63.0433 65.0881 62.9903 64.9411 62.9331C64.8839 62.9045 64.8186 62.8923 64.7574 62.8678C64.492 62.7657 64.2185 62.6718 63.9449 62.5902C63.7816 62.5371 63.606 62.4881 63.4305 62.4432C63.3652 62.4228 63.308 62.4024 63.2468 62.382V30.3902C63.2468 30.0554 63.2264 29.7288 63.2141 29.4063C63.2019 29.3491 63.2019 29.2961 63.2019 29.2348C63.2019 29.2063 63.1978 29.1695 63.1855 29.1328C63.161 28.8674 63.1406 28.602 63.1039 28.3407C63.0916 28.2795 63.0876 28.2142 63.0753 28.1488C63.059 28.1121 63.059 28.0713 63.059 28.0264C63.0141 27.7528 62.9692 27.4793 62.9038 27.2098C62.8875 27.1363 62.8712 27.0629 62.8548 26.9894C62.8426 26.9363 62.8263 26.8791 62.814 26.8301C62.765 26.6342 62.7201 26.4382 62.667 26.2504C62.6425 26.1728 62.6221 26.0912 62.5976 26.0177C62.5078 25.7156 62.4139 25.4175 62.3037 25.1236C62.2914 25.0868 62.2751 25.0583 62.2629 25.0215C62.1649 24.7643 62.0628 24.503 61.9444 24.2499C61.9117 24.1723 61.8791 24.0907 61.8342 24.0172C61.728 23.7681 61.6015 23.5191 61.4708 23.2701C61.4504 23.2415 61.4382 23.2047 61.4218 23.1721C61.2708 22.8985 61.1115 22.6332 60.9523 22.3678C60.9115 22.3025 60.8625 22.2453 60.8217 22.1718C60.6869 21.9636 60.5481 21.7554 60.4012 21.5513C60.3644 21.4982 60.3236 21.4369 60.2787 21.3839C60.1072 21.1348 59.9072 20.8899 59.7153 20.6572C59.6744 20.6163 59.6377 20.5673 59.601 20.5306C59.4295 20.3346 59.2621 20.1427 59.0865 19.9549C59.0335 19.8937 58.9763 19.8365 58.9232 19.7712C58.4905 19.3303 58.0251 18.9179 57.5433 18.5342C57.4821 18.4811 57.4208 18.428 57.3514 18.375C57.1514 18.2198 56.9431 18.0728 56.7349 17.9177C56.69 17.8891 56.641 17.8483 56.588 17.8156C56.3389 17.6401 56.0776 17.4808 55.8123 17.3216C55.7469 17.2849 55.6938 17.2441 55.6285 17.2073C55.4081 17.0889 55.1958 16.9664 54.9753 16.8562C54.9345 16.8358 54.8855 16.8072 54.8406 16.7827H64.145C71.6407 16.7827 77.7525 22.8822 77.7525 30.3821L77.7484 30.3984Z" fill="url(#paint3_linear_20_14313)"/>
<path id="Vector_11" d="M70.3669 82.6237C67.701 79.574 63.7367 78.043 59.5152 78.043H46.218C40.3757 78.043 35.3745 74.3278 33.4556 69.1346C33.3127 68.7508 33.1861 68.3467 33.0841 67.9425C32.9779 67.5505 32.8881 67.1586 32.8228 66.7544C32.6921 66.0032 32.6187 65.2316 32.6187 64.4396V63.5332H59.5152C60.491 63.5332 61.4504 63.6434 62.3772 63.8435C62.6548 63.9088 62.9447 63.9741 63.2223 64.0517C63.3203 64.0803 63.4183 64.117 63.5122 64.1456C63.6836 64.1987 63.8633 64.2599 64.0307 64.3171C64.0919 64.3334 64.145 64.3579 64.2021 64.3783C64.3654 64.4436 64.5369 64.5008 64.6961 64.5743C64.7819 64.6151 64.8798 64.6478 64.9615 64.6886C64.9737 64.6968 64.9982 64.7049 65.0023 64.7131C65.2595 64.8274 65.5127 64.9499 65.7576 65.0724C67.5826 66.0236 69.1666 67.375 70.4078 69.0121C70.4323 69.053 70.4608 69.0938 70.4935 69.1387C70.6527 69.3592 70.7997 69.5837 70.9548 69.8164C71.0202 69.9185 71.0977 70.0165 71.1549 70.1267C71.2325 70.2573 71.3019 70.3839 71.3794 70.5105C71.4897 70.7228 71.5999 70.9269 71.7101 71.1433C71.7551 71.2372 71.8 71.3311 71.8326 71.4291C71.9347 71.6291 72.0245 71.8333 72.1102 72.0374C72.1347 72.1068 72.1633 72.1762 72.1878 72.2456C72.294 72.511 72.3838 72.7845 72.4736 73.0581C72.494 73.1275 72.5144 73.205 72.5389 73.2785C72.6247 73.5602 72.7063 73.8419 72.7676 74.1359C72.7798 74.1971 72.7961 74.2584 72.8084 74.3196C72.8696 74.6217 72.9227 74.9238 72.9758 75.2382V75.2464C73.2779 80.6559 70.3629 82.6196 70.3629 82.6196L70.3669 82.6237Z" fill="url(#paint4_linear_20_14313)"/>
</g>
</g>
<defs>
<linearGradient id="paint0_linear_20_14313" x1="22.3794" y1="8.07425" x2="71.8694" y2="86.4981" gradientUnits="userSpaceOnUse">
<stop stop-color="#FFC927"/>
<stop offset="0.15" stop-color="#FFD220"/>
<stop offset="0.27" stop-color="#FFDE17"/>
<stop offset="0.35" stop-color="#FED41C"/>
<stop offset="0.57" stop-color="#FDC027"/>
<stop offset="0.78" stop-color="#FCB42E"/>
<stop offset="1" stop-color="#FCB131"/>
</linearGradient>
<linearGradient id="paint1_linear_20_14313" x1="19.9379" y1="80.7619" x2="33.5495" y2="47.1452" gradientUnits="userSpaceOnUse">
<stop stop-color="#FFDE17"/>
<stop offset="0.4" stop-color="#FEDB18"/>
<stop offset="0.64" stop-color="#FED31D"/>
<stop offset="0.83" stop-color="#FDC525"/>
<stop offset="1" stop-color="#FCB131"/>
</linearGradient>
<linearGradient id="paint2_linear_20_14313" x1="14.1201" y1="24.3519" x2="52.2808" y2="32.2518" gradientUnits="userSpaceOnUse">
<stop stop-color="#FFDE17"/>
<stop offset="0.4" stop-color="#FEDB18"/>
<stop offset="0.64" stop-color="#FED31D"/>
<stop offset="0.83" stop-color="#FDC525"/>
<stop offset="1" stop-color="#FCB131"/>
</linearGradient>
<linearGradient id="paint3_linear_20_14313" x1="66.1781" y1="22.1351" x2="70.0322" y2="59.3853" gradientUnits="userSpaceOnUse">
<stop stop-color="#FFDE17"/>
<stop offset="0.4" stop-color="#FEDB18"/>
<stop offset="0.64" stop-color="#FED31D"/>
<stop offset="0.83" stop-color="#FDC525"/>
<stop offset="1" stop-color="#FCB131"/>
</linearGradient>
<linearGradient id="paint4_linear_20_14313" x1="72.2123" y1="79.1984" x2="39.9266" y2="65.1785" gradientUnits="userSpaceOnUse">
<stop stop-color="#FFDE17"/>
<stop offset="0.4" stop-color="#FEDB18"/>
<stop offset="0.64" stop-color="#FED31D"/>
<stop offset="0.83" stop-color="#FDC525"/>
<stop offset="1" stop-color="#FCB131"/>
</linearGradient>
<clipPath id="clip0_20_14313">
<rect width="92.7581" height="122.182" fill="white" transform="translate(0.745361 0.90918)"/>
</clipPath>
</defs>
</svg>
