<svg width="128" height="128" viewBox="0 0 128 128" fill="none" xmlns="http://www.w3.org/2000/svg">
<g id="Horizontal">
<g id="Group 33">
<circle id="bg" cx="63.9552" cy="38.9372" r="36.028" fill="black"/>
<g id="Vector">
<path fill-rule="evenodd" clip-rule="evenodd" d="M27.9272 38.9341C27.9272 58.8004 44.0886 74.9652 63.9552 74.9652C83.8219 74.9652 99.9832 58.7942 99.9832 38.9341C99.9832 19.074 83.8219 2.90918 63.9552 2.90918C44.0886 2.90918 27.9272 19.0678 27.9272 38.9341ZM29.2676 38.9403C29.2676 19.818 44.8273 4.25573 63.9552 4.25573V4.24958C83.0832 4.24958 98.6429 19.8057 98.6429 38.9341C98.6429 58.0625 83.0951 73.6248 63.9552 73.6248C44.8154 73.6248 29.2676 58.0625 29.2676 38.9403Z" fill="url(#paint0_linear_20_14302)"/>
<path d="M66.6716 46.4047V47.2532H67.2673C67.2673 46.9704 67.2673 46.6875 67.2673 46.4047H66.6716Z" fill="url(#paint1_linear_20_14302)"/>
<path d="M63.6514 46.3924H64.0446C64.1118 46.4018 64.1799 46.4018 64.2471 46.3924V44.6831H63.6514V46.4047V46.3924Z" fill="url(#paint2_linear_20_14302)"/>
<path d="M63.6514 44.6708V43.8161H63.0557C63.0535 43.7957 63.0535 43.7751 63.0557 43.7546C63.0557 43.2013 63.0557 42.6479 63.0557 42.0945H62.46V43.8161H61.8643V44.6769H62.2694C62.3348 44.6708 62.4006 44.6708 62.466 44.6769V45.5255H63.0617V44.9536C63.056 44.8574 63.056 44.7609 63.0617 44.6646H63.6574L63.6514 44.6708Z" fill="url(#paint3_linear_20_14302)"/>
<path d="M59.41 40.791V39.9425C59.41 39.8011 59.41 39.6535 59.41 39.5059H60.0236C60.0203 39.4856 60.0203 39.4648 60.0236 39.4444V38.7374C60.0236 38.7374 60.0236 38.6882 60.0236 38.6697H61.215V41.3382C61.215 41.4674 61.215 41.5965 61.215 41.7256C61.215 41.8547 61.215 41.9715 61.215 42.0945H62.4064V40.4405C62.4064 40.4405 62.4064 40.3913 62.4064 40.3667H61.8107C61.7958 40.0821 61.7958 39.7968 61.8107 39.5121H62.4064C62.4064 39.549 62.4064 39.5859 62.4064 39.6166V40.2315C62.4064 40.2684 62.4064 40.3053 62.4064 40.336H63.0021V41.9408C63.0021 41.9777 63.0021 42.0146 63.0021 42.0515H63.5978V41.203H64.1935V40.3483H63.5978V39.4875H63.0021C63.0021 39.3953 63.0021 39.303 63.0021 39.2108V38.6328H62.4064V37.7659H59.41V38.6144C59.3411 38.627 59.2705 38.627 59.2015 38.6144H58.8084C58.8054 38.6512 58.8054 38.6882 58.8084 38.7251V41.1845H59.4041L59.41 40.791Z" fill="url(#paint4_linear_20_14302)"/>
<path d="M58.2008 38.6451H58.7965V37.7966H59.3922V36.9419H60.3036C60.4027 36.9511 60.5024 36.9511 60.6014 36.9419V36.0873H58.2186V36.9358H57.5872V37.7905H58.1829L58.2008 38.6451Z" fill="url(#paint5_linear_20_14302)"/>
<path d="M70.913 37.772V36.9296H69.7216V37.7843C70.1186 37.8046 70.5165 37.8005 70.913 37.772Z" fill="url(#paint6_linear_20_14302)"/>
<path d="M60.6134 40.3544V39.5121H60.0236C60.0207 39.5407 60.0207 39.5695 60.0236 39.5982V40.3298C60.0236 40.3298 60.0236 40.3298 60.0236 40.379C60.2205 40.3927 60.4182 40.3844 60.6134 40.3544Z" fill="url(#paint7_linear_20_14302)"/>
<path d="M62.4362 36.0688H61.8405C61.8405 36.2164 61.8405 36.8497 61.8405 36.9174H62.4362V36.0688Z" fill="url(#paint8_linear_20_14302)"/>
<path d="M57.5932 40.3667H58.1889V39.5244H57.5932V40.3667Z" fill="url(#paint9_linear_20_14302)"/>
<path d="M63.6514 47.2471C63.6514 46.9704 63.6514 46.6937 63.6514 46.4109H63.0557V47.2655H63.6157L63.6514 47.2471Z" fill="url(#paint10_linear_20_14302)"/>
<path d="M69.0068 41.2337H68.4885V42.0945H69.0842C69.0842 41.8178 69.0842 41.535 69.0842 41.2398L69.0068 41.2337Z" fill="url(#paint11_linear_20_14302)"/>
<path d="M70.3173 42.0945H70.9428C70.9399 42.0597 70.9399 42.0248 70.9428 41.99V41.3751C70.9428 41.3382 70.9428 41.3075 70.9428 41.2706H70.3471C70.2995 41.369 70.3054 42.0207 70.3173 42.0945Z" fill="url(#paint12_linear_20_14302)"/>
<path d="M62.9485 36.0688H63.0379V36.9174C62.9708 36.9293 62.9023 36.9293 62.8353 36.9174H62.4422C62.4422 37.2063 62.4422 37.4892 62.4422 37.7782H63.6336V36.9235H64.2293V36.0627H63.6336V35.2019H62.4422V36.0627L62.9485 36.0688Z" fill="url(#paint13_linear_20_14302)"/>
<path d="M60.0236 41.2398C60.0236 41.2398 60.0236 41.2398 60.0236 41.2767C60.0236 41.5473 60.0236 41.8178 60.0236 42.0884H60.6193C60.6193 41.8055 60.6193 41.5227 60.6193 41.2398H60.0236Z" fill="url(#paint14_linear_20_14302)"/>
<path d="M69.0961 48.1263V48.9748H69.6918C69.6918 48.692 69.6918 48.4092 69.6918 48.1263H69.0961Z" fill="url(#paint15_linear_20_14302)"/>
<path d="M66.6776 36.9296C66.6776 36.6468 66.6776 36.364 66.6776 36.0688H66.0819V36.9296H66.6776Z" fill="url(#paint16_linear_20_14302)"/>
<path d="M63.6455 34.3472C63.6455 34.0644 63.6455 33.7815 63.6455 33.4926H63.0498V34.3534L63.6455 34.3472Z" fill="url(#paint17_linear_20_14302)"/>
<path d="M63.6514 34.3472C63.6514 34.6362 63.6514 34.919 63.6514 35.208H64.2471V34.3472H63.6514Z" fill="url(#paint18_linear_20_14302)"/>
<path d="M64.2531 35.208V36.0688H66.0402C66.0402 35.786 66.0402 35.5032 66.0402 35.208H65.4445V34.3472H64.8488V35.208H64.2531Z" fill="url(#paint19_linear_20_14302)"/>
<path d="M66.6776 36.9296V39.4322C66.6776 39.4322 66.6776 39.4752 66.6776 39.5059H67.2733V38.6574H67.869C67.869 38.3746 67.869 38.0917 67.869 37.8028H67.2733V36.9419H66.6776V36.9296Z" fill="url(#paint20_linear_20_14302)"/>
<path d="M69.0961 38.6513V37.7905C69.0961 37.5076 69.0961 37.2248 69.0961 36.9419H68.5004V38.6513H67.9047C67.9047 38.8849 67.9047 39.1124 67.9047 39.3461V39.4998C67.8377 39.5117 67.7692 39.5117 67.7022 39.4998H67.309C67.2906 39.7885 67.2906 40.0781 67.309 40.3667H67.9047V40.4897C67.9047 40.7357 67.9047 40.9755 67.9047 41.2153H68.5004V39.5613C68.5004 39.5613 68.5004 39.5182 68.5004 39.4998H69.0961V40.3483H70.2875C70.2875 40.0593 70.2875 39.7826 70.2875 39.4936H70.8832C70.8832 39.2169 70.8832 38.9341 70.8832 38.639L69.0961 38.6513Z" fill="url(#paint21_linear_20_14302)"/>
<path d="M67.8869 42.0699V41.2337H67.2912V42.0884C67.4897 42.108 67.6898 42.1018 67.8869 42.0699Z" fill="url(#paint22_linear_20_14302)"/>
<path fill-rule="evenodd" clip-rule="evenodd" d="M60.0057 33.4126H57.0272C57.0153 33.3696 57.0094 29.4037 57.0272 29.2131H60.0057V33.4126ZM59.41 30.0309H57.6229V32.5949H59.41V30.0309Z" fill="url(#paint23_linear_20_14302)"/>
<path fill-rule="evenodd" clip-rule="evenodd" d="M70.9071 33.4126H67.9286C67.9107 33.3696 67.9047 29.4037 67.9286 29.2131H70.9071V33.4126ZM70.3114 30.0309H68.5243V32.601H70.3114V30.0309Z" fill="url(#paint24_linear_20_14302)"/>
<path fill-rule="evenodd" clip-rule="evenodd" d="M66.6955 42.9615H68.4969V45.5255H66.6955V42.9615ZM67.2959 44.6708H67.8844C67.9066 44.3885 67.9106 44.1051 67.8964 43.8223H67.2959V44.6708Z" fill="url(#paint25_linear_20_14302)"/>
<path d="M63.7289 47.2594H63.6574C63.6545 47.2859 63.6545 47.3127 63.6574 47.3393V48.071C63.6574 48.071 63.6574 48.1079 63.6574 48.1202C63.8555 48.139 64.0549 48.139 64.2531 48.1202V47.2778H63.7348L63.7289 47.2594Z" fill="url(#paint26_linear_20_14302)"/>
<path fill-rule="evenodd" clip-rule="evenodd" d="M56.9915 44.7261H59.97C59.9879 44.8061 59.9879 48.7842 59.97 48.9318H56.9915V44.7261ZM57.5872 48.114H59.3981C59.416 47.9726 59.41 45.6177 59.3743 45.5439H57.5872V48.114Z" fill="url(#paint27_linear_20_14302)"/>
<path d="M64.8607 45.5439V46.3924H65.4564V45.5439H64.8607Z" fill="url(#paint28_linear_20_14302)"/>
<path d="M65.4624 42.0945V40.7172C65.4683 40.6025 65.4683 40.4876 65.4624 40.3729H64.8667C64.8667 40.6004 64.8667 40.834 64.8667 41.0677V41.2214C64.7996 41.2333 64.7311 41.2333 64.6641 41.2214H64.265V42.0822H64.8607V42.943H63.6693V43.7977H64.8607V44.6462H66.0521V42.0699L65.4624 42.0945Z" fill="url(#paint29_linear_20_14302)"/>
<path fill-rule="evenodd" clip-rule="evenodd" d="M31.43 38.9341C31.43 20.9739 45.9949 6.41391 63.9552 6.41391C81.9156 6.41391 96.4805 20.9678 96.4805 38.9341C96.4805 56.9005 81.9156 71.4604 63.9552 71.4604C45.9949 71.4604 31.43 56.8943 31.43 38.9341ZM65.1466 13.1221V17.7828H69.9659V13.1221C69.9659 12.6161 69.5685 12.2059 69.0783 12.2059H66.0342C65.544 12.2059 65.1466 12.6161 65.1466 13.1221ZM57.8731 13.1221C57.8731 12.6161 58.2705 12.2059 58.7607 12.2059H61.8048C62.2926 12.2093 62.6864 12.6185 62.6864 13.1221V17.7828H57.8731V13.1221ZM57.0451 18.7419C51.3859 18.7419 46.7931 23.3227 46.7931 28.9794L46.7752 32.1583C46.7933 32.131 46.8093 32.1022 46.8229 32.0722C46.8824 31.9431 46.9539 31.8078 47.0254 31.6849C47.0502 31.6499 47.0722 31.6129 47.0909 31.5742C47.1416 31.4973 47.1892 31.4205 47.2369 31.3436C47.2845 31.2668 47.3322 31.1899 47.3828 31.113L47.4484 31.0331L47.7224 30.6642C47.7489 30.6246 47.7788 30.5875 47.8117 30.5535C48.0346 30.2632 48.2818 29.9936 48.5504 29.748C48.5811 29.7102 48.615 29.6752 48.6517 29.6435C48.7611 29.5343 48.8764 29.4317 48.9972 29.3361C49.021 29.3176 49.0687 29.2623 49.0687 29.2623L49.4976 28.9303C49.53 28.9075 49.5638 28.887 49.5988 28.8688L49.9682 28.6105C50.0078 28.5868 50.0456 28.5601 50.0814 28.5306C50.2362 28.4384 50.3971 28.3461 50.5639 28.2662C50.5698 28.2355 50.6115 28.2355 50.6115 28.2355C50.7073 28.1778 50.8084 28.1284 50.9076 28.0799C50.9566 28.056 51.0051 28.0323 51.0524 28.008L51.1953 27.9465L51.654 27.762H51.7076C51.8863 27.7005 52.0651 27.639 52.2438 27.5899C52.2905 27.5795 52.3363 27.5651 52.3808 27.5468L52.7382 27.4607C52.7637 27.466 52.7901 27.466 52.8156 27.4607H52.9407C53.1091 27.4171 53.2803 27.3862 53.453 27.3685H53.6139L54.0726 27.3193H54.156C54.1835 27.3133 54.2119 27.3133 54.2394 27.3193H71.5147V26.7844C71.5148 26.2638 71.4629 25.7445 71.3598 25.2349C71.3137 24.9932 71.252 24.7549 71.1751 24.5217C71.1037 24.2757 71.0203 24.0298 70.9309 23.7961C70.2652 22.1661 69.1078 20.8011 67.6307 19.904C67.2949 19.7025 66.9466 19.5238 66.5882 19.3691C66.3492 19.2663 66.1046 19.178 65.8555 19.1047C65.0826 18.8647 64.2799 18.7425 63.4727 18.7419H57.0451ZM70.8237 48.981H69.7038V49.8234C69.5057 49.8449 69.3061 49.8449 69.1081 49.8234V48.9687H67.9167C67.8984 48.6841 67.8984 48.3986 67.9167 48.114H68.5124V47.2532H70.2995V45.5501C70.6963 45.5261 71.0941 45.5261 71.4909 45.5501V49.8541H70.8952V49.0056L70.8237 48.981ZM67.2793 48.0956V47.2532L67.8571 47.2471V46.3863H69.0485V42.0822H69.6442V43.7915H70.8952V44.6032C70.8918 44.6194 70.8918 44.6361 70.8952 44.6524C71.0929 44.6781 71.2931 44.6781 71.4909 44.6524V43.81H70.9011C70.8984 43.7834 70.8984 43.7566 70.9011 43.7301V42.0884H71.4909V40.379H70.8952V39.5182C71.0929 39.5448 71.2931 39.5448 71.4909 39.5182V36.9542H70.8952V36.1057H71.4909V35.2572H69.7038V36.0381C69.5057 36.0594 69.3061 36.0594 69.1081 36.0381V35.208H68.5124V36.0627H67.9167V36.9174H67.3209V35.1957H66.7253V31.7648H66.1295V34.3349H65.5338V33.4864H64.9381V34.3349H64.3424V32.6133H64.9381V30.8978H66.7253C66.7403 30.609 66.7403 30.3196 66.7253 30.0309H65.5338V28.3215H64.3424V30.0247C63.9456 30.0459 63.5479 30.0459 63.151 30.0247V29.2008H62.5553V28.3461H61.3639V30.9224H61.9596V31.7771H61.3639V32.6379H61.9596V31.7771H63.1749V30.9347H64.3663V31.7894H63.7706V32.6502H63.1749C63.1729 32.6624 63.1729 32.6749 63.1749 32.6871V33.5049H62.5792V35.2203H58.3497C58.3477 35.2325 58.3477 35.245 58.3497 35.2572V36.0381H57.754V36.8989H57.1583V37.7474H57.754V38.6082H57.1583V39.4752H56.5626V42.9061H57.1583V41.1907H58.9454C58.9426 41.2028 58.9426 41.2154 58.9454 41.2276V42.9061H59.5411V42.0515H60.1368V42.9123H61.3282V47.2163H61.9239V48.071H62.5196V47.2163H63.1153V49.7926C63.1815 49.8189 64.3977 49.8002 64.786 49.7943L64.9024 49.7926V47.2409H65.4981V48.9503H66.0864L66.0878 48.9687H66.0938V49.8111C66.4907 49.8324 66.8883 49.8324 67.2852 49.8111V48.9687H66.0938V48.9503H66.0864C66.085 48.9277 66.0855 48.9051 66.0878 48.8826V47.3516C66.0851 47.3209 66.0851 47.2901 66.0878 47.2594H66.6836V48.0956C66.8815 48.1175 67.0813 48.1175 67.2793 48.0956ZM63.151 28.3707V29.1824H63.7467V28.3338H63.151C63.1486 28.346 63.1486 28.3586 63.151 28.3707ZM62.4302 48.9933V49.8357H61.2388V48.9933C61.6357 48.9722 62.0334 48.9722 62.4302 48.9933ZM60.6074 49.8357V43.8223H56.3839V49.8357H60.6074ZM57.6289 42.943V42.1007H58.2246V42.9369C58.0173 42.9673 57.807 42.9694 57.5991 42.943H57.6289ZM57.0332 35.2203H56.3898C56.3873 35.5019 56.4033 35.7833 56.4375 36.0627H57.0332V35.2203ZM56.4375 34.3472V28.3461L56.5588 28.3454C57.2431 28.3408 60.5809 28.3184 60.667 28.3461V34.3534L56.4375 34.3472ZM61.2805 33.5049V34.3472H61.8762V33.5049C61.6782 33.4833 61.4786 33.4833 61.2805 33.5049ZM67.3448 34.3472V28.34H71.5743V34.3472H67.3448ZM46.8467 36.3148V48.8888L46.7931 48.8826C46.7931 54.5394 51.3681 59.1324 57.0034 59.1324H60.2976L60.2202 59.0832L59.833 58.8803C59.7946 58.8601 59.7586 58.8353 59.7258 58.8065C59.5649 58.7143 59.41 58.6221 59.2671 58.5237C59.2372 58.5041 59.211 58.4791 59.1896 58.4499C59.058 58.3689 58.9308 58.2807 58.8084 58.1855C58.7672 58.1596 58.7292 58.1287 58.6952 58.0933C58.4091 57.8691 58.1403 57.6224 57.891 57.3555L57.7897 57.2571C57.6885 57.1526 57.5812 57.0296 57.48 56.9066C57.4572 56.8869 57.4372 56.8642 57.4204 56.839C57.3476 56.7603 57.2829 56.6754 57.2181 56.5902C57.1714 56.529 57.1247 56.4677 57.0749 56.4086L57.073 56.4035L57.0715 56.3985L57.0701 56.3932C57.0686 56.3883 57.0655 56.3839 57.0423 56.3509L57.0094 56.304C56.9871 56.2723 56.9635 56.2395 56.9391 56.2059C56.8787 56.1223 56.8144 56.0333 56.7592 55.9413L56.7524 55.9329L56.7411 55.9197C56.717 55.8919 56.6877 55.8582 56.6877 55.8244L56.6498 55.7634C56.566 55.6287 56.4801 55.4906 56.4077 55.3571C56.4121 55.3369 56.4121 55.3159 56.4077 55.2957L56.3932 55.2671L56.3542 55.1912C56.2973 55.0806 56.2384 54.9663 56.1933 54.8591C56.1766 54.8103 56.1525 54.7647 56.1218 54.7238C56.0623 54.5703 56.0025 54.4162 55.9371 54.2627C55.9389 54.2422 55.9389 54.2217 55.9371 54.2012C55.8689 54.0288 55.8112 53.8522 55.7643 53.6724C55.7442 53.6275 55.7302 53.5799 55.7227 53.531C55.7098 53.4855 55.6941 53.4405 55.6785 53.396C55.6437 53.2962 55.6095 53.1983 55.6095 53.1006C55.5797 53.0576 55.5797 52.9961 55.5797 52.9961V52.9653C55.538 52.7809 55.5082 52.5964 55.4784 52.4058C55.484 52.3691 55.484 52.3318 55.4784 52.2951C55.4725 52.2439 55.4645 52.1926 55.4566 52.1414C55.4407 52.0389 55.4248 51.9364 55.4248 51.834C55.4219 51.7787 55.4219 51.7233 55.4248 51.668C55.4193 51.6458 55.4193 51.6225 55.4248 51.6003V28.2785H54.8887C54.379 28.2723 53.87 28.3197 53.3696 28.4199C53.1254 28.463 52.8871 28.5244 52.6548 28.5859L51.9399 28.8257C48.9065 29.9965 46.8827 32.9722 46.8467 36.3148ZM62.6864 60.11V64.7707C62.6864 65.2743 62.2926 65.6835 61.8048 65.6869H58.7607C58.2705 65.6869 57.8731 65.2767 57.8731 64.7707V60.11H62.6864ZM69.9659 64.7707V60.1162H65.1466V64.7707C65.1466 65.2767 65.544 65.6869 66.0342 65.6869H69.0783C69.5685 65.6869 69.9659 65.2767 69.9659 64.7707ZM79.652 64.4817C77.3228 59.8395 74.8864 59.1324 72.3844 59.1324H64.4199C61.0907 59.1549 58.0912 57.0608 56.8724 53.863C56.789 53.6355 56.7175 53.3957 56.6519 53.1621C56.4441 52.325 56.3518 51.4618 56.3779 50.5981L71.9019 50.555C71.9019 50.555 79.0503 50.1185 79.646 57.8658C79.7592 59.2369 79.652 64.4817 79.652 64.4817ZM79.5924 54.1213C80.5386 52.5485 81.04 50.734 81.0399 48.8826L81.165 28.9794C81.0737 23.2349 76.4905 18.6529 70.9249 18.7419H67.6128L67.6962 18.7911C67.8273 18.8526 67.9524 18.9203 68.0834 18.994L68.1966 19.0555L68.6553 19.3507L68.7387 19.4122C68.8579 19.5044 68.983 19.5966 69.1021 19.6765L69.2153 19.7688C69.5008 19.9984 69.7732 20.2448 70.0314 20.5066C70.0662 20.5405 70.0981 20.5776 70.1267 20.6173C70.1979 20.6869 70.2596 20.7589 70.3208 20.8303C70.357 20.8724 70.3929 20.9144 70.4305 20.9555C70.4543 20.9739 70.502 21.0292 70.502 21.0292C70.6152 21.1707 70.7284 21.3121 70.8296 21.4658L70.913 21.558L71.1573 21.9269C71.1648 21.9363 71.1738 21.946 71.1831 21.956C71.2107 21.9856 71.2407 22.0177 71.2407 22.0499C71.2729 22.1055 71.306 22.1602 71.3393 22.2153C71.3981 22.3127 71.4576 22.4112 71.5147 22.5172V22.5787C71.5862 22.7201 71.6577 22.8738 71.7172 23.0153C71.7478 23.0562 71.7719 23.1018 71.7887 23.1505C71.8542 23.3042 71.9138 23.458 71.9734 23.6117L72.0032 23.6732C72.04 23.77 72.0712 23.8668 72.1031 23.9658C72.1279 24.0428 72.1532 24.1212 72.1819 24.2019C72.1882 24.2484 72.2002 24.2939 72.2176 24.3372C72.2385 24.402 72.2533 24.4709 72.2679 24.5391C72.2783 24.5875 72.2886 24.6356 72.301 24.6815C72.3036 24.7122 72.3036 24.7431 72.301 24.7738C72.2953 24.8187 72.2953 24.8641 72.301 24.909C72.3433 25.0661 72.3732 25.2265 72.3904 25.3886C72.3835 25.4106 72.3835 25.4343 72.3904 25.4563C72.3923 25.4952 72.3923 25.5342 72.3904 25.5731C72.3939 25.5957 72.3975 25.6185 72.4012 25.6414C72.4223 25.7738 72.444 25.9093 72.444 26.0404C72.4384 26.0605 72.4384 26.0818 72.444 26.1019V49.8726C72.447 49.8732 72.4628 49.8731 72.4904 49.8729C73.0108 49.8691 77.7199 49.8354 79.5924 54.1213Z" fill="url(#paint30_linear_20_14302)"/>
<path d="M64.8607 40.3667V39.5121H66.0521V37.7905H65.4564V36.9419H64.8607V37.7905H63.6693C63.6664 37.8067 63.6664 37.8234 63.6693 37.8396V39.469C63.6665 39.4812 63.6665 39.4938 63.6693 39.5059H64.265C64.265 39.8011 64.265 40.0839 64.265 40.3606L64.8607 40.3667Z" fill="url(#paint31_linear_20_14302)"/>
<path d="M66.07 40.379V42.0884H66.6657C66.6657 41.9777 66.6657 40.459 66.6657 40.379H66.07Z" fill="url(#paint32_linear_20_14302)"/>
</g>
<path id="Path" d="M78.8651 88.7503C78.3016 88.7532 77.7604 88.5293 77.362 88.1284C76.9636 87.7275 76.741 87.1829 76.7439 86.6159C76.7352 86.0525 76.9587 85.5107 77.3615 85.1192C77.7561 84.7116 78.2997 84.485 78.8651 84.4924C79.4257 84.4856 79.964 84.7125 80.3526 85.1192C80.7711 85.5059 81.0039 86.0551 80.9916 86.6267C80.9769 87.8099 80.0195 88.7612 78.8436 88.7611L78.8651 88.7503Z" fill="#FEDE10"/>
<g id="Vector_2">
<path fill-rule="evenodd" clip-rule="evenodd" d="M73.5845 97.7482C72.7251 93.5446 68.9611 90.5235 64.5962 90.534C62.1705 90.4996 59.8383 91.4518 58.1522 93.165C55.0657 96.1968 54.5908 100.949 57.018 104.512C59.4453 108.076 64.098 109.457 68.1286 107.812C72.1592 106.166 74.4439 101.952 73.5845 97.7482ZM59.4535 98.5353C59.9409 96.1246 62.094 94.3877 64.5962 94.387V94.376C65.9936 94.3556 67.3369 94.9057 68.3057 95.8951C70.0754 97.6327 70.3491 100.356 68.9595 102.4C67.5699 104.444 64.904 105.239 62.592 104.299C60.2801 103.359 58.966 100.946 59.4535 98.5353Z" fill="black"/>
<path d="M78.9636 90.5341C79.4715 90.5196 79.9613 90.72 80.3084 91.0846C80.6756 91.435 80.8785 91.9193 80.8688 92.4221V106.562C80.8508 107.595 80.0032 108.427 78.9524 108.445H78.9187C78.4071 108.453 77.9146 108.254 77.5571 107.894C77.1878 107.552 76.9841 107.072 76.9967 106.573V92.4331C77.0028 91.389 77.8614 90.5432 78.9243 90.5341H78.9636Z" fill="black"/>
<path d="M88.5297 106.573C88.5424 107.072 88.3386 107.552 87.9693 107.894C87.6157 108.253 87.127 108.452 86.6189 108.445H86.5741C86.0673 108.453 85.58 108.254 85.2292 107.894C84.8581 107.553 84.654 107.072 84.6689 106.573V98.0638C84.7811 93.989 88.1763 90.743 92.3261 90.743C96.4759 90.743 99.871 93.989 99.9832 98.0638V106.573C99.9653 107.606 99.1177 108.438 98.0668 108.456H98.0332C97.5216 108.464 97.0291 108.265 96.6716 107.905C96.3005 107.564 96.0964 107.083 96.1112 106.584V98.0638C96.121 97.0729 95.7158 96.1216 94.9905 95.4328C93.5074 93.9785 91.1055 93.9785 89.6224 95.4328C88.9074 96.1262 88.5125 97.0769 88.5297 98.0638V106.573Z" fill="black"/>
<path d="M51.3219 105.902C50.772 105.846 50.2282 105.743 49.6969 105.594C47.3816 104.948 45.4371 103.398 44.3175 101.306C43.8523 100.464 42.7936 100.134 41.9192 100.557C41.4975 100.747 41.1741 101.099 41.0256 101.53C40.8771 101.961 40.9165 102.434 41.1347 102.836C41.4568 103.437 41.8318 104.01 42.2554 104.548C41.6434 104.673 41.0202 104.737 40.395 104.74C35.6655 104.593 31.938 100.733 32.0365 96.0861C32.135 91.439 36.0228 87.7354 40.7545 87.7811C45.4863 87.8268 49.2991 91.6047 49.3046 96.2529C49.3119 98.104 48.6798 99.9028 47.5115 101.355C47.2277 101.711 47.1048 102.166 47.1715 102.613C47.2382 103.06 47.4887 103.461 47.8645 103.722C48.6522 104.291 49.757 104.145 50.3637 103.392C52.0005 101.354 52.8873 98.8321 52.8796 96.2364C52.8796 89.6918 47.2761 84.3638 40.4006 84.3638C33.5251 84.3638 27.9272 89.6918 27.9272 96.2364C27.9272 102.781 33.5307 108.103 40.4006 108.103C41.9312 108.105 43.4496 107.837 44.8834 107.311C44.9664 107.278 45.0469 107.239 45.1244 107.195C46.2122 107.908 47.4046 108.454 48.6602 108.813C49.3934 109.021 50.1433 109.166 50.9016 109.248C50.9668 109.254 51.0325 109.254 51.0977 109.248C51.9923 109.258 52.7518 108.607 52.8628 107.735C52.9382 106.815 52.2556 106.003 51.3219 105.902Z" fill="black"/>
</g>
<g id="Vector_3">
<path fill-rule="evenodd" clip-rule="evenodd" d="M68.6511 124.047C68.6628 124.621 69.1247 125.082 69.696 125.091H69.7233C70.2925 125.079 70.7512 124.619 70.7627 124.047V120.667C71.574 121.3 72.5897 121.61 73.6145 121.536C76.3491 121.533 78.565 119.306 78.5669 116.558C78.5689 113.81 76.3563 111.58 73.6217 111.573C70.8871 111.566 68.6631 113.785 68.6511 116.533V124.047ZM76.2519 115.433C76.6933 116.505 76.4469 117.739 75.6281 118.556C75.0931 119.095 74.3667 119.398 73.6091 119.398C72.8514 119.398 72.125 119.095 71.59 118.556C70.7809 117.733 70.5422 116.503 70.9844 115.435C71.4266 114.367 72.4634 113.67 73.6145 113.667C74.7687 113.664 75.8105 114.362 76.2519 115.433Z" fill="#F9AF2A"/>
<path fill-rule="evenodd" clip-rule="evenodd" d="M89.9468 116.549C89.9669 115.224 89.441 113.949 88.4937 113.027V113.006C86.9059 111.406 84.4462 111.078 82.4987 112.207C80.5512 113.337 79.6023 115.64 80.1861 117.822C80.7698 120.004 82.7404 121.519 84.9888 121.515C86.0397 121.593 87.0743 121.219 87.8351 120.487C87.8283 120.766 87.9413 121.035 88.1454 121.225C88.3371 121.426 88.6029 121.539 88.8801 121.537H88.9073C89.1827 121.538 89.4465 121.425 89.6365 121.225C89.8406 121.035 89.9536 120.766 89.9468 120.487V116.549ZM82.9643 118.583C81.862 117.458 81.862 115.652 82.9643 114.526C83.7793 113.705 85.0064 113.458 86.0729 113.901C87.1394 114.344 87.835 115.39 87.8351 116.549C87.8395 117.711 87.1454 118.76 86.0779 119.206C85.0104 119.652 83.7807 119.406 82.9643 118.583Z" fill="#F9AF2A"/>
<path d="M93.7783 117.14C93.7754 117.69 93.9918 118.219 94.3792 118.608C94.7667 118.998 95.293 119.215 95.841 119.212C96.3862 119.219 96.9101 119 97.2886 118.605C97.6792 118.22 97.8955 117.69 97.8873 117.14V112.595C97.8932 112.013 98.3633 111.543 98.9431 111.54C99.2195 111.533 99.4854 111.647 99.6723 111.852C99.8728 112.046 99.9849 112.315 99.9826 112.595V120.88C99.9928 122.005 99.5257 123.081 98.6982 123.839C97.9466 124.624 96.9091 125.068 95.8246 125.069C94.997 125.079 94.1829 124.858 93.4736 124.429C92.8071 124.043 92.2636 123.474 91.9062 122.789C91.827 122.645 91.784 122.483 91.781 122.318C91.7848 122.181 91.8144 122.046 91.8681 121.919C91.9649 121.636 92.1887 121.415 92.4722 121.323H92.5048C92.6247 121.285 92.7493 121.265 92.8749 121.263C93.0035 121.262 93.131 121.286 93.2504 121.334C93.4852 121.426 93.6787 121.601 93.7947 121.826C93.984 122.18 94.2713 122.47 94.6219 122.663C94.9895 122.88 95.4089 122.994 95.8355 122.991C96.3739 122.993 96.8903 122.776 97.2668 122.389C97.6618 122.005 97.8839 121.476 97.8818 120.924V120.853C97.2722 121.24 96.5548 121.42 95.8355 121.367C93.5353 121.367 91.6697 119.495 91.6667 117.183V112.639C91.6644 112.359 91.7765 112.09 91.9769 111.895C92.167 111.695 92.4308 111.582 92.7062 111.584C92.9834 111.581 93.2492 111.694 93.4409 111.895C93.6377 112.092 93.7476 112.36 93.7457 112.639L93.7783 117.14Z" fill="#F9AF2A"/>
</g>
</g>
</g>
<defs>
<linearGradient id="paint0_linear_20_14302" x1="9.43482" y1="33.7546" x2="58.8899" y2="84.524" gradientUnits="userSpaceOnUse">
<stop stop-color="#FDDB03"/>
<stop offset="0.43" stop-color="#FDD905"/>
<stop offset="0.66" stop-color="#FDD10C"/>
<stop offset="0.84" stop-color="#FCC318"/>
<stop offset="0.99" stop-color="#FBB029"/>
<stop offset="1" stop-color="#FBAF2A"/>
</linearGradient>
<linearGradient id="paint1_linear_20_14302" x1="-6261.14" y1="23.6332" x2="-279.773" y2="4335.51" gradientUnits="userSpaceOnUse">
<stop stop-color="#FDDB03"/>
<stop offset="0.43" stop-color="#FDD905"/>
<stop offset="0.66" stop-color="#FDD10C"/>
<stop offset="0.84" stop-color="#FCC318"/>
<stop offset="0.99" stop-color="#FBB029"/>
<stop offset="1" stop-color="#FBAF2A"/>
</linearGradient>
<linearGradient id="paint2_linear_20_14302" x1="-4908.96" y1="1640.59" x2="1073.13" y2="3765.47" gradientUnits="userSpaceOnUse">
<stop stop-color="#FDDB03"/>
<stop offset="0.43" stop-color="#FDD905"/>
<stop offset="0.66" stop-color="#FDD10C"/>
<stop offset="0.84" stop-color="#FCC318"/>
<stop offset="0.99" stop-color="#FBB029"/>
<stop offset="1" stop-color="#FBAF2A"/>
</linearGradient>
<linearGradient id="paint3_linear_20_14302" x1="-1711.3" y1="366.703" x2="276.103" y2="1433.08" gradientUnits="userSpaceOnUse">
<stop stop-color="#FDDB03"/>
<stop offset="0.43" stop-color="#FDD905"/>
<stop offset="0.66" stop-color="#FDD10C"/>
<stop offset="0.84" stop-color="#FCC318"/>
<stop offset="0.99" stop-color="#FBB029"/>
<stop offset="1" stop-color="#FBAF2A"/>
</linearGradient>
<linearGradient id="paint4_linear_20_14302" x1="-741.351" y1="-111.285" x2="-79.8876" y2="733.838" gradientUnits="userSpaceOnUse">
<stop stop-color="#FDDB03"/>
<stop offset="0.43" stop-color="#FDD905"/>
<stop offset="0.66" stop-color="#FDD10C"/>
<stop offset="0.84" stop-color="#FCC318"/>
<stop offset="0.99" stop-color="#FBB029"/>
<stop offset="1" stop-color="#FBAF2A"/>
</linearGradient>
<linearGradient id="paint5_linear_20_14302" x1="-1267.18" y1="-124.528" x2="-85.096" y2="1305.68" gradientUnits="userSpaceOnUse">
<stop stop-color="#FDDB03"/>
<stop offset="0.43" stop-color="#FDD905"/>
<stop offset="0.66" stop-color="#FDD10C"/>
<stop offset="0.84" stop-color="#FCC318"/>
<stop offset="0.99" stop-color="#FBB029"/>
<stop offset="1" stop-color="#FBAF2A"/>
</linearGradient>
<linearGradient id="paint6_linear_20_14302" x1="-3954.73" y1="-1158.37" x2="-963.685" y2="3060.03" gradientUnits="userSpaceOnUse">
<stop stop-color="#FDDB03"/>
<stop offset="0.43" stop-color="#FDD905"/>
<stop offset="0.66" stop-color="#FDD10C"/>
<stop offset="0.84" stop-color="#FCC318"/>
<stop offset="0.99" stop-color="#FBB029"/>
<stop offset="1" stop-color="#FBAF2A"/>
</linearGradient>
<linearGradient id="paint7_linear_20_14302" x1="-5392.33" y1="675.086" x2="589.76" y2="4864.37" gradientUnits="userSpaceOnUse">
<stop stop-color="#FDDB03"/>
<stop offset="0.43" stop-color="#FDD905"/>
<stop offset="0.66" stop-color="#FDD10C"/>
<stop offset="0.84" stop-color="#FCC318"/>
<stop offset="0.99" stop-color="#FBB029"/>
<stop offset="1" stop-color="#FBAF2A"/>
</linearGradient>
<linearGradient id="paint8_linear_20_14302" x1="-5362.34" y1="673.019" x2="619.747" y2="4984.37" gradientUnits="userSpaceOnUse">
<stop stop-color="#FDDB03"/>
<stop offset="0.43" stop-color="#FDD905"/>
<stop offset="0.66" stop-color="#FDD10C"/>
<stop offset="0.84" stop-color="#FCC318"/>
<stop offset="0.99" stop-color="#FBB029"/>
<stop offset="1" stop-color="#FBAF2A"/>
</linearGradient>
<linearGradient id="paint9_linear_20_14302" x1="-5321.87" y1="696.051" x2="660.216" y2="5038.87" gradientUnits="userSpaceOnUse">
<stop stop-color="#FDDB03"/>
<stop offset="0.43" stop-color="#FDD905"/>
<stop offset="0.66" stop-color="#FDD10C"/>
<stop offset="0.84" stop-color="#FCC318"/>
<stop offset="0.99" stop-color="#FBB029"/>
<stop offset="1" stop-color="#FBAF2A"/>
</linearGradient>
<linearGradient id="paint10_linear_20_14302" x1="-6026.32" y1="202.95" x2="-44.2323" y2="4483.28" gradientUnits="userSpaceOnUse">
<stop stop-color="#FDDB03"/>
<stop offset="0.43" stop-color="#FDD905"/>
<stop offset="0.66" stop-color="#FDD10C"/>
<stop offset="0.84" stop-color="#FCC318"/>
<stop offset="0.99" stop-color="#FBB029"/>
<stop offset="1" stop-color="#FBAF2A"/>
</linearGradient>
<linearGradient id="paint11_linear_20_14302" x1="-6038.42" y1="203.842" x2="-56.3268" y2="4453.6" gradientUnits="userSpaceOnUse">
<stop stop-color="#FDDB03"/>
<stop offset="0.43" stop-color="#FDD905"/>
<stop offset="0.66" stop-color="#FDD10C"/>
<stop offset="0.84" stop-color="#FCC318"/>
<stop offset="0.99" stop-color="#FBB029"/>
<stop offset="1" stop-color="#FBAF2A"/>
</linearGradient>
<linearGradient id="paint12_linear_20_14302" x1="-6000.44" y1="-186.741" x2="-378.655" y2="4253.84" gradientUnits="userSpaceOnUse">
<stop stop-color="#FDDB03"/>
<stop offset="0.43" stop-color="#FDD905"/>
<stop offset="0.66" stop-color="#FDD10C"/>
<stop offset="0.84" stop-color="#FCC318"/>
<stop offset="0.99" stop-color="#FBB029"/>
<stop offset="1" stop-color="#FBAF2A"/>
</linearGradient>
<linearGradient id="paint13_linear_20_14302" x1="-1766.5" y1="246.69" x2="227.53" y2="1666.66" gradientUnits="userSpaceOnUse">
<stop stop-color="#FDDB03"/>
<stop offset="0.43" stop-color="#FDD905"/>
<stop offset="0.66" stop-color="#FDD10C"/>
<stop offset="0.84" stop-color="#FCC318"/>
<stop offset="0.99" stop-color="#FBB029"/>
<stop offset="1" stop-color="#FBAF2A"/>
</linearGradient>
<linearGradient id="paint14_linear_20_14302" x1="-5554.99" y1="533.769" x2="426.376" y2="4845.64" gradientUnits="userSpaceOnUse">
<stop stop-color="#FDDB03"/>
<stop offset="0.43" stop-color="#FDD905"/>
<stop offset="0.66" stop-color="#FDD10C"/>
<stop offset="0.84" stop-color="#FCC318"/>
<stop offset="0.99" stop-color="#FBB029"/>
<stop offset="1" stop-color="#FBAF2A"/>
</linearGradient>
<linearGradient id="paint15_linear_20_14302" x1="-6509.47" y1="-154.58" x2="-527.384" y2="4156.77" gradientUnits="userSpaceOnUse">
<stop stop-color="#FDDB03"/>
<stop offset="0.43" stop-color="#FDD905"/>
<stop offset="0.66" stop-color="#FDD10C"/>
<stop offset="0.84" stop-color="#FCC318"/>
<stop offset="0.99" stop-color="#FBB029"/>
<stop offset="1" stop-color="#FBAF2A"/>
</linearGradient>
<linearGradient id="paint16_linear_20_14302" x1="-5590.23" y1="523.462" x2="391.861" y2="4773.22" gradientUnits="userSpaceOnUse">
<stop stop-color="#FDDB03"/>
<stop offset="0.43" stop-color="#FDD905"/>
<stop offset="0.66" stop-color="#FDD10C"/>
<stop offset="0.84" stop-color="#FCC318"/>
<stop offset="0.99" stop-color="#FBB029"/>
<stop offset="1" stop-color="#FBAF2A"/>
</linearGradient>
<linearGradient id="paint17_linear_20_14302" x1="-5254.45" y1="761.247" x2="727.642" y2="5011.01" gradientUnits="userSpaceOnUse">
<stop stop-color="#FDDB03"/>
<stop offset="0.43" stop-color="#FDD905"/>
<stop offset="0.66" stop-color="#FDD10C"/>
<stop offset="0.84" stop-color="#FCC318"/>
<stop offset="0.99" stop-color="#FBB029"/>
<stop offset="1" stop-color="#FBAF2A"/>
</linearGradient>
<linearGradient id="paint18_linear_20_14302" x1="-5340.91" y1="699.485" x2="641.175" y2="4949.25" gradientUnits="userSpaceOnUse">
<stop stop-color="#FDDB03"/>
<stop offset="0.43" stop-color="#FDD905"/>
<stop offset="0.66" stop-color="#FDD10C"/>
<stop offset="0.84" stop-color="#FCC318"/>
<stop offset="0.99" stop-color="#FBB029"/>
<stop offset="1" stop-color="#FBAF2A"/>
</linearGradient>
<linearGradient id="paint19_linear_20_14302" x1="-2130.24" y1="-157.862" x2="-136.215" y2="1967.02" gradientUnits="userSpaceOnUse">
<stop stop-color="#FDDB03"/>
<stop offset="0.43" stop-color="#FDD905"/>
<stop offset="0.66" stop-color="#FDD10C"/>
<stop offset="0.84" stop-color="#FCC318"/>
<stop offset="0.99" stop-color="#FBB029"/>
<stop offset="1" stop-color="#FBAF2A"/>
</linearGradient>
<linearGradient id="paint20_linear_20_14302" x1="-2496.87" y1="664.198" x2="494.172" y2="2084.34" gradientUnits="userSpaceOnUse">
<stop stop-color="#FDDB03"/>
<stop offset="0.43" stop-color="#FDD905"/>
<stop offset="0.66" stop-color="#FDD10C"/>
<stop offset="0.84" stop-color="#FCC318"/>
<stop offset="0.99" stop-color="#FBB029"/>
<stop offset="1" stop-color="#FBAF2A"/>
</linearGradient>
<linearGradient id="paint21_linear_20_14302" x1="-1007.67" y1="-10.0818" x2="-14.4994" y2="845.985" gradientUnits="userSpaceOnUse">
<stop stop-color="#FDDB03"/>
<stop offset="0.43" stop-color="#FDD905"/>
<stop offset="0.66" stop-color="#FDD10C"/>
<stop offset="0.84" stop-color="#FCC318"/>
<stop offset="0.99" stop-color="#FBB029"/>
<stop offset="1" stop-color="#FBAF2A"/>
</linearGradient>
<linearGradient id="paint22_linear_20_14302" x1="-5953.29" y1="271.743" x2="28.8021" y2="4496.8" gradientUnits="userSpaceOnUse">
<stop stop-color="#FDDB03"/>
<stop offset="0.43" stop-color="#FDD905"/>
<stop offset="0.66" stop-color="#FDD10C"/>
<stop offset="0.84" stop-color="#FCC318"/>
<stop offset="0.99" stop-color="#FBB029"/>
<stop offset="1" stop-color="#FBAF2A"/>
</linearGradient>
<linearGradient id="paint23_linear_20_14302" x1="-919.228" y1="235.205" x2="272.676" y2="1106.42" gradientUnits="userSpaceOnUse">
<stop stop-color="#FDDB03"/>
<stop offset="0.43" stop-color="#FDD905"/>
<stop offset="0.66" stop-color="#FDD10C"/>
<stop offset="0.84" stop-color="#FCC318"/>
<stop offset="0.99" stop-color="#FBB029"/>
<stop offset="1" stop-color="#FBAF2A"/>
</linearGradient>
<linearGradient id="paint24_linear_20_14302" x1="-1050.2" y1="137.824" x2="139.797" y2="1008.93" gradientUnits="userSpaceOnUse">
<stop stop-color="#FDDB03"/>
<stop offset="0.43" stop-color="#FDD905"/>
<stop offset="0.66" stop-color="#FDD10C"/>
<stop offset="0.84" stop-color="#FCC318"/>
<stop offset="0.99" stop-color="#FBB029"/>
<stop offset="1" stop-color="#FBAF2A"/>
</linearGradient>
<linearGradient id="paint25_linear_20_14302" x1="-2001.77" y1="68.5527" x2="-7.74138" y2="1495.5" gradientUnits="userSpaceOnUse">
<stop stop-color="#FDDB03"/>
<stop offset="0.43" stop-color="#FDD905"/>
<stop offset="0.66" stop-color="#FDD10C"/>
<stop offset="0.84" stop-color="#FCC318"/>
<stop offset="0.99" stop-color="#FBB029"/>
<stop offset="1" stop-color="#FBAF2A"/>
</linearGradient>
<linearGradient id="paint26_linear_20_14302" x1="-6048.86" y1="196.324" x2="-88.8957" y2="4377.95" gradientUnits="userSpaceOnUse">
<stop stop-color="#FDDB03"/>
<stop offset="0.43" stop-color="#FDD905"/>
<stop offset="0.66" stop-color="#FDD10C"/>
<stop offset="0.84" stop-color="#FCC318"/>
<stop offset="0.99" stop-color="#FBB029"/>
<stop offset="1" stop-color="#FBAF2A"/>
</linearGradient>
<linearGradient id="paint27_linear_20_14302" x1="-1098.41" y1="102.929" x2="92.5076" y2="972.868" gradientUnits="userSpaceOnUse">
<stop stop-color="#FDDB03"/>
<stop offset="0.43" stop-color="#FDD905"/>
<stop offset="0.66" stop-color="#FDD10C"/>
<stop offset="0.84" stop-color="#FCC318"/>
<stop offset="0.99" stop-color="#FBB029"/>
<stop offset="1" stop-color="#FBAF2A"/>
</linearGradient>
<linearGradient id="paint28_linear_20_14302" x1="-6101.18" y1="139.91" x2="-119.088" y2="4451.78" gradientUnits="userSpaceOnUse">
<stop stop-color="#FDDB03"/>
<stop offset="0.43" stop-color="#FDD905"/>
<stop offset="0.66" stop-color="#FDD10C"/>
<stop offset="0.84" stop-color="#FCC318"/>
<stop offset="0.99" stop-color="#FBB029"/>
<stop offset="1" stop-color="#FBAF2A"/>
</linearGradient>
<linearGradient id="paint29_linear_20_14302" x1="-1309.68" y1="243.493" x2="185.657" y2="1099.66" gradientUnits="userSpaceOnUse">
<stop stop-color="#FDDB03"/>
<stop offset="0.43" stop-color="#FDD905"/>
<stop offset="0.66" stop-color="#FDD10C"/>
<stop offset="0.84" stop-color="#FCC318"/>
<stop offset="0.99" stop-color="#FBB029"/>
<stop offset="1" stop-color="#FBAF2A"/>
</linearGradient>
<linearGradient id="paint30_linear_20_14302" x1="3.56165" y1="33.1945" x2="58.3427" y2="89.4348" gradientUnits="userSpaceOnUse">
<stop stop-color="#FDDB03"/>
<stop offset="0.43" stop-color="#FDD905"/>
<stop offset="0.66" stop-color="#FDD10C"/>
<stop offset="0.84" stop-color="#FCC318"/>
<stop offset="0.99" stop-color="#FBB029"/>
<stop offset="1" stop-color="#FBAF2A"/>
</linearGradient>
<linearGradient id="paint31_linear_20_14302" x1="-1359.89" y1="149.774" x2="134.083" y2="1217.94" gradientUnits="userSpaceOnUse">
<stop stop-color="#FDDB03"/>
<stop offset="0.43" stop-color="#FDD905"/>
<stop offset="0.66" stop-color="#FDD10C"/>
<stop offset="0.84" stop-color="#FCC318"/>
<stop offset="0.99" stop-color="#FBB029"/>
<stop offset="1" stop-color="#FBAF2A"/>
</linearGradient>
<linearGradient id="paint32_linear_20_14302" x1="26.0612" y1="79.8803" x2="80.9883" y2="86.7303" gradientUnits="userSpaceOnUse">
<stop stop-color="#FDDB03"/>
<stop offset="0.43" stop-color="#FDD905"/>
<stop offset="0.66" stop-color="#FDD10C"/>
<stop offset="0.84" stop-color="#FCC318"/>
<stop offset="0.99" stop-color="#FBB029"/>
<stop offset="1" stop-color="#FBAF2A"/>
</linearGradient>
</defs>
</svg>
