<svg width="120" height="120" viewBox="0 0 120 120" fill="none" xmlns="http://www.w3.org/2000/svg">
<g id="7">
<g id="Vector">
<path d="M68.9801 24C70.4589 24.627 72.0898 24.792 73.5322 25.5475C78.8898 28.3531 81.8151 32.7684 82.0946 38.7829C82.3787 44.8943 79.539 49.3595 74.3594 52.4416C73.386 53.0205 72.395 53.57 71.4076 54.1247C69.1809 55.3758 67.4684 57.1516 66.1128 59.2903C65.6843 59.9666 65.2123 60.296 64.8583 59.2903C63.4599 55.3212 60.2551 53.2353 56.8548 51.173C49.0181 46.4195 48.1474 34.8801 54.9932 28.3484C56.9382 26.4921 59.2095 25.2458 61.8061 24.5548C62.2993 24.4239 62.8904 24.489 63.2538 24.0006H68.9795L68.9801 24ZM71.5127 39.3025C71.5444 36.3014 69.1949 33.9062 66.2168 33.9026C63.3413 33.8991 60.929 36.2803 60.8833 39.1686C60.8369 42.0916 63.2838 44.5714 66.2185 44.5749C69.118 44.5784 71.4816 42.2243 71.5127 39.3025Z" fill="#FE0215"/>
<path d="M2.72729 87.6973C3.08717 87.9855 3.51338 87.8693 3.90906 87.8652C4.84837 87.8552 5.62271 87.8229 6.22797 88.9096C6.90134 90.1184 10.4032 90.1988 11.3853 89.1908C12.0511 88.5074 11.8497 87.8752 11.0771 87.409C10.1554 86.8531 9.08698 86.8149 8.06666 86.6253C6.8168 86.3928 5.55578 86.2014 4.4339 85.5574C2.56526 84.4837 2.43141 82.0632 4.30709 81.027C6.96885 79.5564 9.76622 79.5764 12.5407 80.8415C12.6634 80.8973 12.7743 80.9807 12.8853 81.0593C13.5745 81.5507 14.0911 82.1659 14.1939 83.0348C14.2291 83.3319 13.9602 83.4223 13.7348 83.3777C12.819 83.1957 11.7799 83.8684 10.9685 82.8816C10.1543 81.8912 7.6475 81.6088 6.5491 82.3021C5.79002 82.7812 5.84109 83.4863 6.71289 83.9823C7.55885 84.4631 8.52927 84.5342 9.46623 84.6851C10.5887 84.8659 11.7012 85.0843 12.7579 85.5058C13.8733 85.9502 14.7034 86.6376 14.7839 87.9667C14.8661 89.327 14.161 90.1958 13.0696 90.8222C9.75389 92.7273 5.16127 91.9377 2.72729 89.0599V87.6973Z" fill="#5C5B5F"/>
<path d="M49.8464 44.7569C50.2198 48.6139 52.6244 50.9493 55.7094 52.7933C58.2532 54.3132 60.7347 55.903 62.1648 58.6581C65.5105 65.1052 62.4302 72.7048 55.3466 75.4493C47.9966 78.2966 39.507 73.9183 38.0658 66.3598C37.0965 61.2787 38.7826 57.07 43.0634 54.0085C44.0961 53.27 45.1499 52.5596 46.1655 51.7982C48.0394 50.3933 49.1854 48.5728 49.3227 46.1805C49.3503 45.705 49.267 45.1596 49.847 44.7575L49.8464 44.7569ZM50.6466 59.7911C48.3541 59.7612 46.5066 61.6104 46.5078 63.9334C46.5089 66.1402 48.3676 68.0088 50.5802 68.027C52.78 68.0452 54.6674 66.2171 54.7378 64.0009C54.8095 61.7495 52.9344 59.8204 50.6466 59.7905V59.7911Z" fill="#B8D602"/>
<path d="M48.8214 81.5037C51.7503 79.4825 53.8543 79.4396 56.3957 81.3411C56.8354 81.6705 57.0174 81.4932 57.2863 81.2489C58.8221 79.8535 60.6696 79.8253 62.5523 80.1183C64.4362 80.4112 65.4248 81.5683 65.4547 83.4786C65.4911 85.7917 65.4336 88.1065 65.4847 90.4195C65.5029 91.2426 65.2769 91.5273 64.4192 91.4997C62.0468 91.4246 62.5024 91.6682 62.4707 89.5395C62.4449 87.8159 62.4818 86.0911 62.4525 84.368C62.4231 82.6303 61.8942 82.0444 60.3702 81.9611C58.4505 81.856 57.3779 82.5293 57.2528 84.1948C57.1078 86.1357 57.1988 88.093 57.1513 90.042C57.1401 90.5058 57.4278 91.2396 56.8642 91.3758C56.0981 91.5619 55.2386 91.5032 54.4455 91.3811C54.0551 91.3207 54.2036 90.7577 54.2013 90.4131C54.1895 88.5074 54.2077 86.6024 54.1913 84.6968C54.1743 82.689 53.6101 82.0051 51.9851 81.9593C50.1253 81.9065 48.8942 82.9591 48.8378 84.7684C48.7797 86.6265 48.7322 88.4939 48.8507 90.3461C48.94 91.7404 48.0735 91.4551 47.2927 91.485C46.4403 91.5179 45.7299 91.6154 45.781 90.2921C45.8908 87.4384 45.7915 84.577 45.8368 81.7192C45.845 81.2096 45.3777 80.2474 46.4943 80.3214C47.3602 80.3783 48.7263 79.6057 48.8208 81.5037H48.8214Z" fill="#5C5B60"/>
<path d="M84.7769 81.4245C84.9536 79.52 86.332 80.4429 87.178 80.3243C88.2012 80.1805 87.8349 81.0869 87.8402 81.5718C87.8713 84.6516 87.8736 87.7325 87.849 90.8128C87.8273 93.5415 86.6396 95.0039 83.9837 95.6115C82.1885 96.0219 80.3856 96.0007 78.5874 95.6074C77.8712 95.4507 77.2025 95.1847 76.609 94.7456C75.9362 94.2478 75.3738 93.6707 75.2764 92.7883C75.2453 92.5042 75.4543 92.3562 75.6996 92.405C76.6419 92.5917 77.7268 91.8684 78.5287 93.0613C79.2672 94.1603 82.0153 94.4139 83.4636 93.6906C84.7211 93.0619 85.0986 91.9506 84.7281 89.9645C81.4335 92.0657 77.8777 91.8748 75.9204 89.4925C74.202 87.4002 74.3124 83.8162 76.1564 81.8466C78.2962 79.5605 81.9214 79.3474 84.7769 81.4251V81.4245ZM77.7068 85.7776C77.7039 87.9949 79.1768 89.553 81.278 89.5536C83.4407 89.5542 84.8714 88.0061 84.8814 85.6543C84.8913 83.3448 83.5564 81.9611 81.312 81.954C79.0494 81.947 77.7098 83.3677 77.7068 85.7776Z" fill="#5C5B60"/>
<path d="M29.1999 80.4435C27.7175 81.6135 26.4266 82.6785 25.084 83.6735C24.3771 84.1978 24.3454 84.6128 24.9114 85.2891C26.5369 87.2329 28.0997 89.2295 29.71 91.2338C27.2708 91.9312 26.3696 91.6447 24.9466 89.7749C24.2873 88.909 23.6627 88.0143 22.9576 87.1877C22.6535 86.8308 22.5108 85.9654 21.8234 86.3506C21.1999 86.7005 20.3821 87.0415 20.3704 87.992C20.3604 88.808 20.3017 89.6305 20.3804 90.4389C20.5089 91.7668 19.5855 91.4944 18.871 91.4668C18.2041 91.441 17.2918 91.8807 17.3094 90.4994C17.3681 85.966 17.3441 81.4315 17.3194 76.8976C17.3153 76.1855 17.5484 75.9853 18.2564 75.9706C20.3669 75.9272 20.3657 75.8926 20.3663 78.0412C20.3663 80.1529 20.3663 82.264 20.3663 84.7338C21.6942 83.633 22.8654 82.8546 23.7918 81.8507C25.2566 80.2644 26.9855 80.0114 29.2005 80.4441L29.1999 80.4435Z" fill="#5C5B60"/>
<path d="M102.493 86.0928C102.493 86.9089 102.498 87.7249 102.492 88.5409C102.487 89.1978 102.443 89.8741 103.409 89.846C103.994 89.8289 103.897 90.2634 103.888 90.6033C103.878 90.9802 104.04 91.4346 103.443 91.5819C102.309 91.8619 101.081 92.095 100.227 91.195C99.6097 90.544 99.2522 90.787 98.6639 91.0283C96.6303 91.8631 94.555 92.132 92.4434 91.2854C91.1342 90.7606 90.3792 89.836 90.3992 88.3865C90.4197 86.9253 91.2234 86.0159 92.5561 85.5786C94.1623 85.0514 95.8571 85.0009 97.5156 84.7584C97.9177 84.6997 98.3228 84.6416 98.7156 84.5418C99.2469 84.4062 99.5997 84.0816 99.6097 83.4939C99.6191 82.9468 99.3766 82.5599 98.8835 82.2904C97.4416 81.5026 95.0558 81.9705 93.9938 83.2702C93.705 83.6236 91.3479 83.8726 91.052 83.5661C90.772 83.2761 90.9933 82.9473 91.089 82.6861C91.551 81.4304 92.5737 80.7494 93.7813 80.3907C95.5953 79.8517 97.4651 79.8218 99.3079 80.2087C101.707 80.7124 102.489 81.7474 102.492 84.1884C102.492 84.823 102.492 85.4576 102.492 86.0928H102.493ZM96.2816 89.8424C97.1528 89.8002 98.1649 89.6006 98.9709 88.8403C99.7447 88.1106 99.6461 87.102 99.4048 86.2971C99.2111 85.649 98.4866 86.3189 97.9952 86.3253C97.2755 86.3347 96.5558 86.4562 95.839 86.5537C94.6895 86.7099 93.486 86.8766 93.3762 88.3648C93.3128 89.2213 94.548 89.8454 96.2816 89.8424Z" fill="#5C5B5F"/>
<path d="M43.5525 80.3695C42.0425 81.5689 40.8226 82.625 39.5099 83.5508C38.6082 84.1866 38.6569 84.6868 39.3232 85.4606C40.623 86.9699 41.8541 88.5391 43.0881 90.1043C43.3805 90.4747 43.8043 90.79 43.8472 91.3759C41.8717 91.6964 40.107 91.7064 39.0362 89.5665C38.5982 88.6918 37.889 87.9386 37.2327 87.1918C36.9257 86.8425 36.8006 85.9443 36.1595 86.3142C35.4803 86.7057 34.5527 87.065 34.6167 88.1758C34.6608 88.9431 34.5821 89.7186 34.6361 90.4847C34.6901 91.2502 34.4195 91.4909 33.641 91.4997C31.6215 91.5226 31.6215 91.562 31.6215 89.6135C31.6215 85.4917 31.6832 81.3681 31.5863 77.2487C31.5546 75.8996 32.2256 75.9935 33.1467 75.9665C34.1471 75.9372 34.7206 76.0153 34.6578 77.2986C34.5404 79.6791 34.6244 82.0691 34.6244 84.7667C36.0357 83.5855 37.3536 82.6943 38.3998 81.5548C39.814 80.0149 41.4801 80.2433 43.5525 80.3695Z" fill="#5C5B5F"/>
<path d="M111.094 79.9856C112.512 80.0091 113.908 80.1253 115.145 80.9331C115.813 81.3693 116.313 81.9341 116.579 82.6914C116.652 82.8998 116.74 83.1199 116.535 83.3066C116.22 83.5937 113.8 83.319 113.459 82.9626C112.492 81.9511 110.297 81.6041 109.068 82.2499C108.717 82.4348 108.485 82.6597 108.487 83.08C108.488 83.5626 108.796 83.8156 109.174 84.0046C110.042 84.4385 110.999 84.5318 111.936 84.6909C113.146 84.8958 114.359 85.1036 115.476 85.6214C117.623 86.6159 117.887 88.9683 116.047 90.4547C113.938 92.1584 108.784 92.2429 106.6 90.6074C106.455 90.4988 106.317 90.3784 106.191 90.2499C105.634 89.688 105.193 89.0587 105.231 88.2257C105.249 87.8482 105.607 87.8247 105.847 87.8887C106.703 88.1171 107.772 87.2863 108.434 88.629C109.13 90.0397 112.753 90.3209 113.851 89.1556C114.538 88.4253 114.221 87.8311 113.473 87.392C112.548 86.849 111.482 86.8008 110.459 86.6189C109.296 86.4116 108.132 86.2144 107.066 85.6754C106.112 85.1935 105.511 84.4631 105.462 83.3407C105.412 82.2082 105.976 81.4638 106.892 80.902C108.187 80.1071 109.636 80.0243 111.094 79.9844V79.9856Z" fill="#5C5B5F"/>
<path d="M71.9377 85.8175C71.9377 87.4014 71.9072 88.9859 71.9512 90.5686C71.9718 91.2937 71.6994 91.4774 71.0072 91.4974C68.9331 91.5573 68.9337 91.5878 68.9337 89.5419C68.9337 86.9171 69.0294 84.2876 68.8944 81.6699C68.8245 80.3079 69.4251 80.2639 70.4659 80.2598C71.4792 80.2551 72.0763 80.3455 71.9653 81.6118C71.8432 83.0037 71.9377 84.415 71.9371 85.8175H71.9377Z" fill="#5C5B5F"/>
</g>
</g>
</svg>
