<svg width="20" height="20" viewBox="0 0 20 20" fill="none" xmlns="http://www.w3.org/2000/svg">
<g id="icon / twitter">
<path id="Vector" d="M19.1922 6.06705L16.8562 8.40299C16.3844 13.8733 11.7711 18.1249 6.24998 18.1249C5.1156 18.1249 4.18045 17.9452 3.47029 17.5905C2.89763 17.3038 2.66326 16.9967 2.60467 16.9092C2.55242 16.8309 2.51855 16.7417 2.5056 16.6485C2.49265 16.5552 2.50095 16.4602 2.52987 16.3706C2.55879 16.2809 2.60759 16.199 2.67263 16.1309C2.73767 16.0628 2.81725 16.0102 2.90545 15.9772C2.92576 15.9694 4.7992 15.2499 5.98904 13.8803C5.32918 13.3378 4.75316 12.7007 4.27967 11.9897C3.31092 10.5514 2.22654 8.05299 2.56092 4.3194C2.57151 4.20076 2.61579 4.08762 2.68853 3.99331C2.76128 3.89899 2.85946 3.82743 2.97151 3.78704C3.08356 3.74665 3.20482 3.73912 3.32101 3.76534C3.43719 3.79156 3.54347 3.85043 3.62732 3.93502C3.65467 3.96237 6.22732 6.52096 9.37263 7.35065V6.87486C9.37144 6.37595 9.47008 5.88185 9.66275 5.42164C9.85542 4.96143 10.1382 4.54443 10.4945 4.19518C10.8405 3.84965 11.2522 3.57693 11.7054 3.3931C12.1585 3.20928 12.6438 3.11807 13.1328 3.12487C13.7887 3.13133 14.4318 3.30741 14.9995 3.63596C15.5672 3.96452 16.0403 4.43438 16.3726 4.99987H18.75C18.8737 4.99977 18.9946 5.03637 19.0975 5.10504C19.2003 5.17371 19.2805 5.27136 19.3279 5.38562C19.3752 5.49989 19.3876 5.62563 19.3634 5.74693C19.3393 5.86823 19.2797 5.97964 19.1922 6.06705Z" fill="#C0C7E1"/>
</g>
</svg>
