<svg width="42" height="52" viewBox="0 0 42 52" fill="none" xmlns="http://www.w3.org/2000/svg">
<g id="Union" opacity="0.3">
<path d="M-6.37209 0H-10V3.62791H-6.37209V0Z" fill="#46A7DE"/>
<path d="M-6.37209 9.67442H-10V13.3023H-6.37209V9.67442Z" fill="#46A7DE"/>
<path d="M-10 19.3488H-6.37209V22.9767H-10V19.3488Z" fill="#46A7DE"/>
<path d="M-6.37209 29.0233H-10V32.6512H-6.37209V29.0233Z" fill="#46A7DE"/>
<path d="M-10 38.6977H-6.37209V42.3256H-10V38.6977Z" fill="#46A7DE"/>
<path d="M-6.37209 48.3721H-10V52H-6.37209V48.3721Z" fill="#46A7DE"/>
<path d="M-0.325582 0H3.30233V3.62791H-0.325582V0Z" fill="#46A7DE"/>
<path d="M3.30233 9.67442H-0.325582V13.3023H3.30233V9.67442Z" fill="#46A7DE"/>
<path d="M-0.325582 19.3488H3.30233V22.9767H-0.325582V19.3488Z" fill="#46A7DE"/>
<path d="M3.30233 29.0233H-0.325582V32.6512H3.30233V29.0233Z" fill="#46A7DE"/>
<path d="M-0.325582 38.6977H3.30233V42.3256H-0.325582V38.6977Z" fill="#46A7DE"/>
<path d="M3.30233 48.3721H-0.325582V52H3.30233V48.3721Z" fill="#46A7DE"/>
<path d="M9.34884 0H12.9767V3.62791H9.34884V0Z" fill="#46A7DE"/>
<path d="M12.9767 9.67442H9.34884V13.3023H12.9767V9.67442Z" fill="#46A7DE"/>
<path d="M9.34884 19.3488H12.9767V22.9767H9.34884V19.3488Z" fill="#46A7DE"/>
<path d="M12.9767 29.0233H9.34884V32.6512H12.9767V29.0233Z" fill="#46A7DE"/>
<path d="M9.34884 38.6977H12.9767V42.3256H9.34884V38.6977Z" fill="#46A7DE"/>
<path d="M12.9767 48.3721H9.34884V52H12.9767V48.3721Z" fill="#46A7DE"/>
<path d="M19.0233 0H22.6512V3.62791H19.0233V0Z" fill="#46A7DE"/>
<path d="M22.6512 9.67442H19.0233V13.3023H22.6512V9.67442Z" fill="#46A7DE"/>
<path d="M19.0233 19.3488H22.6512V22.9767H19.0233V19.3488Z" fill="#46A7DE"/>
<path d="M22.6512 29.0233H19.0233V32.6512H22.6512V29.0233Z" fill="#46A7DE"/>
<path d="M19.0233 38.6977H22.6512V42.3256H19.0233V38.6977Z" fill="#46A7DE"/>
<path d="M22.6512 48.3721H19.0233V52H22.6512V48.3721Z" fill="#46A7DE"/>
<path d="M28.6977 0H32.3256V3.62791H28.6977V0Z" fill="#46A7DE"/>
<path d="M32.3256 9.67442H28.6977V13.3023H32.3256V9.67442Z" fill="#46A7DE"/>
<path d="M28.6977 19.3488H32.3256V22.9767H28.6977V19.3488Z" fill="#46A7DE"/>
<path d="M32.3256 29.0233H28.6977V32.6512H32.3256V29.0233Z" fill="#46A7DE"/>
<path d="M28.6977 38.6977H32.3256V42.3256H28.6977V38.6977Z" fill="#46A7DE"/>
<path d="M32.3256 48.3721H28.6977V52H32.3256V48.3721Z" fill="#46A7DE"/>
<path d="M38.3721 0H42V3.62791H38.3721V0Z" fill="#46A7DE"/>
<path d="M42 9.67442H38.3721V13.3023H42V9.67442Z" fill="#46A7DE"/>
<path d="M38.3721 19.3488H42V22.9767H38.3721V19.3488Z" fill="#46A7DE"/>
<path d="M42 29.0233H38.3721V32.6512H42V29.0233Z" fill="#46A7DE"/>
<path d="M38.3721 38.6977H42V42.3256H38.3721V38.6977Z" fill="#46A7DE"/>
<path d="M42 48.3721H38.3721V52H42V48.3721Z" fill="#46A7DE"/>
</g>
</svg>
