<svg width="40" height="40" viewBox="0 0 40 40" fill="none" xmlns="http://www.w3.org/2000/svg">
<path d="M40 20C40 17.3736 39.4827 14.7728 38.4776 12.3463C37.4725 9.91982 35.9993 7.71503 34.1421 5.85786C32.285 4.00069 30.0802 2.5275 27.6537 1.52241C25.2272 0.517315 22.6264 -1.14805e-07 20 0V20H40Z" fill="#325BC4"/>
<path d="M20 6.75517e-06C17.3736 6.86997e-06 14.7728 0.517322 12.3463 1.52241C9.91982 2.52751 7.71503 4.0007 5.85786 5.85787C4.00069 7.71504 2.5275 9.91983 1.52241 12.3463C0.517314 14.7728 -1.10384e-06 17.3736 -8.74228e-07 20L20 20L20 6.75517e-06Z" fill="#3E6CE1"/>
<path d="M9.37785e-06 20C9.14824e-06 22.6264 0.517324 25.2272 1.52242 27.6537C2.52751 30.0802 4.0007 32.285 5.85787 34.1421C7.71504 35.9993 9.91983 37.4725 12.3463 38.4776C14.7728 39.4827 17.3736 40 20 40L20 20L9.37785e-06 20Z" fill="#5D86F2"/>
<path d="M20 40C22.6264 40 25.2272 39.4827 27.6537 38.4776C30.0802 37.4725 32.285 35.9993 34.1421 34.1421C35.9993 32.285 37.4725 30.0802 38.4776 27.6537C39.4827 25.2272 40 22.6264 40 20L20 20L20 40Z" fill="#3E6CE1"/>
<path d="M23.1374 11.5455V29H19.4471V15.0483H19.3448L15.3477 17.554V14.2812L19.6687 11.5455H23.1374Z" fill="white"/>
</svg>
