<svg width="40" height="40" viewBox="0 0 40 40" fill="none" xmlns="http://www.w3.org/2000/svg">
<path d="M40 20C40 17.3736 39.4827 14.7728 38.4776 12.3463C37.4725 9.91982 35.9993 7.71504 34.1421 5.85786C32.285 4.00069 30.0802 2.5275 27.6537 1.52241C25.2272 0.517315 22.6264 -1.14805e-07 20 0V20H40Z" fill="#4695DE"/>
<path d="M20 -8.74228e-07C17.3736 -7.59423e-07 14.7728 0.517314 12.3463 1.52241C9.91982 2.5275 7.71503 4.00069 5.85786 5.85786C4.00069 7.71504 2.5275 9.91982 1.52241 12.3463C0.517314 14.7728 -1.10384e-06 17.3736 -8.74228e-07 20L20 20L20 -8.74228e-07Z" fill="#46A7DE"/>
<path d="M1.74846e-06 20C1.51885e-06 22.6264 0.517316 25.2272 1.52241 27.6537C2.5275 30.0802 4.00069 32.285 5.85786 34.1421C7.71504 35.9993 9.91982 37.4725 12.3463 38.4776C14.7728 39.4827 17.3736 40 20 40L20 20L1.74846e-06 20Z" fill="#5FB6E8"/>
<path d="M20 40C22.6264 40 25.2272 39.4827 27.6537 38.4776C30.0802 37.4725 32.285 35.9993 34.1421 34.1421C35.9993 32.285 37.4725 30.0802 38.4776 27.6537C39.4827 25.2272 40 22.6264 40 20L20 20L20 40Z" fill="#5FA6E8"/>
<path d="M19.9563 29.2386C18.6836 29.2386 17.5501 29.0199 16.5558 28.5824C15.5671 28.1392 14.7859 27.5312 14.212 26.7585C13.6438 25.9801 13.3512 25.0824 13.3342 24.0653H17.0501C17.0728 24.4915 17.212 24.8665 17.4677 25.1903C17.729 25.5085 18.0756 25.7557 18.5075 25.9318C18.9393 26.108 19.4251 26.196 19.9648 26.196C20.5273 26.196 21.0245 26.0966 21.4563 25.8977C21.8881 25.6989 22.2262 25.4233 22.4705 25.071C22.7148 24.7187 22.837 24.3125 22.837 23.8523C22.837 23.3864 22.7063 22.9744 22.445 22.6165C22.1893 22.2528 21.82 21.9687 21.337 21.7642C20.8597 21.5597 20.2915 21.4574 19.6325 21.4574H18.0046V18.7472H19.6325C20.1893 18.7472 20.6808 18.6506 21.1069 18.4574C21.5387 18.2642 21.8739 17.9972 22.1126 17.6562C22.3512 17.3097 22.4705 16.9062 22.4705 16.446C22.4705 16.0085 22.3654 15.625 22.1552 15.2955C21.9506 14.9602 21.6609 14.6989 21.2859 14.5114C20.9165 14.3239 20.4847 14.2301 19.9904 14.2301C19.4904 14.2301 19.033 14.321 18.6183 14.5028C18.2035 14.679 17.8711 14.9318 17.6211 15.2614C17.3711 15.5909 17.2376 15.9773 17.2205 16.4205H13.6836C13.7006 15.4148 13.9876 14.5284 14.5444 13.7614C15.1012 12.9943 15.8512 12.3949 16.7944 11.9631C17.7433 11.5256 18.8143 11.3068 20.0075 11.3068C21.212 11.3068 22.266 11.5256 23.1694 11.9631C24.0728 12.4006 24.7745 12.9915 25.2745 13.7358C25.7802 14.4744 26.0302 15.304 26.0245 16.2244C26.0302 17.2017 25.7262 18.017 25.1126 18.6705C24.5046 19.3239 23.712 19.7386 22.7347 19.9148V20.0511C24.0188 20.2159 24.9961 20.6619 25.6665 21.3892C26.3427 22.1108 26.6779 23.0142 26.6722 24.0994C26.6779 25.0938 26.391 25.9773 25.8114 26.75C25.2376 27.5227 24.445 28.1307 23.4336 28.5739C22.4222 29.017 21.2631 29.2386 19.9563 29.2386Z" fill="white"/>
</svg>
