<svg width="40" height="40" viewBox="0 0 40 40" fill="none" xmlns="http://www.w3.org/2000/svg">
<path d="M40 20C40 17.3736 39.4827 14.7728 38.4776 12.3463C37.4725 9.91982 35.9993 7.71504 34.1421 5.85786C32.285 4.00069 30.0802 2.5275 27.6537 1.52241C25.2272 0.517315 22.6264 -1.14805e-07 20 0V20H40Z" fill="#8E66FF"/>
<path d="M20 -8.74228e-07C17.3736 -7.59423e-07 14.7728 0.517314 12.3463 1.52241C9.91982 2.5275 7.71503 4.00069 5.85786 5.85786C4.00069 7.71504 2.5275 9.91982 1.52241 12.3463C0.517314 14.7728 -1.10384e-06 17.3736 -8.74228e-07 20L20 20L20 -8.74228e-07Z" fill="#7266FF"/>
<path d="M1.74846e-06 20C1.51885e-06 22.6264 0.517316 25.2272 1.52241 27.6537C2.5275 30.0802 4.00069 32.285 5.85786 34.1421C7.71504 35.9993 9.91982 37.4725 12.3463 38.4776C14.7728 39.4827 17.3736 40 20 40L20 20L1.74846e-06 20Z" fill="#8379F7"/>
<path d="M20 40C22.6264 40 25.2272 39.4827 27.6537 38.4776C30.0802 37.4725 32.285 35.9993 34.1421 34.1421C35.9993 32.285 37.4725 30.0802 38.4776 27.6537C39.4827 25.2272 40 22.6264 40 20L20 20L20 40Z" fill="#8D83FD"/>
<path d="M13.8562 29V26.3409L20.0692 20.5881C20.5977 20.0767 21.0408 19.6165 21.3988 19.2074C21.7624 18.7983 22.038 18.3977 22.2255 18.0057C22.413 17.608 22.5067 17.179 22.5067 16.7188C22.5067 16.2074 22.3903 15.767 22.1573 15.3977C21.9244 15.0227 21.6062 14.7358 21.2028 14.5369C20.7994 14.3324 20.342 14.2301 19.8306 14.2301C19.2965 14.2301 18.8306 14.3381 18.4329 14.554C18.0352 14.7699 17.7283 15.0795 17.5124 15.483C17.2965 15.8864 17.1886 16.3665 17.1886 16.9233H13.6857C13.6857 15.7812 13.9442 14.7898 14.4613 13.9489C14.9783 13.108 15.7028 12.4574 16.6346 11.9972C17.5664 11.5369 18.6403 11.3068 19.8562 11.3068C21.1062 11.3068 22.1942 11.5284 23.1204 11.9716C24.0522 12.4091 24.7766 13.017 25.2937 13.7955C25.8107 14.5739 26.0692 15.4659 26.0692 16.4716C26.0692 17.1307 25.9386 17.7812 25.6772 18.4233C25.4215 19.0653 24.9641 19.7784 24.305 20.5625C23.646 21.3409 22.717 22.2756 21.5181 23.3665L18.9698 25.8636V25.983H26.2994V29H13.8562Z" fill="white"/>
</svg>
